SplineFontDB: 3.2
FontName: Haversham
FullName: Haversham
FamilyName: Haversham
Weight: Book
Copyright: Copyright (c) Sean Noonan, 2015
Version: 
ItalicAngle: 0
UnderlinePosition: -2
UnderlineWidth: 1
Ascent: 768
Descent: 256
InvalidEm: 0
sfntRevision: 0x00010000
LayerCount: 2
Layer: 0 1 "Back" 1
Layer: 1 1 "Fore" 0
XUID: [1021 466 -211712277 7082989]
StyleMap: 0x0040
FSType: 0
OS2Version: 2
OS2_WeightWidthSlopeOnly: 0
OS2_UseTypoMetrics: 0
CreationTime: 1608145732
ModificationTime: 1619790646
PfmFamily: 81
TTFWeight: 400
TTFWidth: 5
LineGap: 0
VLineGap: 0
Panose: 0 0 0 0 0 0 0 0 0 0
OS2TypoAscent: 768
OS2TypoAOffset: 0
OS2TypoDescent: -256
OS2TypoDOffset: 0
OS2TypoLinegap: 100
OS2WinAscent: 768
OS2WinAOffset: 0
OS2WinDescent: 256
OS2WinDOffset: 0
HheadAscent: 768
HheadAOffset: 0
HheadDescent: -256
HheadDOffset: 0
OS2SubXSize: 40
OS2SubYSize: 40
OS2SubXOff: 40
OS2SubYOff: 40
OS2SupXSize: 40
OS2SupYSize: 40
OS2SupXOff: 40
OS2SupYOff: 40
OS2StrikeYSize: 40
OS2StrikeYPos: 200
OS2CapHeight: 768
OS2XHeight: 448
OS2Vendor: 'Bird'
OS2CodePages: 203f00ff.dffd0000
OS2UnicodeRanges: 00000001.00000000.00000000.00000000
Lookup: 265 0 0 "'kern' Horizontal Kerning lookup 0" { } [' RQD' ('DFLT' <'dflt' > ) 'kern' ('DFLT' <'dflt' > ) ]
MarkAttachClasses: 1
DEI: 91125
ShortTable: maxp 16
  1
  0
  175
  248
  29
  0
  0
  1
  0
  0
  0
  0
  0
  0
  0
  0
EndShort
LangName: 1033 "" "" "Regular" "Haversham" "" "1.0"
GaspTable: 1 65535 2 0
Encoding: UnicodeFull
UnicodeInterp: none
NameList: AGL For New Fonts
DisplaySize: -48
AntiAlias: 1
FitToEm: 0
WinInfo: 23 23 11
BeginPrivate: 0
EndPrivate
BeginChars: 1114114 175

StartChar: .notdef
Encoding: 1114112 -1 0
Width: 543
Flags: W
LayerCount: 2
Fore
SplineSet
51 102 m 1,0,1
 154 102 154 102 358 102 c 1,2,3
 358 290 358 290 358 666 c 1,4,5
 256 666 256 666 51 666 c 1,6,7
 51 478 51 478 51 102 c 1,0,1
0 717 m 1,8,9
 137 717 137 717 410 717 c 1,10,11
 410 495 410 495 410 51 c 1,12,13
 273 51 273 51 0 51 c 1,14,15
 0 273 0 273 0 717 c 1,8,9
EndSplineSet
EndChar

StartChar: exclam
Encoding: 33 33 4
Width: 320
Flags: W
LayerCount: 2
Fore
SplineSet
192 0 m 1,0,1
 192 16 192 16 192 64 c 0,2,3
 192 80 192 80 192 128 c 1,4,5
 208 128 208 128 256 128 c 1,6,7
 256 112 256 112 256 64 c 0,8,9
 256 48 256 48 256 0 c 1,10,11
 240 0 240 0 192 0 c 1,0,1
192 192 m 1,12,13
 192 208 192 208 192 256 c 0,14,15
 192 272 192 272 192 320 c 0,16,17
 192 336 192 336 192 384 c 0,18,19
 192 400 192 400 192 448 c 0,20,21
 192 464 192 464 192 512 c 0,22,23
 192 528 192 528 192 576 c 0,24,25
 192 592 192 592 192 640 c 1,26,27
 176 640 176 640 128 640 c 1,28,29
 128 656 128 656 128 704 c 1,30,31
 144 704 144 704 192 704 c 1,32,33
 192 720 192 720 192 768 c 1,34,35
 208 768 208 768 256 768 c 1,36,37
 256 752 256 752 256 704 c 0,38,39
 256 688 256 688 256 640 c 0,40,41
 256 624 256 624 256 576 c 0,42,43
 256 560 256 560 256 512 c 0,44,45
 256 496 256 496 256 448 c 0,46,47
 256 432 256 432 256 384 c 0,48,49
 256 368 256 368 256 320 c 0,50,51
 256 304 256 304 256 256 c 0,52,53
 256 240 256 240 256 192 c 1,54,55
 240 192 240 192 192 192 c 1,12,13
EndSplineSet
EndChar

StartChar: quotedbl
Encoding: 34 34 5
Width: 384
Flags: W
LayerCount: 2
Fore
SplineSet
256 640 m 1,0,1
 256 656 256 656 256 704 c 1,2,3
 240 704 240 704 192 704 c 1,4,5
 192 688 192 688 192 640 c 1,6,7
 176 640 176 640 128 640 c 1,8,9
 128 656 128 656 128 704 c 1,10,11
 112 704 112 704 64 704 c 1,12,13
 64 720 64 720 64 768 c 1,14,15
 80 768 80 768 128 768 c 0,16,17
 144 768 144 768 192 768 c 0,18,19
 208 768 208 768 256 768 c 0,20,21
 272 768 272 768 320 768 c 1,22,23
 320 752 320 752 320 704 c 0,24,25
 320 688 320 688 320 640 c 1,26,27
 304 640 304 640 256 640 c 1,0,1
EndSplineSet
EndChar

StartChar: numbersign
Encoding: 35 35 6
Width: 576
Flags: W
LayerCount: 2
Fore
SplineSet
384 0 m 1,0,1
 384 16 384 16 384 64 c 0,2,3
 384 80 384 80 384 128 c 1,4,5
 368 128 368 128 320 128 c 0,6,7
 304 128 304 128 256 128 c 1,8,9
 256 112 256 112 256 64 c 0,10,11
 256 48 256 48 256 0 c 1,12,13
 240 0 240 0 192 0 c 1,14,15
 192 16 192 16 192 64 c 0,16,17
 192 80 192 80 192 128 c 1,18,19
 176 128 176 128 128 128 c 0,20,21
 112 128 112 128 64 128 c 1,22,23
 64 144 64 144 64 192 c 1,24,25
 80 192 80 192 128 192 c 0,26,27
 144 192 144 192 192 192 c 1,28,29
 192 208 192 208 192 256 c 0,30,31
 192 272 192 272 192 320 c 1,32,33
 176 320 176 320 128 320 c 0,34,35
 112 320 112 320 64 320 c 1,36,37
 64 336 64 336 64 384 c 1,38,39
 80 384 80 384 128 384 c 0,40,41
 144 384 144 384 192 384 c 1,42,43
 192 400 192 400 192 448 c 0,44,45
 192 464 192 464 192 512 c 1,46,47
 208 512 208 512 256 512 c 1,48,49
 256 496 256 496 256 448 c 0,50,51
 256 432 256 432 256 384 c 1,52,53
 272 384 272 384 320 384 c 0,54,55
 336 384 336 384 384 384 c 1,56,57
 384 400 384 400 384 448 c 0,58,59
 384 464 384 464 384 512 c 1,60,61
 400 512 400 512 448 512 c 1,62,63
 448 496 448 496 448 448 c 0,64,65
 448 432 448 432 448 384 c 1,66,67
 464 384 464 384 512 384 c 1,68,69
 512 368 512 368 512 320 c 1,70,71
 496 320 496 320 448 320 c 1,72,73
 448 304 448 304 448 256 c 0,74,75
 448 240 448 240 448 192 c 1,76,77
 464 192 464 192 512 192 c 1,78,79
 512 176 512 176 512 128 c 1,80,81
 496 128 496 128 448 128 c 1,82,83
 448 112 448 112 448 64 c 0,84,85
 448 48 448 48 448 0 c 1,86,87
 432 0 432 0 384 0 c 1,0,1
320 192 m 0,88,89
 336 192 336 192 384 192 c 1,90,91
 384 208 384 208 384 256 c 0,92,93
 384 272 384 272 384 320 c 1,94,95
 368 320 368 320 320 320 c 0,96,97
 304 320 304 320 256 320 c 1,98,99
 256 304 256 304 256 256 c 0,100,101
 256 240 256 240 256 192 c 1,102,103
 272 192 272 192 320 192 c 0,88,89
EndSplineSet
EndChar

StartChar: dollar
Encoding: 36 36 7
Width: 512
Flags: W
LayerCount: 2
Fore
SplineSet
256 0 m 1,0,1
 256 16 256 16 256 64 c 1,2,3
 240 64 240 64 192 64 c 1,4,5
 192 80 192 80 192 128 c 1,6,7
 208 128 208 128 256 128 c 1,8,9
 256 144 256 144 256 192 c 0,10,11
 256 208 256 208 256 256 c 1,12,13
 240 256 240 256 192 256 c 1,14,15
 192 272 192 272 192 320 c 1,16,17
 176 320 176 320 128 320 c 1,18,19
 128 336 128 336 128 384 c 0,20,21
 128 400 128 400 128 448 c 1,22,23
 144 448 144 448 192 448 c 1,24,25
 192 464 192 464 192 512 c 1,26,27
 208 512 208 512 256 512 c 1,28,29
 256 528 256 528 256 576 c 1,30,31
 272 576 272 576 320 576 c 1,32,33
 320 560 320 560 320 512 c 1,34,35
 336 512 336 512 384 512 c 1,36,37
 384 496 384 496 384 448 c 1,38,39
 400 448 400 448 448 448 c 1,40,41
 448 432 448 432 448 384 c 1,42,43
 432 384 432 384 384 384 c 1,44,45
 384 400 384 400 384 448 c 1,46,47
 368 448 368 448 320 448 c 1,48,49
 320 432 320 432 320 384 c 0,50,51
 320 368 320 368 320 320 c 1,52,53
 336 320 336 320 384 320 c 1,54,55
 384 304 384 304 384 256 c 1,56,57
 400 256 400 256 448 256 c 1,58,59
 448 240 448 240 448 192 c 0,60,61
 448 176 448 176 448 128 c 1,62,63
 432 128 432 128 384 128 c 1,64,65
 384 144 384 144 384 192 c 0,66,67
 384 208 384 208 384 256 c 1,68,69
 368 256 368 256 320 256 c 1,70,71
 320 240 320 240 320 192 c 0,72,73
 320 176 320 176 320 128 c 1,74,75
 336 128 336 128 384 128 c 1,76,77
 384 112 384 112 384 64 c 1,78,79
 368 64 368 64 320 64 c 1,80,81
 320 48 320 48 320 0 c 1,82,83
 304 0 304 0 256 0 c 1,0,1
192 128 m 1,84,85
 176 128 176 128 128 128 c 1,86,87
 128 144 128 144 128 192 c 1,88,89
 144 192 144 192 192 192 c 1,90,91
 192 176 192 176 192 128 c 1,84,85
256 320 m 1,92,93
 256 336 256 336 256 384 c 0,94,95
 256 400 256 400 256 448 c 1,96,97
 240 448 240 448 192 448 c 1,98,99
 192 432 192 432 192 384 c 0,100,101
 192 368 192 368 192 320 c 1,102,103
 208 320 208 320 256 320 c 1,92,93
EndSplineSet
EndChar

StartChar: percent
Encoding: 37 37 8
Width: 576
Flags: W
LayerCount: 2
Fore
SplineSet
384 0 m 1,0,1
 384 16 384 16 384 64 c 1,2,3
 400 64 400 64 448 64 c 1,4,5
 448 48 448 48 448 0 c 1,6,7
 432 0 432 0 384 0 c 1,0,1
128 0 m 1,8,9
 128 16 128 16 128 64 c 1,10,11
 144 64 144 64 192 64 c 1,12,13
 192 48 192 48 192 0 c 1,14,15
 176 0 176 0 128 0 c 1,8,9
128 320 m 1,16,17
 128 336 128 336 128 384 c 1,18,19
 144 384 144 384 192 384 c 1,20,21
 192 368 192 368 192 320 c 1,22,23
 176 320 176 320 128 320 c 1,16,17
448 64 m 1,24,25
 448 80 448 80 448 128 c 1,26,27
 464 128 464 128 512 128 c 1,28,29
 512 112 512 112 512 64 c 1,30,31
 496 64 496 64 448 64 c 1,24,25
384 64 m 1,32,33
 368 64 368 64 320 64 c 1,34,35
 320 80 320 80 320 128 c 1,36,37
 336 128 336 128 384 128 c 1,38,39
 384 112 384 112 384 64 c 1,32,33
192 64 m 1,40,41
 192 80 192 80 192 128 c 0,42,43
 192 144 192 144 192 192 c 1,44,45
 208 192 208 192 256 192 c 1,46,47
 256 176 256 176 256 128 c 0,48,49
 256 112 256 112 256 64 c 1,50,51
 240 64 240 64 192 64 c 1,40,41
448 128 m 1,52,53
 432 128 432 128 384 128 c 1,54,55
 384 144 384 144 384 192 c 1,56,57
 400 192 400 192 448 192 c 1,58,59
 448 176 448 176 448 128 c 1,52,53
256 192 m 1,60,61
 256 208 256 208 256 256 c 0,62,63
 256 272 256 272 256 320 c 1,64,65
 272 320 272 320 320 320 c 1,66,67
 320 304 320 304 320 256 c 0,68,69
 320 240 320 240 320 192 c 1,70,71
 304 192 304 192 256 192 c 1,60,61
320 320 m 1,72,73
 320 336 320 336 320 384 c 0,74,75
 320 400 320 400 320 448 c 1,76,77
 336 448 336 448 384 448 c 1,78,79
 384 432 384 432 384 384 c 0,80,81
 384 368 384 368 384 320 c 1,82,83
 368 320 368 320 320 320 c 1,72,73
192 384 m 1,84,85
 192 400 192 400 192 448 c 1,86,87
 208 448 208 448 256 448 c 1,88,89
 256 432 256 432 256 384 c 1,90,91
 240 384 240 384 192 384 c 1,84,85
128 384 m 1,92,93
 112 384 112 384 64 384 c 1,94,95
 64 400 64 400 64 448 c 1,96,97
 80 448 80 448 128 448 c 1,98,99
 128 432 128 432 128 384 c 1,92,93
384 448 m 1,100,101
 384 464 384 464 384 512 c 1,102,103
 400 512 400 512 448 512 c 1,104,105
 448 496 448 496 448 448 c 1,106,107
 432 448 432 448 384 448 c 1,100,101
192 448 m 1,108,109
 176 448 176 448 128 448 c 1,110,111
 128 464 128 464 128 512 c 1,112,113
 144 512 144 512 192 512 c 1,114,115
 192 496 192 496 192 448 c 1,108,109
EndSplineSet
EndChar

StartChar: ampersand
Encoding: 38 38 9
Width: 576
Flags: W
LayerCount: 2
Fore
SplineSet
448 0 m 1,0,1
 448 16 448 16 448 64 c 1,2,3
 464 64 464 64 512 64 c 1,4,5
 512 48 512 48 512 0 c 1,6,7
 496 0 496 0 448 0 c 1,0,1
320 64 m 0,8,9
 336 64 336 64 384 64 c 1,10,11
 384 48 384 48 384 0 c 1,12,13
 368 0 368 0 320 0 c 0,14,15
 304 0 304 0 256 0 c 0,16,17
 240 0 240 0 192 0 c 1,18,19
 192 16 192 16 192 64 c 1,20,21
 208 64 208 64 256 64 c 0,22,23
 272 64 272 64 320 64 c 0,8,9
448 64 m 1,24,25
 432 64 432 64 384 64 c 1,26,27
 384 80 384 80 384 128 c 1,28,29
 400 128 400 128 448 128 c 1,30,31
 448 112 448 112 448 64 c 1,24,25
192 64 m 1,32,33
 176 64 176 64 128 64 c 1,34,35
 128 80 128 80 128 128 c 0,36,37
 128 144 128 144 128 192 c 1,38,39
 144 192 144 192 192 192 c 1,40,41
 192 176 192 176 192 128 c 0,42,43
 192 112 192 112 192 64 c 1,32,33
448 128 m 1,44,45
 448 144 448 144 448 192 c 1,46,47
 464 192 464 192 512 192 c 1,48,49
 512 176 512 176 512 128 c 1,50,51
 496 128 496 128 448 128 c 1,44,45
384 128 m 1,52,53
 368 128 368 128 320 128 c 1,54,55
 320 144 320 144 320 192 c 1,56,57
 336 192 336 192 384 192 c 1,58,59
 384 176 384 176 384 128 c 1,52,53
320 192 m 1,60,61
 304 192 304 192 256 192 c 0,62,63
 240 192 240 192 192 192 c 1,64,65
 192 208 192 208 192 256 c 1,66,67
 208 256 208 256 256 256 c 0,68,69
 272 256 272 256 320 256 c 1,70,71
 320 240 320 240 320 192 c 1,60,61
320 256 m 1,72,73
 320 272 320 272 320 320 c 1,74,75
 336 320 336 320 384 320 c 1,76,77
 384 304 384 304 384 256 c 1,78,79
 368 256 368 256 320 256 c 1,72,73
192 256 m 1,80,81
 176 256 176 256 128 256 c 1,82,83
 128 272 128 272 128 320 c 1,84,85
 144 320 144 320 192 320 c 1,86,87
 192 304 192 304 192 256 c 1,80,81
320 320 m 1,88,89
 304 320 304 320 256 320 c 0,90,91
 240 320 240 320 192 320 c 1,92,93
 192 336 192 336 192 384 c 1,94,95
 208 384 208 384 256 384 c 0,96,97
 272 384 272 384 320 384 c 1,98,99
 320 368 320 368 320 320 c 1,88,89
EndSplineSet
EndChar

StartChar: quotesingle
Encoding: 39 39 10
Width: 256
Flags: W
LayerCount: 2
Fore
SplineSet
128 640 m 1,0,1
 128 656 128 656 128 704 c 1,2,3
 112 704 112 704 64 704 c 1,4,5
 64 720 64 720 64 768 c 1,6,7
 80 768 80 768 128 768 c 0,8,9
 144 768 144 768 192 768 c 1,10,11
 192 752 192 752 192 704 c 0,12,13
 192 688 192 688 192 640 c 1,14,15
 176 640 176 640 128 640 c 1,0,1
EndSplineSet
EndChar

StartChar: parenleft
Encoding: 40 40 11
Width: 320
Flags: W
LayerCount: 2
Fore
SplineSet
192 -128 m 1,0,1
 192 -112 192 -112 192 -64 c 1,2,3
 208 -64 208 -64 256 -64 c 1,4,5
 256 -80 256 -80 256 -128 c 1,6,7
 240 -128 240 -128 192 -128 c 1,0,1
192 -64 m 1,8,9
 176 -64 176 -64 128 -64 c 1,10,11
 128 -48 128 -48 128 0 c 0,12,13
 128 16 128 16 128 64 c 1,14,15
 144 64 144 64 192 64 c 1,16,17
 192 48 192 48 192 0 c 0,18,19
 192 -16 192 -16 192 -64 c 1,8,9
128 64 m 1,20,21
 112 64 112 64 64 64 c 1,22,23
 64 80 64 80 64 128 c 0,24,25
 64 144 64 144 64 192 c 0,26,27
 64 208 64 208 64 256 c 0,28,29
 64 272 64 272 64 320 c 0,30,31
 64 336 64 336 64 384 c 0,32,33
 64 400 64 400 64 448 c 1,34,35
 48 448 48 448 0 448 c 1,36,37
 0 464 0 464 0 512 c 1,38,39
 16 512 16 512 64 512 c 1,40,41
 64 528 64 528 64 576 c 1,42,43
 80 576 80 576 128 576 c 1,44,45
 128 560 128 560 128 512 c 0,46,47
 128 496 128 496 128 448 c 0,48,49
 128 432 128 432 128 384 c 0,50,51
 128 368 128 368 128 320 c 0,52,53
 128 304 128 304 128 256 c 0,54,55
 128 240 128 240 128 192 c 0,56,57
 128 176 128 176 128 128 c 0,58,59
 128 112 128 112 128 64 c 1,20,21
128 576 m 1,60,61
 128 592 128 592 128 640 c 0,62,63
 128 656 128 656 128 704 c 1,64,65
 144 704 144 704 192 704 c 1,66,67
 192 688 192 688 192 640 c 0,68,69
 192 624 192 624 192 576 c 1,70,71
 176 576 176 576 128 576 c 1,60,61
192 704 m 1,72,73
 192 720 192 720 192 768 c 1,74,75
 208 768 208 768 256 768 c 1,76,77
 256 752 256 752 256 704 c 1,78,79
 240 704 240 704 192 704 c 1,72,73
EndSplineSet
EndChar

StartChar: parenright
Encoding: 41 41 12
Width: 320
Flags: W
LayerCount: 2
Fore
SplineSet
64 -128 m 1,0,1
 64 -112 64 -112 64 -64 c 1,2,3
 80 -64 80 -64 128 -64 c 1,4,5
 128 -80 128 -80 128 -128 c 1,6,7
 112 -128 112 -128 64 -128 c 1,0,1
128 -64 m 1,8,9
 128 -48 128 -48 128 0 c 0,10,11
 128 16 128 16 128 64 c 1,12,13
 144 64 144 64 192 64 c 1,14,15
 192 48 192 48 192 0 c 0,16,17
 192 -16 192 -16 192 -64 c 1,18,19
 176 -64 176 -64 128 -64 c 1,8,9
192 64 m 1,20,21
 192 80 192 80 192 128 c 0,22,23
 192 144 192 144 192 192 c 0,24,25
 192 208 192 208 192 256 c 0,26,27
 192 272 192 272 192 320 c 0,28,29
 192 336 192 336 192 384 c 0,30,31
 192 400 192 400 192 448 c 0,32,33
 192 464 192 464 192 512 c 0,34,35
 192 528 192 528 192 576 c 1,36,37
 208 576 208 576 256 576 c 1,38,39
 256 560 256 560 256 512 c 0,40,41
 256 496 256 496 256 448 c 0,42,43
 256 432 256 432 256 384 c 0,44,45
 256 368 256 368 256 320 c 0,46,47
 256 304 256 304 256 256 c 0,48,49
 256 240 256 240 256 192 c 0,50,51
 256 176 256 176 256 128 c 0,52,53
 256 112 256 112 256 64 c 1,54,55
 240 64 240 64 192 64 c 1,20,21
192 576 m 1,56,57
 176 576 176 576 128 576 c 1,58,59
 128 592 128 592 128 640 c 0,60,61
 128 656 128 656 128 704 c 1,62,63
 144 704 144 704 192 704 c 1,64,65
 192 688 192 688 192 640 c 0,66,67
 192 624 192 624 192 576 c 1,56,57
128 704 m 1,68,69
 112 704 112 704 64 704 c 1,70,71
 64 720 64 720 64 768 c 1,72,73
 80 768 80 768 128 768 c 1,74,75
 128 752 128 752 128 704 c 1,68,69
EndSplineSet
EndChar

StartChar: asterisk
Encoding: 42 42 13
Width: 512
Flags: W
LayerCount: 2
Fore
SplineSet
256 384 m 1,0,1
 256 400 256 400 256 448 c 0,2,3
 256 464 256 464 256 512 c 1,4,5
 240 512 240 512 192 512 c 1,6,7
 192 496 192 496 192 448 c 1,8,9
 176 448 176 448 128 448 c 1,10,11
 128 464 128 464 128 512 c 1,12,13
 144 512 144 512 192 512 c 1,14,15
 192 528 192 528 192 576 c 1,16,17
 176 576 176 576 128 576 c 1,18,19
 128 592 128 592 128 640 c 1,20,21
 144 640 144 640 192 640 c 0,22,23
 208 640 208 640 256 640 c 1,24,25
 256 656 256 656 256 704 c 1,26,27
 272 704 272 704 320 704 c 1,28,29
 320 688 320 688 320 640 c 1,30,31
 336 640 336 640 384 640 c 0,32,33
 400 640 400 640 448 640 c 1,34,35
 448 624 448 624 448 576 c 1,36,37
 432 576 432 576 384 576 c 1,38,39
 384 560 384 560 384 512 c 1,40,41
 400 512 400 512 448 512 c 1,42,43
 448 496 448 496 448 448 c 1,44,45
 432 448 432 448 384 448 c 1,46,47
 384 464 384 464 384 512 c 1,48,49
 368 512 368 512 320 512 c 1,50,51
 320 496 320 496 320 448 c 0,52,53
 320 432 320 432 320 384 c 1,54,55
 304 384 304 384 256 384 c 1,0,1
EndSplineSet
EndChar

StartChar: plus
Encoding: 43 43 14
Width: 512
Flags: W
LayerCount: 2
Fore
SplineSet
256 0 m 1,0,1
 256 16 256 16 256 64 c 0,2,3
 256 80 256 80 256 128 c 1,4,5
 240 128 240 128 192 128 c 0,6,7
 176 128 176 128 128 128 c 1,8,9
 128 144 128 144 128 192 c 1,10,11
 144 192 144 192 192 192 c 0,12,13
 208 192 208 192 256 192 c 1,14,15
 256 208 256 208 256 256 c 0,16,17
 256 272 256 272 256 320 c 1,18,19
 272 320 272 320 320 320 c 1,20,21
 320 304 320 304 320 256 c 0,22,23
 320 240 320 240 320 192 c 1,24,25
 336 192 336 192 384 192 c 0,26,27
 400 192 400 192 448 192 c 1,28,29
 448 176 448 176 448 128 c 1,30,31
 432 128 432 128 384 128 c 0,32,33
 368 128 368 128 320 128 c 1,34,35
 320 112 320 112 320 64 c 0,36,37
 320 48 320 48 320 0 c 1,38,39
 304 0 304 0 256 0 c 1,0,1
EndSplineSet
EndChar

StartChar: comma
Encoding: 44 44 15
Width: 256
Flags: W
LayerCount: 2
Fore
SplineSet
128 -64 m 1,0,1
 128 -48 128 -48 128 0 c 1,2,3
 112 0 112 0 64 0 c 1,4,5
 64 16 64 16 64 64 c 1,6,7
 80 64 80 64 128 64 c 0,8,9
 144 64 144 64 192 64 c 1,10,11
 192 48 192 48 192 0 c 0,12,13
 192 -16 192 -16 192 -64 c 1,14,15
 176 -64 176 -64 128 -64 c 1,0,1
EndSplineSet
EndChar

StartChar: hyphen
Encoding: 45 45 16
Width: 448
Flags: W
LayerCount: 2
Fore
SplineSet
320 192 m 0,0,1
 336 192 336 192 384 192 c 1,2,3
 384 176 384 176 384 128 c 1,4,5
 368 128 368 128 320 128 c 0,6,7
 304 128 304 128 256 128 c 0,8,9
 240 128 240 128 192 128 c 1,10,11
 192 144 192 144 192 192 c 1,12,13
 208 192 208 192 256 192 c 0,14,15
 272 192 272 192 320 192 c 0,0,1
EndSplineSet
EndChar

StartChar: period
Encoding: 46 46 17
Width: 256
Flags: W
LayerCount: 2
Fore
SplineSet
128 0 m 1,0,1
 128 16 128 16 128 64 c 1,2,3
 144 64 144 64 192 64 c 1,4,5
 192 48 192 48 192 0 c 1,6,7
 176 0 176 0 128 0 c 1,0,1
EndSplineSet
EndChar

StartChar: slash
Encoding: 47 47 18
Width: 576
Flags: W
LayerCount: 2
Fore
SplineSet
128 0 m 1,0,1
 128 16 128 16 128 64 c 0,2,3
 128 80 128 80 128 128 c 1,4,5
 144 128 144 128 192 128 c 1,6,7
 192 112 192 112 192 64 c 0,8,9
 192 48 192 48 192 0 c 1,10,11
 176 0 176 0 128 0 c 1,0,1
192 128 m 1,12,13
 192 144 192 144 192 192 c 0,14,15
 192 208 192 208 192 256 c 1,16,17
 208 256 208 256 256 256 c 1,18,19
 256 240 256 240 256 192 c 0,20,21
 256 176 256 176 256 128 c 1,22,23
 240 128 240 128 192 128 c 1,12,13
256 256 m 1,24,25
 256 272 256 272 256 320 c 0,26,27
 256 336 256 336 256 384 c 1,28,29
 272 384 272 384 320 384 c 1,30,31
 320 368 320 368 320 320 c 0,32,33
 320 304 320 304 320 256 c 1,34,35
 304 256 304 256 256 256 c 1,24,25
320 384 m 1,36,37
 320 400 320 400 320 448 c 0,38,39
 320 464 320 464 320 512 c 1,40,41
 336 512 336 512 384 512 c 1,42,43
 384 496 384 496 384 448 c 0,44,45
 384 432 384 432 384 384 c 1,46,47
 368 384 368 384 320 384 c 1,36,37
384 512 m 1,48,49
 384 528 384 528 384 576 c 0,50,51
 384 592 384 592 384 640 c 1,52,53
 400 640 400 640 448 640 c 1,54,55
 448 624 448 624 448 576 c 0,56,57
 448 560 448 560 448 512 c 1,58,59
 432 512 432 512 384 512 c 1,48,49
448 640 m 1,60,61
 448 656 448 656 448 704 c 0,62,63
 448 720 448 720 448 768 c 1,64,65
 464 768 464 768 512 768 c 1,66,67
 512 752 512 752 512 704 c 0,68,69
 512 688 512 688 512 640 c 1,70,71
 496 640 496 640 448 640 c 1,60,61
320 640 m 1,72,73
 336 640 336 640 384 640 c 1,74,75
 384 624 384 624 384 576 c 1,76,77
 368 576 368 576 320 576 c 1,78,79
 320 592 320 592 320 640 c 1,72,73
EndSplineSet
EndChar

StartChar: zero
Encoding: 48 48 19
Width: 512
Flags: W
LayerCount: 2
Fore
SplineSet
320 64 m 0,0,1
 336 64 336 64 384 64 c 1,2,3
 384 48 384 48 384 0 c 1,4,5
 368 0 368 0 320 0 c 0,6,7
 304 0 304 0 256 0 c 0,8,9
 240 0 240 0 192 0 c 1,10,11
 192 16 192 16 192 64 c 1,12,13
 208 64 208 64 256 64 c 0,14,15
 272 64 272 64 320 64 c 0,0,1
384 64 m 1,16,17
 384 80 384 80 384 128 c 0,18,19
 384 144 384 144 384 192 c 0,20,21
 384 208 384 208 384 256 c 0,22,23
 384 272 384 272 384 320 c 0,24,25
 384 336 384 336 384 384 c 0,26,27
 384 400 384 400 384 448 c 1,28,29
 400 448 400 448 448 448 c 1,30,31
 448 432 448 432 448 384 c 0,32,33
 448 368 448 368 448 320 c 0,34,35
 448 304 448 304 448 256 c 0,36,37
 448 240 448 240 448 192 c 0,38,39
 448 176 448 176 448 128 c 0,40,41
 448 112 448 112 448 64 c 1,42,43
 432 64 432 64 384 64 c 1,16,17
192 64 m 1,44,45
 176 64 176 64 128 64 c 1,46,47
 128 80 128 80 128 128 c 0,48,49
 128 144 128 144 128 192 c 0,50,51
 128 208 128 208 128 256 c 0,52,53
 128 272 128 272 128 320 c 0,54,55
 128 336 128 336 128 384 c 0,56,57
 128 400 128 400 128 448 c 1,58,59
 144 448 144 448 192 448 c 1,60,61
 192 432 192 432 192 384 c 0,62,63
 192 368 192 368 192 320 c 0,64,65
 192 304 192 304 192 256 c 0,66,67
 192 240 192 240 192 192 c 0,68,69
 192 176 192 176 192 128 c 0,70,71
 192 112 192 112 192 64 c 1,44,45
384 448 m 1,72,73
 368 448 368 448 320 448 c 0,74,75
 304 448 304 448 256 448 c 0,76,77
 240 448 240 448 192 448 c 1,78,79
 192 464 192 464 192 512 c 1,80,81
 208 512 208 512 256 512 c 0,82,83
 272 512 272 512 320 512 c 0,84,85
 336 512 336 512 384 512 c 1,86,87
 384 496 384 496 384 448 c 1,72,73
EndSplineSet
EndChar

StartChar: one
Encoding: 49 49 20
Width: 448
Flags: W
LayerCount: 2
Fore
SplineSet
320 0 m 0,0,1
 304 0 304 0 256 0 c 0,2,3
 240 0 240 0 192 0 c 1,4,5
 192 16 192 16 192 64 c 1,6,7
 208 64 208 64 256 64 c 1,8,9
 256 80 256 80 256 128 c 0,10,11
 256 144 256 144 256 192 c 0,12,13
 256 208 256 208 256 256 c 0,14,15
 256 272 256 272 256 320 c 0,16,17
 256 336 256 336 256 384 c 1,18,19
 240 384 240 384 192 384 c 1,20,21
 192 400 192 400 192 448 c 1,22,23
 208 448 208 448 256 448 c 1,24,25
 256 464 256 464 256 512 c 1,26,27
 272 512 272 512 320 512 c 1,28,29
 320 496 320 496 320 448 c 0,30,31
 320 432 320 432 320 384 c 0,32,33
 320 368 320 368 320 320 c 0,34,35
 320 304 320 304 320 256 c 0,36,37
 320 240 320 240 320 192 c 0,38,39
 320 176 320 176 320 128 c 0,40,41
 320 112 320 112 320 64 c 1,42,43
 336 64 336 64 384 64 c 1,44,45
 384 48 384 48 384 0 c 1,46,47
 368 0 368 0 320 0 c 0,0,1
EndSplineSet
EndChar

StartChar: two
Encoding: 50 50 21
Width: 512
Flags: W
LayerCount: 2
Fore
SplineSet
384 64 m 0,0,1
 400 64 400 64 448 64 c 1,2,3
 448 48 448 48 448 0 c 1,4,5
 432 0 432 0 384 0 c 0,6,7
 368 0 368 0 320 0 c 0,8,9
 304 0 304 0 256 0 c 0,10,11
 240 0 240 0 192 0 c 0,12,13
 176 0 176 0 128 0 c 1,14,15
 128 16 128 16 128 64 c 0,16,17
 128 80 128 80 128 128 c 1,18,19
 144 128 144 128 192 128 c 1,20,21
 192 112 192 112 192 64 c 1,22,23
 208 64 208 64 256 64 c 0,24,25
 272 64 272 64 320 64 c 0,26,27
 336 64 336 64 384 64 c 0,0,1
192 128 m 1,28,29
 192 144 192 144 192 192 c 1,30,31
 208 192 208 192 256 192 c 1,32,33
 256 176 256 176 256 128 c 1,34,35
 240 128 240 128 192 128 c 1,28,29
320 256 m 0,36,37
 336 256 336 256 384 256 c 1,38,39
 384 240 384 240 384 192 c 1,40,41
 368 192 368 192 320 192 c 0,42,43
 304 192 304 192 256 192 c 1,44,45
 256 208 256 208 256 256 c 1,46,47
 272 256 272 256 320 256 c 0,36,37
384 256 m 1,48,49
 384 272 384 272 384 320 c 0,50,51
 384 336 384 336 384 384 c 0,52,53
 384 400 384 400 384 448 c 1,54,55
 400 448 400 448 448 448 c 1,56,57
 448 432 448 432 448 384 c 0,58,59
 448 368 448 368 448 320 c 0,60,61
 448 304 448 304 448 256 c 1,62,63
 432 256 432 256 384 256 c 1,48,49
192 448 m 0,64,65
 208 448 208 448 256 448 c 1,66,67
 256 432 256 432 256 384 c 1,68,69
 240 384 240 384 192 384 c 0,70,71
 176 384 176 384 128 384 c 1,72,73
 128 400 128 400 128 448 c 1,74,75
 144 448 144 448 192 448 c 0,64,65
384 448 m 1,76,77
 368 448 368 448 320 448 c 0,78,79
 304 448 304 448 256 448 c 1,80,81
 256 464 256 464 256 512 c 1,82,83
 272 512 272 512 320 512 c 0,84,85
 336 512 336 512 384 512 c 1,86,87
 384 496 384 496 384 448 c 1,76,77
EndSplineSet
EndChar

StartChar: three
Encoding: 51 51 22
Width: 512
Flags: W
LayerCount: 2
Fore
SplineSet
320 64 m 0,0,1
 336 64 336 64 384 64 c 1,2,3
 384 48 384 48 384 0 c 1,4,5
 368 0 368 0 320 0 c 0,6,7
 304 0 304 0 256 0 c 0,8,9
 240 0 240 0 192 0 c 1,10,11
 192 16 192 16 192 64 c 1,12,13
 208 64 208 64 256 64 c 0,14,15
 272 64 272 64 320 64 c 0,0,1
384 64 m 1,16,17
 384 80 384 80 384 128 c 0,18,19
 384 144 384 144 384 192 c 1,20,21
 400 192 400 192 448 192 c 1,22,23
 448 176 448 176 448 128 c 0,24,25
 448 112 448 112 448 64 c 1,26,27
 432 64 432 64 384 64 c 1,16,17
192 64 m 1,28,29
 176 64 176 64 128 64 c 1,30,31
 128 80 128 80 128 128 c 1,32,33
 144 128 144 128 192 128 c 1,34,35
 192 112 192 112 192 64 c 1,28,29
384 192 m 1,36,37
 368 192 368 192 320 192 c 0,38,39
 304 192 304 192 256 192 c 1,40,41
 256 208 256 208 256 256 c 1,42,43
 272 256 272 256 320 256 c 0,44,45
 336 256 336 256 384 256 c 1,46,47
 384 240 384 240 384 192 c 1,36,37
384 256 m 1,48,49
 384 272 384 272 384 320 c 0,50,51
 384 336 384 336 384 384 c 0,52,53
 384 400 384 400 384 448 c 1,54,55
 400 448 400 448 448 448 c 1,56,57
 448 432 448 432 448 384 c 0,58,59
 448 368 448 368 448 320 c 0,60,61
 448 304 448 304 448 256 c 1,62,63
 432 256 432 256 384 256 c 1,48,49
192 448 m 0,64,65
 208 448 208 448 256 448 c 1,66,67
 256 432 256 432 256 384 c 1,68,69
 240 384 240 384 192 384 c 0,70,71
 176 384 176 384 128 384 c 1,72,73
 128 400 128 400 128 448 c 1,74,75
 144 448 144 448 192 448 c 0,64,65
384 448 m 1,76,77
 368 448 368 448 320 448 c 0,78,79
 304 448 304 448 256 448 c 1,80,81
 256 464 256 464 256 512 c 1,82,83
 272 512 272 512 320 512 c 0,84,85
 336 512 336 512 384 512 c 1,86,87
 384 496 384 496 384 448 c 1,76,77
EndSplineSet
EndChar

StartChar: four
Encoding: 52 52 23
Width: 512
Flags: W
LayerCount: 2
Fore
SplineSet
256 0 m 0,0,1
 240 0 240 0 192 0 c 1,2,3
 192 16 192 16 192 64 c 1,4,5
 208 64 208 64 256 64 c 1,6,7
 256 80 256 80 256 128 c 0,8,9
 256 144 256 144 256 192 c 1,10,11
 240 192 240 192 192 192 c 0,12,13
 176 192 176 192 128 192 c 1,14,15
 128 208 128 208 128 256 c 0,16,17
 128 272 128 272 128 320 c 0,18,19
 128 336 128 336 128 384 c 1,20,21
 112 384 112 384 64 384 c 1,22,23
 64 400 64 400 64 448 c 1,24,25
 80 448 80 448 128 448 c 1,26,27
 128 464 128 464 128 512 c 1,28,29
 144 512 144 512 192 512 c 1,30,31
 192 496 192 496 192 448 c 0,32,33
 192 432 192 432 192 384 c 0,34,35
 192 368 192 368 192 320 c 0,36,37
 192 304 192 304 192 256 c 1,38,39
 208 256 208 256 256 256 c 1,40,41
 256 272 256 272 256 320 c 0,42,43
 256 336 256 336 256 384 c 1,44,45
 272 384 272 384 320 384 c 1,46,47
 320 368 320 368 320 320 c 0,48,49
 320 304 320 304 320 256 c 1,50,51
 336 256 336 256 384 256 c 0,52,53
 400 256 400 256 448 256 c 1,54,55
 448 240 448 240 448 192 c 1,56,57
 432 192 432 192 384 192 c 0,58,59
 368 192 368 192 320 192 c 1,60,61
 320 176 320 176 320 128 c 0,62,63
 320 112 320 112 320 64 c 0,64,65
 320 48 320 48 320 0 c 1,66,67
 304 0 304 0 256 0 c 0,0,1
EndSplineSet
EndChar

StartChar: five
Encoding: 53 53 24
Width: 512
Flags: W
LayerCount: 2
Fore
SplineSet
320 64 m 0,0,1
 336 64 336 64 384 64 c 1,2,3
 384 48 384 48 384 0 c 1,4,5
 368 0 368 0 320 0 c 0,6,7
 304 0 304 0 256 0 c 0,8,9
 240 0 240 0 192 0 c 1,10,11
 192 16 192 16 192 64 c 1,12,13
 208 64 208 64 256 64 c 0,14,15
 272 64 272 64 320 64 c 0,0,1
384 64 m 1,16,17
 384 80 384 80 384 128 c 0,18,19
 384 144 384 144 384 192 c 0,20,21
 384 208 384 208 384 256 c 1,22,23
 400 256 400 256 448 256 c 1,24,25
 448 240 448 240 448 192 c 0,26,27
 448 176 448 176 448 128 c 0,28,29
 448 112 448 112 448 64 c 1,30,31
 432 64 432 64 384 64 c 1,16,17
192 64 m 1,32,33
 176 64 176 64 128 64 c 1,34,35
 128 80 128 80 128 128 c 1,36,37
 144 128 144 128 192 128 c 1,38,39
 192 112 192 112 192 64 c 1,32,33
384 256 m 1,40,41
 368 256 368 256 320 256 c 0,42,43
 304 256 304 256 256 256 c 0,44,45
 240 256 240 256 192 256 c 1,46,47
 192 272 192 272 192 320 c 1,48,49
 208 320 208 320 256 320 c 0,50,51
 272 320 272 320 320 320 c 0,52,53
 336 320 336 320 384 320 c 1,54,55
 384 304 384 304 384 256 c 1,40,41
192 320 m 1,56,57
 176 320 176 320 128 320 c 1,58,59
 128 336 128 336 128 384 c 0,60,61
 128 400 128 400 128 448 c 0,62,63
 128 464 128 464 128 512 c 1,64,65
 144 512 144 512 192 512 c 0,66,67
 208 512 208 512 256 512 c 0,68,69
 272 512 272 512 320 512 c 0,70,71
 336 512 336 512 384 512 c 0,72,73
 400 512 400 512 448 512 c 1,74,75
 448 496 448 496 448 448 c 1,76,77
 432 448 432 448 384 448 c 0,78,79
 368 448 368 448 320 448 c 0,80,81
 304 448 304 448 256 448 c 0,82,83
 240 448 240 448 192 448 c 1,84,85
 192 432 192 432 192 384 c 0,86,87
 192 368 192 368 192 320 c 1,56,57
EndSplineSet
EndChar

StartChar: six
Encoding: 54 54 25
Width: 512
Flags: W
LayerCount: 2
Fore
SplineSet
320 64 m 0,0,1
 336 64 336 64 384 64 c 1,2,3
 384 48 384 48 384 0 c 1,4,5
 368 0 368 0 320 0 c 0,6,7
 304 0 304 0 256 0 c 0,8,9
 240 0 240 0 192 0 c 1,10,11
 192 16 192 16 192 64 c 1,12,13
 208 64 208 64 256 64 c 0,14,15
 272 64 272 64 320 64 c 0,0,1
384 64 m 1,16,17
 384 80 384 80 384 128 c 0,18,19
 384 144 384 144 384 192 c 0,20,21
 384 208 384 208 384 256 c 1,22,23
 400 256 400 256 448 256 c 1,24,25
 448 240 448 240 448 192 c 0,26,27
 448 176 448 176 448 128 c 0,28,29
 448 112 448 112 448 64 c 1,30,31
 432 64 432 64 384 64 c 1,16,17
192 64 m 1,32,33
 176 64 176 64 128 64 c 1,34,35
 128 80 128 80 128 128 c 0,36,37
 128 144 128 144 128 192 c 0,38,39
 128 208 128 208 128 256 c 0,40,41
 128 272 128 272 128 320 c 0,42,43
 128 336 128 336 128 384 c 1,44,45
 144 384 144 384 192 384 c 1,46,47
 192 368 192 368 192 320 c 0,48,49
 192 304 192 304 192 256 c 1,50,51
 208 256 208 256 256 256 c 1,52,53
 256 240 256 240 256 192 c 1,54,55
 240 192 240 192 192 192 c 1,56,57
 192 176 192 176 192 128 c 0,58,59
 192 112 192 112 192 64 c 1,32,33
384 256 m 1,60,61
 368 256 368 256 320 256 c 0,62,63
 304 256 304 256 256 256 c 1,64,65
 256 272 256 272 256 320 c 1,66,67
 272 320 272 320 320 320 c 0,68,69
 336 320 336 320 384 320 c 1,70,71
 384 304 384 304 384 256 c 1,60,61
192 384 m 1,72,73
 192 400 192 400 192 448 c 1,74,75
 208 448 208 448 256 448 c 1,76,77
 256 432 256 432 256 384 c 1,78,79
 240 384 240 384 192 384 c 1,72,73
320 512 m 0,80,81
 336 512 336 512 384 512 c 1,82,83
 384 496 384 496 384 448 c 1,84,85
 368 448 368 448 320 448 c 0,86,87
 304 448 304 448 256 448 c 1,88,89
 256 464 256 464 256 512 c 1,90,91
 272 512 272 512 320 512 c 0,80,81
EndSplineSet
EndChar

StartChar: seven
Encoding: 55 55 26
Width: 512
Flags: W
LayerCount: 2
Fore
SplineSet
128 0 m 1,0,1
 128 16 128 16 128 64 c 1,2,3
 144 64 144 64 192 64 c 1,4,5
 192 48 192 48 192 0 c 1,6,7
 176 0 176 0 128 0 c 1,0,1
192 64 m 1,8,9
 192 80 192 80 192 128 c 0,10,11
 192 144 192 144 192 192 c 1,12,13
 176 192 176 192 128 192 c 1,14,15
 128 208 128 208 128 256 c 1,16,17
 144 256 144 256 192 256 c 0,18,19
 208 256 208 256 256 256 c 1,20,21
 256 272 256 272 256 320 c 1,22,23
 272 320 272 320 320 320 c 1,24,25
 320 304 320 304 320 256 c 1,26,27
 336 256 336 256 384 256 c 1,28,29
 384 240 384 240 384 192 c 1,30,31
 368 192 368 192 320 192 c 0,32,33
 304 192 304 192 256 192 c 1,34,35
 256 176 256 176 256 128 c 0,36,37
 256 112 256 112 256 64 c 1,38,39
 240 64 240 64 192 64 c 1,8,9
320 320 m 1,40,41
 320 336 320 336 320 384 c 0,42,43
 320 400 320 400 320 448 c 1,44,45
 304 448 304 448 256 448 c 0,46,47
 240 448 240 448 192 448 c 0,48,49
 176 448 176 448 128 448 c 1,50,51
 128 464 128 464 128 512 c 1,52,53
 144 512 144 512 192 512 c 0,54,55
 208 512 208 512 256 512 c 0,56,57
 272 512 272 512 320 512 c 0,58,59
 336 512 336 512 384 512 c 0,60,61
 400 512 400 512 448 512 c 1,62,63
 448 496 448 496 448 448 c 1,64,65
 432 448 432 448 384 448 c 1,66,67
 384 432 384 432 384 384 c 0,68,69
 384 368 384 368 384 320 c 1,70,71
 368 320 368 320 320 320 c 1,40,41
EndSplineSet
EndChar

StartChar: eight
Encoding: 56 56 27
Width: 512
Flags: W
LayerCount: 2
Fore
SplineSet
320 64 m 0,0,1
 336 64 336 64 384 64 c 1,2,3
 384 48 384 48 384 0 c 1,4,5
 368 0 368 0 320 0 c 0,6,7
 304 0 304 0 256 0 c 0,8,9
 240 0 240 0 192 0 c 1,10,11
 192 16 192 16 192 64 c 1,12,13
 208 64 208 64 256 64 c 0,14,15
 272 64 272 64 320 64 c 0,0,1
384 64 m 1,16,17
 384 80 384 80 384 128 c 0,18,19
 384 144 384 144 384 192 c 0,20,21
 384 208 384 208 384 256 c 1,22,23
 400 256 400 256 448 256 c 1,24,25
 448 240 448 240 448 192 c 0,26,27
 448 176 448 176 448 128 c 0,28,29
 448 112 448 112 448 64 c 1,30,31
 432 64 432 64 384 64 c 1,16,17
192 64 m 1,32,33
 176 64 176 64 128 64 c 1,34,35
 128 80 128 80 128 128 c 0,36,37
 128 144 128 144 128 192 c 0,38,39
 128 208 128 208 128 256 c 1,40,41
 144 256 144 256 192 256 c 1,42,43
 192 240 192 240 192 192 c 0,44,45
 192 176 192 176 192 128 c 0,46,47
 192 112 192 112 192 64 c 1,32,33
384 256 m 1,48,49
 368 256 368 256 320 256 c 0,50,51
 304 256 304 256 256 256 c 0,52,53
 240 256 240 256 192 256 c 1,54,55
 192 272 192 272 192 320 c 1,56,57
 208 320 208 320 256 320 c 0,58,59
 272 320 272 320 320 320 c 0,60,61
 336 320 336 320 384 320 c 1,62,63
 384 304 384 304 384 256 c 1,48,49
384 320 m 1,64,65
 384 336 384 336 384 384 c 0,66,67
 384 400 384 400 384 448 c 1,68,69
 400 448 400 448 448 448 c 1,70,71
 448 432 448 432 448 384 c 0,72,73
 448 368 448 368 448 320 c 1,74,75
 432 320 432 320 384 320 c 1,64,65
192 320 m 1,76,77
 176 320 176 320 128 320 c 1,78,79
 128 336 128 336 128 384 c 1,80,81
 112 384 112 384 64 384 c 1,82,83
 64 400 64 400 64 448 c 1,84,85
 80 448 80 448 128 448 c 0,86,87
 144 448 144 448 192 448 c 1,88,89
 192 432 192 432 192 384 c 0,90,91
 192 368 192 368 192 320 c 1,76,77
384 448 m 1,92,93
 368 448 368 448 320 448 c 0,94,95
 304 448 304 448 256 448 c 0,96,97
 240 448 240 448 192 448 c 1,98,99
 192 464 192 464 192 512 c 1,100,101
 208 512 208 512 256 512 c 0,102,103
 272 512 272 512 320 512 c 0,104,105
 336 512 336 512 384 512 c 1,106,107
 384 496 384 496 384 448 c 1,92,93
EndSplineSet
EndChar

StartChar: nine
Encoding: 57 57 28
Width: 512
Flags: W
LayerCount: 2
Fore
SplineSet
256 64 m 0,0,1
 272 64 272 64 320 64 c 1,2,3
 320 48 320 48 320 0 c 1,4,5
 304 0 304 0 256 0 c 0,6,7
 240 0 240 0 192 0 c 1,8,9
 192 16 192 16 192 64 c 1,10,11
 208 64 208 64 256 64 c 0,0,1
320 64 m 1,12,13
 320 80 320 80 320 128 c 1,14,15
 336 128 336 128 384 128 c 1,16,17
 384 112 384 112 384 64 c 1,18,19
 368 64 368 64 320 64 c 1,12,13
384 128 m 1,20,21
 384 144 384 144 384 192 c 0,22,23
 384 208 384 208 384 256 c 1,24,25
 368 256 368 256 320 256 c 1,26,27
 320 240 320 240 320 192 c 1,28,29
 304 192 304 192 256 192 c 0,30,31
 240 192 240 192 192 192 c 1,32,33
 192 208 192 208 192 256 c 1,34,35
 208 256 208 256 256 256 c 0,36,37
 272 256 272 256 320 256 c 1,38,39
 320 272 320 272 320 320 c 1,40,41
 336 320 336 320 384 320 c 1,42,43
 384 336 384 336 384 384 c 0,44,45
 384 400 384 400 384 448 c 1,46,47
 400 448 400 448 448 448 c 1,48,49
 448 432 448 432 448 384 c 0,50,51
 448 368 448 368 448 320 c 0,52,53
 448 304 448 304 448 256 c 0,54,55
 448 240 448 240 448 192 c 0,56,57
 448 176 448 176 448 128 c 1,58,59
 432 128 432 128 384 128 c 1,20,21
192 256 m 1,60,61
 176 256 176 256 128 256 c 1,62,63
 128 272 128 272 128 320 c 0,64,65
 128 336 128 336 128 384 c 0,66,67
 128 400 128 400 128 448 c 1,68,69
 144 448 144 448 192 448 c 1,70,71
 192 432 192 432 192 384 c 0,72,73
 192 368 192 368 192 320 c 0,74,75
 192 304 192 304 192 256 c 1,60,61
384 448 m 1,76,77
 368 448 368 448 320 448 c 0,78,79
 304 448 304 448 256 448 c 0,80,81
 240 448 240 448 192 448 c 1,82,83
 192 464 192 464 192 512 c 1,84,85
 208 512 208 512 256 512 c 0,86,87
 272 512 272 512 320 512 c 0,88,89
 336 512 336 512 384 512 c 1,90,91
 384 496 384 496 384 448 c 1,76,77
EndSplineSet
EndChar

StartChar: colon
Encoding: 58 58 29
Width: 256
Flags: W
LayerCount: 2
Fore
SplineSet
128 0 m 1,0,1
 128 16 128 16 128 64 c 1,2,3
 144 64 144 64 192 64 c 1,4,5
 192 48 192 48 192 0 c 1,6,7
 176 0 176 0 128 0 c 1,0,1
128 384 m 1,8,9
 128 400 128 400 128 448 c 1,10,11
 144 448 144 448 192 448 c 1,12,13
 192 432 192 432 192 384 c 1,14,15
 176 384 176 384 128 384 c 1,8,9
EndSplineSet
EndChar

StartChar: semicolon
Encoding: 59 59 30
Width: 256
Flags: W
LayerCount: 2
Fore
SplineSet
128 -64 m 1,0,1
 128 -48 128 -48 128 0 c 2,2,3
 128 0 128 0 128 64 c 1,4,5
 144 64 144 64 192 64 c 1,6,7
 192 48 192 48 192 0 c 0,8,9
 192 -16 192 -16 192 -64 c 1,10,11
 176 -64 176 -64 128 -64 c 1,0,1
128 384 m 1,12,13
 128 400 128 400 128 448 c 1,14,15
 144 448 144 448 192 448 c 1,16,17
 192 432 192 432 192 384 c 1,18,19
 176 384 176 384 128 384 c 1,12,13
64 0 m 1,20,21
 80 0 80 0 128 0 c 1,22,23
 128 -16 128 -16 128 -64 c 1,24,25
 112 -64 112 -64 64 -64 c 1,26,27
 64 -48 64 -48 64 0 c 1,20,21
EndSplineSet
EndChar

StartChar: less
Encoding: 60 60 31
Width: 320
Flags: W
LayerCount: 2
Fore
SplineSet
192 0 m 1,0,1
 192 16 192 16 192 64 c 1,2,3
 208 64 208 64 256 64 c 1,4,5
 256 48 256 48 256 0 c 1,6,7
 240 0 240 0 192 0 c 1,0,1
192 64 m 1,8,9
 176 64 176 64 128 64 c 1,10,11
 128 80 128 80 128 128 c 1,12,13
 144 128 144 128 192 128 c 1,14,15
 192 112 192 112 192 64 c 1,8,9
128 128 m 1,16,17
 112 128 112 128 64 128 c 1,18,19
 64 144 64 144 64 192 c 1,20,21
 80 192 80 192 128 192 c 1,22,23
 128 176 128 176 128 128 c 1,16,17
128 192 m 1,24,25
 128 208 128 208 128 256 c 1,26,27
 144 256 144 256 192 256 c 1,28,29
 192 240 192 240 192 192 c 1,30,31
 176 192 176 192 128 192 c 1,24,25
192 256 m 1,32,33
 192 272 192 272 192 320 c 1,34,35
 208 320 208 320 256 320 c 1,36,37
 256 304 256 304 256 256 c 1,38,39
 240 256 240 256 192 256 c 1,32,33
EndSplineSet
EndChar

StartChar: equal
Encoding: 61 61 32
Width: 384
Flags: W
LayerCount: 2
Fore
SplineSet
256 128 m 0,0,1
 272 128 272 128 320 128 c 1,2,3
 320 112 320 112 320 64 c 1,4,5
 304 64 304 64 256 64 c 0,6,7
 240 64 240 64 192 64 c 0,8,9
 176 64 176 64 128 64 c 0,10,11
 112 64 112 64 64 64 c 1,12,13
 64 80 64 80 64 128 c 1,14,15
 80 128 80 128 128 128 c 0,16,17
 144 128 144 128 192 128 c 0,18,19
 208 128 208 128 256 128 c 0,0,1
256 256 m 0,20,21
 272 256 272 256 320 256 c 1,22,23
 320 240 320 240 320 192 c 1,24,25
 304 192 304 192 256 192 c 0,26,27
 240 192 240 192 192 192 c 0,28,29
 176 192 176 192 128 192 c 0,30,31
 112 192 112 192 64 192 c 1,32,33
 64 208 64 208 64 256 c 1,34,35
 80 256 80 256 128 256 c 0,36,37
 144 256 144 256 192 256 c 0,38,39
 208 256 208 256 256 256 c 0,20,21
EndSplineSet
EndChar

StartChar: greater
Encoding: 62 62 33
Width: 320
Flags: W
LayerCount: 2
Fore
SplineSet
64 0 m 1,0,1
 64 16 64 16 64 64 c 1,2,3
 80 64 80 64 128 64 c 1,4,5
 128 48 128 48 128 0 c 1,6,7
 112 0 112 0 64 0 c 1,0,1
128 64 m 1,8,9
 128 80 128 80 128 128 c 1,10,11
 144 128 144 128 192 128 c 1,12,13
 192 112 192 112 192 64 c 1,14,15
 176 64 176 64 128 64 c 1,8,9
192 128 m 1,16,17
 192 144 192 144 192 192 c 1,18,19
 208 192 208 192 256 192 c 1,20,21
 256 176 256 176 256 128 c 1,22,23
 240 128 240 128 192 128 c 1,16,17
192 192 m 1,24,25
 176 192 176 192 128 192 c 1,26,27
 128 208 128 208 128 256 c 1,28,29
 144 256 144 256 192 256 c 1,30,31
 192 240 192 240 192 192 c 1,24,25
128 256 m 1,32,33
 112 256 112 256 64 256 c 1,34,35
 64 272 64 272 64 320 c 1,36,37
 80 320 80 320 128 320 c 1,38,39
 128 304 128 304 128 256 c 1,32,33
EndSplineSet
EndChar

StartChar: question
Encoding: 63 63 34
Width: 576
Flags: W
LayerCount: 2
Fore
SplineSet
256 0 m 1,0,1
 256 16 256 16 256 64 c 0,2,3
 256 80 256 80 256 128 c 1,4,5
 272 128 272 128 320 128 c 1,6,7
 320 112 320 112 320 64 c 0,8,9
 320 48 320 48 320 0 c 1,10,11
 304 0 304 0 256 0 c 1,0,1
256 192 m 1,12,13
 256 208 256 208 256 256 c 0,14,15
 256 272 256 272 256 320 c 0,16,17
 256 336 256 336 256 384 c 1,18,19
 272 384 272 384 320 384 c 1,20,21
 320 368 320 368 320 320 c 0,22,23
 320 304 320 304 320 256 c 0,24,25
 320 240 320 240 320 192 c 1,26,27
 304 192 304 192 256 192 c 1,12,13
320 384 m 1,28,29
 320 400 320 400 320 448 c 1,30,31
 336 448 336 448 384 448 c 1,32,33
 384 432 384 432 384 384 c 1,34,35
 368 384 368 384 320 384 c 1,28,29
384 448 m 1,36,37
 384 464 384 464 384 512 c 1,38,39
 400 512 400 512 448 512 c 1,40,41
 448 496 448 496 448 448 c 1,42,43
 432 448 432 448 384 448 c 1,36,37
448 512 m 1,44,45
 448 528 448 528 448 576 c 0,46,47
 448 592 448 592 448 640 c 0,48,49
 448 656 448 656 448 704 c 1,50,51
 464 704 464 704 512 704 c 1,52,53
 512 688 512 688 512 640 c 0,54,55
 512 624 512 624 512 576 c 0,56,57
 512 560 512 560 512 512 c 1,58,59
 496 512 496 512 448 512 c 1,44,45
192 576 m 0,60,61
 208 576 208 576 256 576 c 1,62,63
 256 560 256 560 256 512 c 1,64,65
 240 512 240 512 192 512 c 0,66,67
 176 512 176 512 128 512 c 1,68,69
 128 528 128 528 128 576 c 1,70,71
 144 576 144 576 192 576 c 0,60,61
128 576 m 1,72,73
 112 576 112 576 64 576 c 1,74,75
 64 592 64 592 64 640 c 0,76,77
 64 656 64 656 64 704 c 1,78,79
 80 704 80 704 128 704 c 1,80,81
 128 688 128 688 128 640 c 0,82,83
 128 624 128 624 128 576 c 1,72,73
448 704 m 1,84,85
 432 704 432 704 384 704 c 0,86,87
 368 704 368 704 320 704 c 0,88,89
 304 704 304 704 256 704 c 0,90,91
 240 704 240 704 192 704 c 0,92,93
 176 704 176 704 128 704 c 1,94,95
 128 720 128 720 128 768 c 1,96,97
 144 768 144 768 192 768 c 0,98,99
 208 768 208 768 256 768 c 0,100,101
 272 768 272 768 320 768 c 0,102,103
 336 768 336 768 384 768 c 0,104,105
 400 768 400 768 448 768 c 1,106,107
 448 752 448 752 448 704 c 1,84,85
EndSplineSet
EndChar

StartChar: at
Encoding: 64 64 35
Width: 832
Flags: W
LayerCount: 2
Fore
SplineSet
576 64 m 0,0,1
 592 64 592 64 640 64 c 1,2,3
 640 48 640 48 640 0 c 1,4,5
 624 0 624 0 576 0 c 0,6,7
 560 0 560 0 512 0 c 0,8,9
 496 0 496 0 448 0 c 0,10,11
 432 0 432 0 384 0 c 0,12,13
 368 0 368 0 320 0 c 0,14,15
 304 0 304 0 256 0 c 1,16,17
 256 16 256 16 256 64 c 1,18,19
 272 64 272 64 320 64 c 0,20,21
 336 64 336 64 384 64 c 0,22,23
 400 64 400 64 448 64 c 0,24,25
 464 64 464 64 512 64 c 0,26,27
 528 64 528 64 576 64 c 0,0,1
256 64 m 1,28,29
 240 64 240 64 192 64 c 1,30,31
 192 80 192 80 192 128 c 1,32,33
 208 128 208 128 256 128 c 1,34,35
 256 112 256 112 256 64 c 1,28,29
640 192 m 0,36,37
 656 192 656 192 704 192 c 1,38,39
 704 176 704 176 704 128 c 1,40,41
 688 128 688 128 640 128 c 0,42,43
 624 128 624 128 576 128 c 1,44,45
 576 144 576 144 576 192 c 1,46,47
 592 192 592 192 640 192 c 0,36,37
192 128 m 1,48,49
 176 128 176 128 128 128 c 1,50,51
 128 144 128 144 128 192 c 1,52,53
 144 192 144 192 192 192 c 1,54,55
 192 176 192 176 192 128 c 1,48,49
704 192 m 1,56,57
 704 208 704 208 704 256 c 0,58,59
 704 272 704 272 704 320 c 0,60,61
 704 336 704 336 704 384 c 0,62,63
 704 400 704 400 704 448 c 1,64,65
 720 448 720 448 768 448 c 1,66,67
 768 432 768 432 768 384 c 0,68,69
 768 368 768 368 768 320 c 0,70,71
 768 304 768 304 768 256 c 0,72,73
 768 240 768 240 768 192 c 1,74,75
 752 192 752 192 704 192 c 1,56,57
576 192 m 1,76,77
 560 192 560 192 512 192 c 1,78,79
 512 208 512 208 512 256 c 1,80,81
 496 256 496 256 448 256 c 1,82,83
 448 240 448 240 448 192 c 1,84,85
 432 192 432 192 384 192 c 0,86,87
 368 192 368 192 320 192 c 1,88,89
 320 208 320 208 320 256 c 1,90,91
 336 256 336 256 384 256 c 0,92,93
 400 256 400 256 448 256 c 1,94,95
 448 272 448 272 448 320 c 1,96,97
 464 320 464 320 512 320 c 1,98,99
 512 336 512 336 512 384 c 1,100,101
 528 384 528 384 576 384 c 1,102,103
 576 368 576 368 576 320 c 0,104,105
 576 304 576 304 576 256 c 0,106,107
 576 240 576 240 576 192 c 1,76,77
128 192 m 1,108,109
 112 192 112 192 64 192 c 1,110,111
 64 208 64 208 64 256 c 0,112,113
 64 272 64 272 64 320 c 0,114,115
 64 336 64 336 64 384 c 0,116,117
 64 400 64 400 64 448 c 1,118,119
 80 448 80 448 128 448 c 1,120,121
 128 432 128 432 128 384 c 0,122,123
 128 368 128 368 128 320 c 0,124,125
 128 304 128 304 128 256 c 0,126,127
 128 240 128 240 128 192 c 1,108,109
320 256 m 1,128,129
 304 256 304 256 256 256 c 1,130,131
 256 272 256 272 256 320 c 0,132,133
 256 336 256 336 256 384 c 1,134,135
 272 384 272 384 320 384 c 1,136,137
 320 368 320 368 320 320 c 0,138,139
 320 304 320 304 320 256 c 1,128,129
512 384 m 1,140,141
 496 384 496 384 448 384 c 0,142,143
 432 384 432 384 384 384 c 0,144,145
 368 384 368 384 320 384 c 1,146,147
 320 400 320 400 320 448 c 1,148,149
 336 448 336 448 384 448 c 0,150,151
 400 448 400 448 448 448 c 0,152,153
 464 448 464 448 512 448 c 1,154,155
 512 432 512 432 512 384 c 1,140,141
704 448 m 1,156,157
 688 448 688 448 640 448 c 1,158,159
 640 464 640 464 640 512 c 1,160,161
 656 512 656 512 704 512 c 1,162,163
 704 496 704 496 704 448 c 1,156,157
128 448 m 1,164,165
 128 464 128 464 128 512 c 1,166,167
 144 512 144 512 192 512 c 1,168,169
 192 496 192 496 192 448 c 1,170,171
 176 448 176 448 128 448 c 1,164,165
640 512 m 1,172,173
 624 512 624 512 576 512 c 1,174,175
 576 528 576 528 576 576 c 1,176,177
 592 576 592 576 640 576 c 1,178,179
 640 560 640 560 640 512 c 1,172,173
192 512 m 1,180,181
 192 528 192 528 192 576 c 1,182,183
 208 576 208 576 256 576 c 1,184,185
 256 560 256 560 256 512 c 1,186,187
 240 512 240 512 192 512 c 1,180,181
576 576 m 1,188,189
 560 576 560 576 512 576 c 0,190,191
 496 576 496 576 448 576 c 0,192,193
 432 576 432 576 384 576 c 0,194,195
 368 576 368 576 320 576 c 0,196,197
 304 576 304 576 256 576 c 1,198,199
 256 592 256 592 256 640 c 1,200,201
 272 640 272 640 320 640 c 0,202,203
 336 640 336 640 384 640 c 0,204,205
 400 640 400 640 448 640 c 0,206,207
 464 640 464 640 512 640 c 0,208,209
 528 640 528 640 576 640 c 1,210,211
 576 624 576 624 576 576 c 1,188,189
EndSplineSet
EndChar

StartChar: A
Encoding: 65 65 36
Width: 512
Flags: W
LayerCount: 2
Fore
SplineSet
384 0 m 0,0,1
 368 0 368 0 320 0 c 1,2,3
 320 16 320 16 320 64 c 1,4,5
 336 64 336 64 384 64 c 1,6,7
 384 80 384 80 384 128 c 0,8,9
 384 144 384 144 384 192 c 0,10,11
 384 208 384 208 384 256 c 0,12,13
 384 272 384 272 384 320 c 0,14,15
 384 336 384 336 384 384 c 1,16,17
 368 384 368 384 320 384 c 0,18,19
 304 384 304 384 256 384 c 0,20,21
 240 384 240 384 192 384 c 1,22,23
 192 368 192 368 192 320 c 0,24,25
 192 304 192 304 192 256 c 0,26,27
 192 240 192 240 192 192 c 0,28,29
 192 176 192 176 192 128 c 0,30,31
 192 112 192 112 192 64 c 0,32,33
 192 48 192 48 192 0 c 1,34,35
 176 0 176 0 128 0 c 0,36,37
 112 0 112 0 64 0 c 1,38,39
 64 16 64 16 64 64 c 1,40,41
 80 64 80 64 128 64 c 1,42,43
 128 80 128 80 128 128 c 0,44,45
 128 144 128 144 128 192 c 0,46,47
 128 208 128 208 128 256 c 0,48,49
 128 272 128 272 128 320 c 0,50,51
 128 336 128 336 128 384 c 0,52,53
 128 400 128 400 128 448 c 0,54,55
 128 464 128 464 128 512 c 0,56,57
 128 528 128 528 128 576 c 0,58,59
 128 592 128 592 128 640 c 1,60,61
 112 640 112 640 64 640 c 1,62,63
 64 656 64 656 64 704 c 1,64,65
 80 704 80 704 128 704 c 1,66,67
 128 720 128 720 128 768 c 1,68,69
 144 768 144 768 192 768 c 0,70,71
 208 768 208 768 256 768 c 0,72,73
 272 768 272 768 320 768 c 0,74,75
 336 768 336 768 384 768 c 0,76,77
 400 768 400 768 448 768 c 1,78,79
 448 752 448 752 448 704 c 0,80,81
 448 688 448 688 448 640 c 0,82,83
 448 624 448 624 448 576 c 0,84,85
 448 560 448 560 448 512 c 0,86,87
 448 496 448 496 448 448 c 0,88,89
 448 432 448 432 448 384 c 0,90,91
 448 368 448 368 448 320 c 0,92,93
 448 304 448 304 448 256 c 0,94,95
 448 240 448 240 448 192 c 0,96,97
 448 176 448 176 448 128 c 0,98,99
 448 112 448 112 448 64 c 0,100,101
 448 48 448 48 448 0 c 1,102,103
 432 0 432 0 384 0 c 0,0,1
320 448 m 0,104,105
 336 448 336 448 384 448 c 1,106,107
 384 464 384 464 384 512 c 0,108,109
 384 528 384 528 384 576 c 0,110,111
 384 592 384 592 384 640 c 0,112,113
 384 656 384 656 384 704 c 1,114,115
 368 704 368 704 320 704 c 0,116,117
 304 704 304 704 256 704 c 0,118,119
 240 704 240 704 192 704 c 1,120,121
 192 688 192 688 192 640 c 0,122,123
 192 624 192 624 192 576 c 0,124,125
 192 560 192 560 192 512 c 0,126,127
 192 496 192 496 192 448 c 1,128,129
 208 448 208 448 256 448 c 0,130,131
 272 448 272 448 320 448 c 0,104,105
EndSplineSet
EndChar

StartChar: B
Encoding: 66 66 37
Width: 512
Flags: W
LayerCount: 2
Fore
SplineSet
320 64 m 0,0,1
 336 64 336 64 384 64 c 1,2,3
 384 80 384 80 384 128 c 0,4,5
 384 144 384 144 384 192 c 0,6,7
 384 208 384 208 384 256 c 0,8,9
 384 272 384 272 384 320 c 0,10,11
 384 336 384 336 384 384 c 1,12,13
 368 384 368 384 320 384 c 0,14,15
 304 384 304 384 256 384 c 0,16,17
 240 384 240 384 192 384 c 1,18,19
 192 368 192 368 192 320 c 0,20,21
 192 304 192 304 192 256 c 0,22,23
 192 240 192 240 192 192 c 0,24,25
 192 176 192 176 192 128 c 0,26,27
 192 112 192 112 192 64 c 1,28,29
 208 64 208 64 256 64 c 0,30,31
 272 64 272 64 320 64 c 0,0,1
320 0 m 0,32,33
 304 0 304 0 256 0 c 0,34,35
 240 0 240 0 192 0 c 0,36,37
 176 0 176 0 128 0 c 0,38,39
 112 0 112 0 64 0 c 1,40,41
 64 16 64 16 64 64 c 1,42,43
 80 64 80 64 128 64 c 1,44,45
 128 80 128 80 128 128 c 0,46,47
 128 144 128 144 128 192 c 0,48,49
 128 208 128 208 128 256 c 0,50,51
 128 272 128 272 128 320 c 0,52,53
 128 336 128 336 128 384 c 0,54,55
 128 400 128 400 128 448 c 0,56,57
 128 464 128 464 128 512 c 0,58,59
 128 528 128 528 128 576 c 0,60,61
 128 592 128 592 128 640 c 1,62,63
 112 640 112 640 64 640 c 1,64,65
 64 656 64 656 64 704 c 1,66,67
 80 704 80 704 128 704 c 1,68,69
 128 720 128 720 128 768 c 1,70,71
 144 768 144 768 192 768 c 0,72,73
 208 768 208 768 256 768 c 0,74,75
 272 768 272 768 320 768 c 0,76,77
 336 768 336 768 384 768 c 1,78,79
 384 752 384 752 384 704 c 1,80,81
 400 704 400 704 448 704 c 1,82,83
 448 688 448 688 448 640 c 0,84,85
 448 624 448 624 448 576 c 0,86,87
 448 560 448 560 448 512 c 0,88,89
 448 496 448 496 448 448 c 1,90,91
 432 448 432 448 384 448 c 1,92,93
 384 464 384 464 384 512 c 0,94,95
 384 528 384 528 384 576 c 0,96,97
 384 592 384 592 384 640 c 0,98,99
 384 656 384 656 384 704 c 1,100,101
 368 704 368 704 320 704 c 0,102,103
 304 704 304 704 256 704 c 0,104,105
 240 704 240 704 192 704 c 1,106,107
 192 688 192 688 192 640 c 0,108,109
 192 624 192 624 192 576 c 0,110,111
 192 560 192 560 192 512 c 0,112,113
 192 496 192 496 192 448 c 1,114,115
 208 448 208 448 256 448 c 0,116,117
 272 448 272 448 320 448 c 0,118,119
 336 448 336 448 384 448 c 1,120,121
 384 432 384 432 384 384 c 1,122,123
 400 384 400 384 448 384 c 1,124,125
 448 368 448 368 448 320 c 0,126,127
 448 304 448 304 448 256 c 0,128,129
 448 240 448 240 448 192 c 0,130,131
 448 176 448 176 448 128 c 0,132,133
 448 112 448 112 448 64 c 1,134,135
 432 64 432 64 384 64 c 1,136,137
 384 48 384 48 384 0 c 1,138,139
 368 0 368 0 320 0 c 0,32,33
EndSplineSet
EndChar

StartChar: C
Encoding: 67 67 38
Width: 512
Flags: W
LayerCount: 2
Fore
SplineSet
384 640 m 1,0,1
 384 656 384 656 384 704 c 1,2,3
 400 704 400 704 448 704 c 1,4,5
 448 688 448 688 448 640 c 1,6,7
 432 640 432 640 384 640 c 1,0,1
320 64 m 0,8,9
 336 64 336 64 384 64 c 1,10,11
 384 48 384 48 384 0 c 1,12,13
 368 0 368 0 320 0 c 0,14,15
 304 0 304 0 256 0 c 0,16,17
 240 0 240 0 192 0 c 1,18,19
 192 16 192 16 192 64 c 1,20,21
 208 64 208 64 256 64 c 0,22,23
 272 64 272 64 320 64 c 0,8,9
384 64 m 1,24,25
 384 80 384 80 384 128 c 1,26,27
 400 128 400 128 448 128 c 1,28,29
 448 112 448 112 448 64 c 1,30,31
 432 64 432 64 384 64 c 1,24,25
192 64 m 1,32,33
 176 64 176 64 128 64 c 1,34,35
 128 80 128 80 128 128 c 0,36,37
 128 144 128 144 128 192 c 0,38,39
 128 208 128 208 128 256 c 0,40,41
 128 272 128 272 128 320 c 0,42,43
 128 336 128 336 128 384 c 0,44,45
 128 400 128 400 128 448 c 0,46,47
 128 464 128 464 128 512 c 0,48,49
 128 528 128 528 128 576 c 0,50,51
 128 592 128 592 128 640 c 1,52,53
 112 640 112 640 64 640 c 1,54,55
 64 656 64 656 64 704 c 1,56,57
 80 704 80 704 128 704 c 0,58,59
 144 704 144 704 192 704 c 1,60,61
 192 688 192 688 192 640 c 0,62,63
 192 624 192 624 192 576 c 0,64,65
 192 560 192 560 192 512 c 0,66,67
 192 496 192 496 192 448 c 0,68,69
 192 432 192 432 192 384 c 0,70,71
 192 368 192 368 192 320 c 0,72,73
 192 304 192 304 192 256 c 0,74,75
 192 240 192 240 192 192 c 0,76,77
 192 176 192 176 192 128 c 0,78,79
 192 112 192 112 192 64 c 1,32,33
384 704 m 1,80,81
 368 704 368 704 320 704 c 0,82,83
 304 704 304 704 256 704 c 0,84,85
 240 704 240 704 192 704 c 1,86,87
 192 720 192 720 192 768 c 1,88,89
 208 768 208 768 256 768 c 0,90,91
 272 768 272 768 320 768 c 0,92,93
 336 768 336 768 384 768 c 1,94,95
 384 752 384 752 384 704 c 1,80,81
EndSplineSet
EndChar

StartChar: D
Encoding: 68 68 39
Width: 512
Flags: W
LayerCount: 2
Fore
SplineSet
320 64 m 0,0,1
 336 64 336 64 384 64 c 1,2,3
 384 80 384 80 384 128 c 0,4,5
 384 144 384 144 384 192 c 0,6,7
 384 208 384 208 384 256 c 0,8,9
 384 272 384 272 384 320 c 0,10,11
 384 336 384 336 384 384 c 0,12,13
 384 400 384 400 384 448 c 0,14,15
 384 464 384 464 384 512 c 0,16,17
 384 528 384 528 384 576 c 0,18,19
 384 592 384 592 384 640 c 0,20,21
 384 656 384 656 384 704 c 1,22,23
 368 704 368 704 320 704 c 0,24,25
 304 704 304 704 256 704 c 0,26,27
 240 704 240 704 192 704 c 1,28,29
 192 688 192 688 192 640 c 0,30,31
 192 624 192 624 192 576 c 0,32,33
 192 560 192 560 192 512 c 0,34,35
 192 496 192 496 192 448 c 0,36,37
 192 432 192 432 192 384 c 0,38,39
 192 368 192 368 192 320 c 0,40,41
 192 304 192 304 192 256 c 0,42,43
 192 240 192 240 192 192 c 0,44,45
 192 176 192 176 192 128 c 0,46,47
 192 112 192 112 192 64 c 1,48,49
 208 64 208 64 256 64 c 0,50,51
 272 64 272 64 320 64 c 0,0,1
320 0 m 0,52,53
 304 0 304 0 256 0 c 0,54,55
 240 0 240 0 192 0 c 0,56,57
 176 0 176 0 128 0 c 0,58,59
 112 0 112 0 64 0 c 1,60,61
 64 16 64 16 64 64 c 1,62,63
 80 64 80 64 128 64 c 1,64,65
 128 80 128 80 128 128 c 0,66,67
 128 144 128 144 128 192 c 0,68,69
 128 208 128 208 128 256 c 0,70,71
 128 272 128 272 128 320 c 0,72,73
 128 336 128 336 128 384 c 0,74,75
 128 400 128 400 128 448 c 0,76,77
 128 464 128 464 128 512 c 0,78,79
 128 528 128 528 128 576 c 0,80,81
 128 592 128 592 128 640 c 1,82,83
 112 640 112 640 64 640 c 1,84,85
 64 656 64 656 64 704 c 1,86,87
 80 704 80 704 128 704 c 1,88,89
 128 720 128 720 128 768 c 1,90,91
 144 768 144 768 192 768 c 0,92,93
 208 768 208 768 256 768 c 0,94,95
 272 768 272 768 320 768 c 0,96,97
 336 768 336 768 384 768 c 1,98,99
 384 752 384 752 384 704 c 1,100,101
 400 704 400 704 448 704 c 1,102,103
 448 688 448 688 448 640 c 0,104,105
 448 624 448 624 448 576 c 0,106,107
 448 560 448 560 448 512 c 0,108,109
 448 496 448 496 448 448 c 0,110,111
 448 432 448 432 448 384 c 0,112,113
 448 368 448 368 448 320 c 0,114,115
 448 304 448 304 448 256 c 0,116,117
 448 240 448 240 448 192 c 0,118,119
 448 176 448 176 448 128 c 0,120,121
 448 112 448 112 448 64 c 1,122,123
 432 64 432 64 384 64 c 1,124,125
 384 48 384 48 384 0 c 1,126,127
 368 0 368 0 320 0 c 0,52,53
EndSplineSet
EndChar

StartChar: E
Encoding: 69 69 40
Width: 448
Flags: W
LayerCount: 2
Fore
SplineSet
320 64 m 0,0,1
 336 64 336 64 384 64 c 1,2,3
 384 48 384 48 384 0 c 1,4,5
 368 0 368 0 320 0 c 0,6,7
 304 0 304 0 256 0 c 0,8,9
 240 0 240 0 192 0 c 0,10,11
 176 0 176 0 128 0 c 0,12,13
 112 0 112 0 64 0 c 1,14,15
 64 16 64 16 64 64 c 1,16,17
 80 64 80 64 128 64 c 1,18,19
 128 80 128 80 128 128 c 0,20,21
 128 144 128 144 128 192 c 0,22,23
 128 208 128 208 128 256 c 0,24,25
 128 272 128 272 128 320 c 0,26,27
 128 336 128 336 128 384 c 0,28,29
 128 400 128 400 128 448 c 0,30,31
 128 464 128 464 128 512 c 0,32,33
 128 528 128 528 128 576 c 0,34,35
 128 592 128 592 128 640 c 1,36,37
 112 640 112 640 64 640 c 1,38,39
 64 656 64 656 64 704 c 1,40,41
 80 704 80 704 128 704 c 1,42,43
 128 720 128 720 128 768 c 1,44,45
 144 768 144 768 192 768 c 0,46,47
 208 768 208 768 256 768 c 0,48,49
 272 768 272 768 320 768 c 0,50,51
 336 768 336 768 384 768 c 1,52,53
 384 752 384 752 384 704 c 1,54,55
 368 704 368 704 320 704 c 0,56,57
 304 704 304 704 256 704 c 0,58,59
 240 704 240 704 192 704 c 1,60,61
 192 688 192 688 192 640 c 0,62,63
 192 624 192 624 192 576 c 0,64,65
 192 560 192 560 192 512 c 0,66,67
 192 496 192 496 192 448 c 1,68,69
 208 448 208 448 256 448 c 0,70,71
 272 448 272 448 320 448 c 1,72,73
 320 448 320 448 320 384 c 1,74,75
 304 384 304 384 256 384 c 0,76,77
 240 384 240 384 192 384 c 1,78,79
 192 368 192 368 192 320 c 0,80,81
 192 304 192 304 192 256 c 0,82,83
 192 240 192 240 192 192 c 0,84,85
 192 176 192 176 192 128 c 0,86,87
 192 112 192 112 192 64 c 1,88,89
 208 64 208 64 256 64 c 0,90,91
 272 64 272 64 320 64 c 0,0,1
EndSplineSet
EndChar

StartChar: F
Encoding: 70 70 41
Width: 512
Flags: W
LayerCount: 2
Fore
SplineSet
128 0 m 0,0,1
 112 0 112 0 64 0 c 1,2,3
 64 16 64 16 64 64 c 1,4,5
 80 64 80 64 128 64 c 1,6,7
 128 80 128 80 128 128 c 0,8,9
 128 144 128 144 128 192 c 0,10,11
 128 208 128 208 128 256 c 0,12,13
 128 272 128 272 128 320 c 0,14,15
 128 336 128 336 128 384 c 0,16,17
 128 400 128 400 128 448 c 0,18,19
 128 464 128 464 128 512 c 0,20,21
 128 528 128 528 128 576 c 0,22,23
 128 592 128 592 128 640 c 1,24,25
 112 640 112 640 64 640 c 1,26,27
 64 656 64 656 64 704 c 1,28,29
 80 704 80 704 128 704 c 1,30,31
 128 720 128 720 128 768 c 1,32,33
 144 768 144 768 192 768 c 0,34,35
 208 768 208 768 256 768 c 0,36,37
 272 768 272 768 320 768 c 0,38,39
 336 768 336 768 384 768 c 0,40,41
 400 768 400 768 448 768 c 1,42,43
 448 752 448 752 448 704 c 1,44,45
 432 704 432 704 384 704 c 0,46,47
 368 704 368 704 320 704 c 0,48,49
 304 704 304 704 256 704 c 0,50,51
 240 704 240 704 192 704 c 1,52,53
 192 688 192 688 192 640 c 0,54,55
 192 624 192 624 192 576 c 0,56,57
 192 560 192 560 192 512 c 0,58,59
 192 496 192 496 192 448 c 1,60,61
 208 448 208 448 256 448 c 0,62,63
 272 448 272 448 320 448 c 0,64,65
 336 448 336 448 384 448 c 1,66,67
 384 432 384 432 384 384 c 1,68,69
 368 384 368 384 320 384 c 0,70,71
 304 384 304 384 256 384 c 0,72,73
 240 384 240 384 192 384 c 1,74,75
 192 368 192 368 192 320 c 0,76,77
 192 304 192 304 192 256 c 0,78,79
 192 240 192 240 192 192 c 0,80,81
 192 176 192 176 192 128 c 0,82,83
 192 112 192 112 192 64 c 0,84,85
 192 48 192 48 192 0 c 1,86,87
 176 0 176 0 128 0 c 0,0,1
EndSplineSet
EndChar

StartChar: G
Encoding: 71 71 42
Width: 512
Flags: W
LayerCount: 2
Fore
SplineSet
384 640 m 1,0,1
 384 656 384 656 384 704 c 1,2,3
 400 704 400 704 448 704 c 1,4,5
 448 688 448 688 448 640 c 1,6,7
 432 640 432 640 384 640 c 1,0,1
320 64 m 0,8,9
 336 64 336 64 384 64 c 1,10,11
 384 48 384 48 384 0 c 1,12,13
 368 0 368 0 320 0 c 0,14,15
 304 0 304 0 256 0 c 0,16,17
 240 0 240 0 192 0 c 0,18,19
 176 0 176 0 128 0 c 0,20,21
 112 0 112 0 64 0 c 1,22,23
 64 16 64 16 64 64 c 1,24,25
 80 64 80 64 128 64 c 1,26,27
 128 80 128 80 128 128 c 0,28,29
 128 144 128 144 128 192 c 0,30,31
 128 208 128 208 128 256 c 0,32,33
 128 272 128 272 128 320 c 0,34,35
 128 336 128 336 128 384 c 0,36,37
 128 400 128 400 128 448 c 0,38,39
 128 464 128 464 128 512 c 0,40,41
 128 528 128 528 128 576 c 0,42,43
 128 592 128 592 128 640 c 1,44,45
 112 640 112 640 64 640 c 1,46,47
 64 656 64 656 64 704 c 1,48,49
 80 704 80 704 128 704 c 1,50,51
 128 720 128 720 128 768 c 1,52,53
 144 768 144 768 192 768 c 0,54,55
 208 768 208 768 256 768 c 0,56,57
 272 768 272 768 320 768 c 0,58,59
 336 768 336 768 384 768 c 1,60,61
 384 752 384 752 384 704 c 1,62,63
 368 704 368 704 320 704 c 0,64,65
 304 704 304 704 256 704 c 0,66,67
 240 704 240 704 192 704 c 1,68,69
 192 688 192 688 192 640 c 0,70,71
 192 624 192 624 192 576 c 0,72,73
 192 560 192 560 192 512 c 0,74,75
 192 496 192 496 192 448 c 0,76,77
 192 432 192 432 192 384 c 0,78,79
 192 368 192 368 192 320 c 0,80,81
 192 304 192 304 192 256 c 0,82,83
 192 240 192 240 192 192 c 0,84,85
 192 176 192 176 192 128 c 0,86,87
 192 112 192 112 192 64 c 1,88,89
 208 64 208 64 256 64 c 0,90,91
 272 64 272 64 320 64 c 0,8,9
384 64 m 1,92,93
 384 80 384 80 384 128 c 0,94,95
 384 144 384 144 384 192 c 0,96,97
 384 208 384 208 384 256 c 0,98,99
 384 272 384 272 384 320 c 0,100,101
 384 336 384 336 384 384 c 1,102,103
 368 384 368 384 320 384 c 1,104,105
 320 400 320 400 320 448 c 1,106,107
 336 448 336 448 384 448 c 0,108,109
 400 448 400 448 448 448 c 1,110,111
 448 432 448 432 448 384 c 0,112,113
 448 368 448 368 448 320 c 0,114,115
 448 304 448 304 448 256 c 0,116,117
 448 240 448 240 448 192 c 0,118,119
 448 176 448 176 448 128 c 0,120,121
 448 112 448 112 448 64 c 1,122,123
 432 64 432 64 384 64 c 1,92,93
EndSplineSet
EndChar

StartChar: H
Encoding: 72 72 43
Width: 512
Flags: W
LayerCount: 2
Fore
SplineSet
384 0 m 0,0,1
 368 0 368 0 320 0 c 1,2,3
 320 16 320 16 320 64 c 1,4,5
 336 64 336 64 384 64 c 1,6,7
 384 80 384 80 384 128 c 0,8,9
 384 144 384 144 384 192 c 0,10,11
 384 208 384 208 384 256 c 0,12,13
 384 272 384 272 384 320 c 0,14,15
 384 336 384 336 384 384 c 1,16,17
 368 384 368 384 320 384 c 0,18,19
 304 384 304 384 256 384 c 0,20,21
 240 384 240 384 192 384 c 1,22,23
 192 368 192 368 192 320 c 0,24,25
 192 304 192 304 192 256 c 0,26,27
 192 240 192 240 192 192 c 0,28,29
 192 176 192 176 192 128 c 0,30,31
 192 112 192 112 192 64 c 0,32,33
 192 48 192 48 192 0 c 1,34,35
 176 0 176 0 128 0 c 0,36,37
 112 0 112 0 64 0 c 1,38,39
 64 16 64 16 64 64 c 1,40,41
 80 64 80 64 128 64 c 1,42,43
 128 80 128 80 128 128 c 0,44,45
 128 144 128 144 128 192 c 0,46,47
 128 208 128 208 128 256 c 0,48,49
 128 272 128 272 128 320 c 0,50,51
 128 336 128 336 128 384 c 0,52,53
 128 400 128 400 128 448 c 0,54,55
 128 464 128 464 128 512 c 0,56,57
 128 528 128 528 128 576 c 0,58,59
 128 592 128 592 128 640 c 1,60,61
 112 640 112 640 64 640 c 1,62,63
 64 656 64 656 64 704 c 1,64,65
 80 704 80 704 128 704 c 1,66,67
 128 720 128 720 128 768 c 1,68,69
 144 768 144 768 192 768 c 1,70,71
 192 752 192 752 192 704 c 0,72,73
 192 688 192 688 192 640 c 0,74,75
 192 624 192 624 192 576 c 0,76,77
 192 560 192 560 192 512 c 0,78,79
 192 496 192 496 192 448 c 1,80,81
 208 448 208 448 256 448 c 0,82,83
 272 448 272 448 320 448 c 0,84,85
 336 448 336 448 384 448 c 1,86,87
 384 464 384 464 384 512 c 0,88,89
 384 528 384 528 384 576 c 0,90,91
 384 592 384 592 384 640 c 1,92,93
 368 640 368 640 320 640 c 1,94,95
 320 656 320 656 320 704 c 1,96,97
 336 704 336 704 384 704 c 1,98,99
 384 720 384 720 384 768 c 1,100,101
 400 768 400 768 448 768 c 1,102,103
 448 752 448 752 448 704 c 0,104,105
 448 688 448 688 448 640 c 0,106,107
 448 624 448 624 448 576 c 0,108,109
 448 560 448 560 448 512 c 0,110,111
 448 496 448 496 448 448 c 0,112,113
 448 432 448 432 448 384 c 0,114,115
 448 368 448 368 448 320 c 0,116,117
 448 304 448 304 448 256 c 0,118,119
 448 240 448 240 448 192 c 0,120,121
 448 176 448 176 448 128 c 0,122,123
 448 112 448 112 448 64 c 0,124,125
 448 48 448 48 448 0 c 1,126,127
 432 0 432 0 384 0 c 0,0,1
EndSplineSet
EndChar

StartChar: I
Encoding: 73 73 44
Width: 320
Flags: W
LayerCount: 2
Fore
SplineSet
192 0 m 0,0,1
 176 0 176 0 128 0 c 0,2,3
 112 0 112 0 64 0 c 1,4,5
 64 16 64 16 64 64 c 1,6,7
 80 64 80 64 128 64 c 1,8,9
 128 80 128 80 128 128 c 0,10,11
 128 144 128 144 128 192 c 0,12,13
 128 208 128 208 128 256 c 0,14,15
 128 272 128 272 128 320 c 0,16,17
 128 336 128 336 128 384 c 0,18,19
 128 400 128 400 128 448 c 0,20,21
 128 464 128 464 128 512 c 0,22,23
 128 528 128 528 128 576 c 0,24,25
 128 592 128 592 128 640 c 0,26,27
 128 656 128 656 128 704 c 1,28,29
 112 704 112 704 64 704 c 1,30,31
 64 720 64 720 64 768 c 1,32,33
 80 768 80 768 128 768 c 0,34,35
 144 768 144 768 192 768 c 0,36,37
 208 768 208 768 256 768 c 1,38,39
 256 752 256 752 256 704 c 1,40,41
 240 704 240 704 192 704 c 1,42,43
 192 688 192 688 192 640 c 0,44,45
 192 624 192 624 192 576 c 0,46,47
 192 560 192 560 192 512 c 0,48,49
 192 496 192 496 192 448 c 0,50,51
 192 432 192 432 192 384 c 0,52,53
 192 368 192 368 192 320 c 0,54,55
 192 304 192 304 192 256 c 0,56,57
 192 240 192 240 192 192 c 0,58,59
 192 176 192 176 192 128 c 0,60,61
 192 112 192 112 192 64 c 1,62,63
 208 64 208 64 256 64 c 1,64,65
 256 48 256 48 256 0 c 1,66,67
 240 0 240 0 192 0 c 0,0,1
EndSplineSet
EndChar

StartChar: J
Encoding: 74 74 45
Width: 384
Flags: W
LayerCount: 2
Fore
SplineSet
192 64 m 0,0,1
 208 64 208 64 256 64 c 1,2,3
 256 48 256 48 256 0 c 1,4,5
 240 0 240 0 192 0 c 0,6,7
 176 0 176 0 128 0 c 1,8,9
 128 16 128 16 128 64 c 1,10,11
 144 64 144 64 192 64 c 0,0,1
256 64 m 1,12,13
 256 80 256 80 256 128 c 0,14,15
 256 144 256 144 256 192 c 0,16,17
 256 208 256 208 256 256 c 0,18,19
 256 272 256 272 256 320 c 0,20,21
 256 336 256 336 256 384 c 0,22,23
 256 400 256 400 256 448 c 0,24,25
 256 464 256 464 256 512 c 0,26,27
 256 528 256 528 256 576 c 0,28,29
 256 592 256 592 256 640 c 1,30,31
 240 640 240 640 192 640 c 1,32,33
 192 656 192 656 192 704 c 1,34,35
 208 704 208 704 256 704 c 1,36,37
 256 720 256 720 256 768 c 1,38,39
 272 768 272 768 320 768 c 1,40,41
 320 752 320 752 320 704 c 0,42,43
 320 688 320 688 320 640 c 0,44,45
 320 624 320 624 320 576 c 0,46,47
 320 560 320 560 320 512 c 0,48,49
 320 496 320 496 320 448 c 0,50,51
 320 432 320 432 320 384 c 0,52,53
 320 368 320 368 320 320 c 0,54,55
 320 304 320 304 320 256 c 0,56,57
 320 240 320 240 320 192 c 0,58,59
 320 176 320 176 320 128 c 0,60,61
 320 112 320 112 320 64 c 1,62,63
 304 64 304 64 256 64 c 1,12,13
128 64 m 1,64,65
 112 64 112 64 64 64 c 1,66,67
 64 80 64 80 64 128 c 1,68,69
 80 128 80 128 128 128 c 1,70,71
 128 112 128 112 128 64 c 1,64,65
EndSplineSet
EndChar

StartChar: K
Encoding: 75 75 46
Width: 512
Flags: W
LayerCount: 2
Fore
SplineSet
384 0 m 1,0,1
 384 16 384 16 384 64 c 1,2,3
 400 64 400 64 448 64 c 1,4,5
 448 48 448 48 448 0 c 1,6,7
 432 0 432 0 384 0 c 1,0,1
128 0 m 0,8,9
 112 0 112 0 64 0 c 1,10,11
 64 16 64 16 64 64 c 1,12,13
 80 64 80 64 128 64 c 1,14,15
 128 80 128 80 128 128 c 0,16,17
 128 144 128 144 128 192 c 0,18,19
 128 208 128 208 128 256 c 0,20,21
 128 272 128 272 128 320 c 0,22,23
 128 336 128 336 128 384 c 0,24,25
 128 400 128 400 128 448 c 0,26,27
 128 464 128 464 128 512 c 0,28,29
 128 528 128 528 128 576 c 0,30,31
 128 592 128 592 128 640 c 1,32,33
 112 640 112 640 64 640 c 1,34,35
 64 656 64 656 64 704 c 1,36,37
 80 704 80 704 128 704 c 1,38,39
 128 720 128 720 128 768 c 1,40,41
 144 768 144 768 192 768 c 1,42,43
 192 752 192 752 192 704 c 0,44,45
 192 688 192 688 192 640 c 0,46,47
 192 624 192 624 192 576 c 0,48,49
 192 560 192 560 192 512 c 0,50,51
 192 496 192 496 192 448 c 1,52,53
 208 448 208 448 256 448 c 1,54,55
 256 432 256 432 256 384 c 1,56,57
 272 384 272 384 320 384 c 1,58,59
 320 368 320 368 320 320 c 0,60,61
 320 304 320 304 320 256 c 1,62,63
 336 256 336 256 384 256 c 1,64,65
 384 240 384 240 384 192 c 0,66,67
 384 176 384 176 384 128 c 0,68,69
 384 112 384 112 384 64 c 1,70,71
 368 64 368 64 320 64 c 1,72,73
 320 80 320 80 320 128 c 0,74,75
 320 144 320 144 320 192 c 0,76,77
 320 208 320 208 320 256 c 1,78,79
 304 256 304 256 256 256 c 1,80,81
 256 272 256 272 256 320 c 0,82,83
 256 336 256 336 256 384 c 1,84,85
 240 384 240 384 192 384 c 1,86,87
 192 368 192 368 192 320 c 0,88,89
 192 304 192 304 192 256 c 0,90,91
 192 240 192 240 192 192 c 0,92,93
 192 176 192 176 192 128 c 0,94,95
 192 112 192 112 192 64 c 0,96,97
 192 48 192 48 192 0 c 1,98,99
 176 0 176 0 128 0 c 0,8,9
256 448 m 1,100,101
 256 464 256 464 256 512 c 0,102,103
 256 528 256 528 256 576 c 1,104,105
 272 576 272 576 320 576 c 1,106,107
 320 560 320 560 320 512 c 0,108,109
 320 496 320 496 320 448 c 1,110,111
 304 448 304 448 256 448 c 1,100,101
320 576 m 1,112,113
 320 592 320 592 320 640 c 0,114,115
 320 656 320 656 320 704 c 1,116,117
 336 704 336 704 384 704 c 1,118,119
 384 688 384 688 384 640 c 0,120,121
 384 624 384 624 384 576 c 1,122,123
 368 576 368 576 320 576 c 1,112,113
384 704 m 1,124,125
 384 720 384 720 384 768 c 1,126,127
 400 768 400 768 448 768 c 1,128,129
 448 752 448 752 448 704 c 1,130,131
 432 704 432 704 384 704 c 1,124,125
EndSplineSet
EndChar

StartChar: L
Encoding: 76 76 47
Width: 512
Flags: W
LayerCount: 2
Fore
SplineSet
384 64 m 0,0,1
 400 64 400 64 448 64 c 1,2,3
 448 48 448 48 448 0 c 1,4,5
 432 0 432 0 384 0 c 0,6,7
 368 0 368 0 320 0 c 0,8,9
 304 0 304 0 256 0 c 0,10,11
 240 0 240 0 192 0 c 0,12,13
 176 0 176 0 128 0 c 0,14,15
 112 0 112 0 64 0 c 1,16,17
 64 16 64 16 64 64 c 1,18,19
 80 64 80 64 128 64 c 1,20,21
 128 80 128 80 128 128 c 0,22,23
 128 144 128 144 128 192 c 0,24,25
 128 208 128 208 128 256 c 0,26,27
 128 272 128 272 128 320 c 0,28,29
 128 336 128 336 128 384 c 0,30,31
 128 400 128 400 128 448 c 0,32,33
 128 464 128 464 128 512 c 0,34,35
 128 528 128 528 128 576 c 0,36,37
 128 592 128 592 128 640 c 1,38,39
 112 640 112 640 64 640 c 1,40,41
 64 656 64 656 64 704 c 1,42,43
 80 704 80 704 128 704 c 1,44,45
 128 720 128 720 128 768 c 1,46,47
 144 768 144 768 192 768 c 1,48,49
 192 752 192 752 192 704 c 0,50,51
 192 688 192 688 192 640 c 0,52,53
 192 624 192 624 192 576 c 0,54,55
 192 560 192 560 192 512 c 0,56,57
 192 496 192 496 192 448 c 0,58,59
 192 432 192 432 192 384 c 0,60,61
 192 368 192 368 192 320 c 0,62,63
 192 304 192 304 192 256 c 0,64,65
 192 240 192 240 192 192 c 0,66,67
 192 176 192 176 192 128 c 0,68,69
 192 112 192 112 192 64 c 1,70,71
 208 64 208 64 256 64 c 0,72,73
 272 64 272 64 320 64 c 0,74,75
 336 64 336 64 384 64 c 0,0,1
EndSplineSet
EndChar

StartChar: M
Encoding: 77 77 48
Width: 640
Flags: W
LayerCount: 2
Fore
SplineSet
320 384 m 1,0,1
 320 400 320 400 320 448 c 0,2,3
 320 464 320 464 320 512 c 0,4,5
 320 528 320 528 320 576 c 1,6,7
 336 576 336 576 384 576 c 1,8,9
 384 560 384 560 384 512 c 0,10,11
 384 496 384 496 384 448 c 0,12,13
 384 432 384 432 384 384 c 1,14,15
 368 384 368 384 320 384 c 1,0,1
512 0 m 0,16,17
 496 0 496 0 448 0 c 1,18,19
 448 16 448 16 448 64 c 1,20,21
 464 64 464 64 512 64 c 1,22,23
 512 80 512 80 512 128 c 0,24,25
 512 144 512 144 512 192 c 0,26,27
 512 208 512 208 512 256 c 0,28,29
 512 272 512 272 512 320 c 0,30,31
 512 336 512 336 512 384 c 0,32,33
 512 400 512 400 512 448 c 0,34,35
 512 464 512 464 512 512 c 0,36,37
 512 528 512 528 512 576 c 0,38,39
 512 592 512 592 512 640 c 0,40,41
 512 656 512 656 512 704 c 1,42,43
 496 704 496 704 448 704 c 1,44,45
 448 688 448 688 448 640 c 0,46,47
 448 624 448 624 448 576 c 1,48,49
 432 576 432 576 384 576 c 1,50,51
 384 592 384 592 384 640 c 0,52,53
 384 656 384 656 384 704 c 1,54,55
 400 704 400 704 448 704 c 1,56,57
 448 720 448 720 448 768 c 1,58,59
 464 768 464 768 512 768 c 0,60,61
 528 768 528 768 576 768 c 1,62,63
 576 752 576 752 576 704 c 0,64,65
 576 688 576 688 576 640 c 0,66,67
 576 624 576 624 576 576 c 0,68,69
 576 560 576 560 576 512 c 0,70,71
 576 496 576 496 576 448 c 0,72,73
 576 432 576 432 576 384 c 0,74,75
 576 368 576 368 576 320 c 0,76,77
 576 304 576 304 576 256 c 0,78,79
 576 240 576 240 576 192 c 0,80,81
 576 176 576 176 576 128 c 0,82,83
 576 112 576 112 576 64 c 0,84,85
 576 48 576 48 576 0 c 1,86,87
 560 0 560 0 512 0 c 0,16,17
128 0 m 0,88,89
 112 0 112 0 64 0 c 1,90,91
 64 16 64 16 64 64 c 1,92,93
 80 64 80 64 128 64 c 1,94,95
 128 80 128 80 128 128 c 0,96,97
 128 144 128 144 128 192 c 0,98,99
 128 208 128 208 128 256 c 0,100,101
 128 272 128 272 128 320 c 0,102,103
 128 336 128 336 128 384 c 0,104,105
 128 400 128 400 128 448 c 0,106,107
 128 464 128 464 128 512 c 0,108,109
 128 528 128 528 128 576 c 0,110,111
 128 592 128 592 128 640 c 1,112,113
 112 640 112 640 64 640 c 1,114,115
 64 656 64 656 64 704 c 1,116,117
 80 704 80 704 128 704 c 1,118,119
 128 720 128 720 128 768 c 1,120,121
 144 768 144 768 192 768 c 0,122,123
 208 768 208 768 256 768 c 1,124,125
 256 752 256 752 256 704 c 1,126,127
 272 704 272 704 320 704 c 1,128,129
 320 688 320 688 320 640 c 0,130,131
 320 624 320 624 320 576 c 1,132,133
 304 576 304 576 256 576 c 1,134,135
 256 592 256 592 256 640 c 0,136,137
 256 656 256 656 256 704 c 1,138,139
 240 704 240 704 192 704 c 1,140,141
 192 688 192 688 192 640 c 0,142,143
 192 624 192 624 192 576 c 0,144,145
 192 560 192 560 192 512 c 0,146,147
 192 496 192 496 192 448 c 0,148,149
 192 432 192 432 192 384 c 0,150,151
 192 368 192 368 192 320 c 0,152,153
 192 304 192 304 192 256 c 0,154,155
 192 240 192 240 192 192 c 0,156,157
 192 176 192 176 192 128 c 0,158,159
 192 112 192 112 192 64 c 0,160,161
 192 48 192 48 192 0 c 1,162,163
 176 0 176 0 128 0 c 0,88,89
EndSplineSet
EndChar

StartChar: N
Encoding: 78 78 49
Width: 576
Flags: W
LayerCount: 2
Fore
SplineSet
448 0 m 1,0,1
 448 16 448 16 448 64 c 1,2,3
 432 64 432 64 384 64 c 1,4,5
 384 80 384 80 384 128 c 0,6,7
 384 144 384 144 384 192 c 1,8,9
 400 192 400 192 448 192 c 1,10,11
 448 640 448 640 448 640 c 1,12,13
 432 640 432 640 384 640 c 1,14,15
 384 656 384 656 384 704 c 1,16,17
 400 704 400 704 448 704 c 1,18,19
 448 720 448 720 448 768 c 1,20,21
 512 768 512 768 512 768 c 1,22,23
 512 704 512 704 512 704 c 1,24,25
 512 768 512 768 512 640 c 0,26,27
 512 0 512 0 512 0 c 1,28,29
 496 0 496 0 448 0 c 1,0,1
128 0 m 0,30,31
 112 0 112 0 64 0 c 1,32,33
 64 16 64 16 64 64 c 1,34,35
 80 64 80 64 128 64 c 1,36,37
 128 80 128 80 128 128 c 0,38,39
 128 144 128 144 128 192 c 0,40,41
 128 208 128 208 128 256 c 0,42,43
 128 272 128 272 128 320 c 0,44,45
 128 336 128 336 128 384 c 0,46,47
 128 400 128 400 128 448 c 0,48,49
 128 464 128 464 128 512 c 0,50,51
 128 528 128 528 128 576 c 0,52,53
 128 592 128 592 128 640 c 1,54,55
 112 640 112 640 64 640 c 1,56,57
 64 656 64 656 64 704 c 1,58,59
 80 704 80 704 128 704 c 1,60,61
 128 720 128 720 128 768 c 1,62,63
 144 768 144 768 192 768 c 1,64,65
 192 752 192 752 192 704 c 1,66,67
 208 704 208 704 256 704 c 1,68,69
 256 688 256 688 256 640 c 0,70,71
 256 624 256 624 256 576 c 1,72,73
 272 576 272 576 320 576 c 1,74,75
 320 560 320 560 320 512 c 0,76,77
 320 496 320 496 320 448 c 0,78,79
 320 432 320 432 320 384 c 1,80,81
 336 384 336 384 384 384 c 1,82,83
 384 368 384 368 384 320 c 0,84,85
 384 304 384 304 384 256 c 0,86,87
 384 240 384 240 384 192 c 1,88,89
 368 192 368 192 320 192 c 1,90,91
 320 208 320 208 320 256 c 0,92,93
 320 272 320 272 320 320 c 0,94,95
 320 336 320 336 320 384 c 1,96,97
 304 384 304 384 256 384 c 1,98,99
 256 400 256 400 256 448 c 0,100,101
 256 464 256 464 256 512 c 0,102,103
 256 528 256 528 256 576 c 1,104,105
 240 576 240 576 192 576 c 1,106,107
 192 560 192 560 192 512 c 0,108,109
 192 496 192 496 192 448 c 0,110,111
 192 432 192 432 192 384 c 0,112,113
 192 368 192 368 192 320 c 0,114,115
 192 304 192 304 192 256 c 0,116,117
 192 240 192 240 192 192 c 0,118,119
 192 176 192 176 192 128 c 0,120,121
 192 112 192 112 192 64 c 0,122,123
 192 48 192 48 192 0 c 1,124,125
 176 0 176 0 128 0 c 0,30,31
EndSplineSet
EndChar

StartChar: O
Encoding: 79 79 50
Width: 512
Flags: W
LayerCount: 2
Fore
SplineSet
320 64 m 0,0,1
 336 64 336 64 384 64 c 1,2,3
 384 48 384 48 384 0 c 1,4,5
 368 0 368 0 320 0 c 0,6,7
 304 0 304 0 256 0 c 0,8,9
 240 0 240 0 192 0 c 1,10,11
 192 16 192 16 192 64 c 1,12,13
 208 64 208 64 256 64 c 0,14,15
 272 64 272 64 320 64 c 0,0,1
384 64 m 1,16,17
 384 80 384 80 384 128 c 0,18,19
 384 144 384 144 384 192 c 0,20,21
 384 208 384 208 384 256 c 0,22,23
 384 272 384 272 384 320 c 0,24,25
 384 336 384 336 384 384 c 0,26,27
 384 400 384 400 384 448 c 0,28,29
 384 464 384 464 384 512 c 0,30,31
 384 528 384 528 384 576 c 0,32,33
 384 592 384 592 384 640 c 0,34,35
 384 656 384 656 384 704 c 1,36,37
 400 704 400 704 448 704 c 1,38,39
 448 688 448 688 448 640 c 0,40,41
 448 624 448 624 448 576 c 0,42,43
 448 560 448 560 448 512 c 0,44,45
 448 496 448 496 448 448 c 0,46,47
 448 432 448 432 448 384 c 0,48,49
 448 368 448 368 448 320 c 0,50,51
 448 304 448 304 448 256 c 0,52,53
 448 240 448 240 448 192 c 0,54,55
 448 176 448 176 448 128 c 0,56,57
 448 112 448 112 448 64 c 1,58,59
 432 64 432 64 384 64 c 1,16,17
192 64 m 1,60,61
 176 64 176 64 128 64 c 1,62,63
 128 80 128 80 128 128 c 0,64,65
 128 144 128 144 128 192 c 0,66,67
 128 208 128 208 128 256 c 0,68,69
 128 272 128 272 128 320 c 0,70,71
 128 336 128 336 128 384 c 0,72,73
 128 400 128 400 128 448 c 0,74,75
 128 464 128 464 128 512 c 0,76,77
 128 528 128 528 128 576 c 0,78,79
 128 592 128 592 128 640 c 0,80,81
 128 656 128 656 128 704 c 1,82,83
 144 704 144 704 192 704 c 1,84,85
 192 688 192 688 192 640 c 0,86,87
 192 624 192 624 192 576 c 0,88,89
 192 560 192 560 192 512 c 0,90,91
 192 496 192 496 192 448 c 0,92,93
 192 432 192 432 192 384 c 0,94,95
 192 368 192 368 192 320 c 0,96,97
 192 304 192 304 192 256 c 0,98,99
 192 240 192 240 192 192 c 0,100,101
 192 176 192 176 192 128 c 0,102,103
 192 112 192 112 192 64 c 1,60,61
384 704 m 1,104,105
 368 704 368 704 320 704 c 0,106,107
 304 704 304 704 256 704 c 0,108,109
 240 704 240 704 192 704 c 1,110,111
 192 720 192 720 192 768 c 1,112,113
 208 768 208 768 256 768 c 0,114,115
 272 768 272 768 320 768 c 0,116,117
 336 768 336 768 384 768 c 1,118,119
 384 752 384 752 384 704 c 1,104,105
64 640 m 1,120,121
 80 640 80 640 128 640 c 1,122,123
 128 624 128 624 128 576 c 1,124,125
 112 576 112 576 64 576 c 1,126,127
 64 592 64 592 64 640 c 1,120,121
EndSplineSet
EndChar

StartChar: P
Encoding: 80 80 51
Width: 512
Flags: W
LayerCount: 2
Fore
SplineSet
128 0 m 0,0,1
 112 0 112 0 64 0 c 1,2,3
 64 16 64 16 64 64 c 1,4,5
 80 64 80 64 128 64 c 1,6,7
 128 80 128 80 128 128 c 0,8,9
 128 144 128 144 128 192 c 0,10,11
 128 208 128 208 128 256 c 0,12,13
 128 272 128 272 128 320 c 0,14,15
 128 336 128 336 128 384 c 0,16,17
 128 400 128 400 128 448 c 0,18,19
 128 464 128 464 128 512 c 0,20,21
 128 528 128 528 128 576 c 0,22,23
 128 592 128 592 128 640 c 1,24,25
 112 640 112 640 64 640 c 1,26,27
 64 656 64 656 64 704 c 1,28,29
 80 704 80 704 128 704 c 1,30,31
 128 720 128 720 128 768 c 1,32,33
 144 768 144 768 192 768 c 0,34,35
 208 768 208 768 256 768 c 0,36,37
 272 768 272 768 320 768 c 0,38,39
 336 768 336 768 384 768 c 1,40,41
 384 752 384 752 384 704 c 1,42,43
 400 704 400 704 448 704 c 1,44,45
 448 688 448 688 448 640 c 0,46,47
 448 624 448 624 448 576 c 0,48,49
 448 560 448 560 448 512 c 0,50,51
 448 496 448 496 448 448 c 1,52,53
 432 448 432 448 384 448 c 1,54,55
 384 464 384 464 384 512 c 0,56,57
 384 528 384 528 384 576 c 0,58,59
 384 592 384 592 384 640 c 0,60,61
 384 656 384 656 384 704 c 1,62,63
 368 704 368 704 320 704 c 0,64,65
 304 704 304 704 256 704 c 0,66,67
 240 704 240 704 192 704 c 1,68,69
 192 688 192 688 192 640 c 0,70,71
 192 624 192 624 192 576 c 0,72,73
 192 560 192 560 192 512 c 0,74,75
 192 496 192 496 192 448 c 1,76,77
 208 448 208 448 256 448 c 0,78,79
 272 448 272 448 320 448 c 0,80,81
 336 448 336 448 384 448 c 1,82,83
 384 432 384 432 384 384 c 1,84,85
 368 384 368 384 320 384 c 0,86,87
 304 384 304 384 256 384 c 0,88,89
 240 384 240 384 192 384 c 1,90,91
 192 368 192 368 192 320 c 0,92,93
 192 304 192 304 192 256 c 0,94,95
 192 240 192 240 192 192 c 0,96,97
 192 176 192 176 192 128 c 0,98,99
 192 112 192 112 192 64 c 0,100,101
 192 48 192 48 192 0 c 1,102,103
 176 0 176 0 128 0 c 0,0,1
EndSplineSet
EndChar

StartChar: Q
Encoding: 81 81 52
Width: 576
Flags: W
LayerCount: 2
Fore
SplineSet
448 0 m 1,0,1
 448 16 448 16 448 64 c 1,2,3
 464 64 464 64 512 64 c 1,4,5
 512 48 512 48 512 0 c 1,6,7
 496 0 496 0 448 0 c 1,0,1
320 64 m 0,8,9
 336 64 336 64 384 64 c 1,10,11
 384 48 384 48 384 0 c 1,12,13
 368 0 368 0 320 0 c 0,14,15
 304 0 304 0 256 0 c 0,16,17
 240 0 240 0 192 0 c 1,18,19
 192 16 192 16 192 64 c 1,20,21
 208 64 208 64 256 64 c 0,22,23
 272 64 272 64 320 64 c 0,8,9
448 64 m 1,24,25
 432 64 432 64 384 64 c 1,26,27
 384 80 384 80 384 128 c 1,28,29
 368 128 368 128 320 128 c 1,30,31
 320 144 320 144 320 192 c 1,32,33
 336 192 336 192 384 192 c 1,34,35
 384 208 384 208 384 256 c 0,36,37
 384 272 384 272 384 320 c 0,38,39
 384 336 384 336 384 384 c 0,40,41
 384 400 384 400 384 448 c 0,42,43
 384 464 384 464 384 512 c 0,44,45
 384 528 384 528 384 576 c 0,46,47
 384 592 384 592 384 640 c 0,48,49
 384 656 384 656 384 704 c 1,50,51
 400 704 400 704 448 704 c 1,52,53
 448 688 448 688 448 640 c 0,54,55
 448 624 448 624 448 576 c 0,56,57
 448 560 448 560 448 512 c 0,58,59
 448 496 448 496 448 448 c 0,60,61
 448 432 448 432 448 384 c 0,62,63
 448 368 448 368 448 320 c 0,64,65
 448 304 448 304 448 256 c 0,66,67
 448 240 448 240 448 192 c 0,68,69
 448 176 448 176 448 128 c 0,70,71
 448 112 448 112 448 64 c 1,24,25
192 64 m 1,72,73
 176 64 176 64 128 64 c 1,74,75
 128 80 128 80 128 128 c 0,76,77
 128 144 128 144 128 192 c 0,78,79
 128 208 128 208 128 256 c 0,80,81
 128 272 128 272 128 320 c 0,82,83
 128 336 128 336 128 384 c 0,84,85
 128 400 128 400 128 448 c 0,86,87
 128 464 128 464 128 512 c 0,88,89
 128 528 128 528 128 576 c 0,90,91
 128 592 128 592 128 640 c 0,92,93
 128 656 128 656 128 704 c 1,94,95
 144 704 144 704 192 704 c 1,96,97
 192 688 192 688 192 640 c 0,98,99
 192 624 192 624 192 576 c 0,100,101
 192 560 192 560 192 512 c 0,102,103
 192 496 192 496 192 448 c 0,104,105
 192 432 192 432 192 384 c 0,106,107
 192 368 192 368 192 320 c 0,108,109
 192 304 192 304 192 256 c 0,110,111
 192 240 192 240 192 192 c 0,112,113
 192 176 192 176 192 128 c 0,114,115
 192 112 192 112 192 64 c 1,72,73
320 192 m 1,116,117
 304 192 304 192 256 192 c 1,118,119
 256 208 256 208 256 256 c 1,120,121
 272 256 272 256 320 256 c 1,122,123
 320 240 320 240 320 192 c 1,116,117
384 704 m 1,124,125
 368 704 368 704 320 704 c 0,126,127
 304 704 304 704 256 704 c 0,128,129
 240 704 240 704 192 704 c 1,130,131
 192 720 192 720 192 768 c 1,132,133
 208 768 208 768 256 768 c 0,134,135
 272 768 272 768 320 768 c 0,136,137
 336 768 336 768 384 768 c 1,138,139
 384 752 384 752 384 704 c 1,124,125
64 640 m 1,140,141
 80 640 80 640 128 640 c 1,142,143
 128 624 128 624 128 576 c 1,144,145
 112 576 112 576 64 576 c 1,146,147
 64 592 64 592 64 640 c 1,140,141
EndSplineSet
EndChar

StartChar: R
Encoding: 82 82 53
Width: 512
Flags: W
LayerCount: 2
Fore
SplineSet
384 0 m 0,0,1
 368 0 368 0 320 0 c 1,2,3
 320 16 320 16 320 64 c 1,4,5
 336 64 336 64 384 64 c 1,6,7
 384 80 384 80 384 128 c 0,8,9
 384 144 384 144 384 192 c 0,10,11
 384 208 384 208 384 256 c 0,12,13
 384 272 384 272 384 320 c 1,14,15
 400 320 400 320 448 320 c 1,16,17
 448 304 448 304 448 256 c 0,18,19
 448 240 448 240 448 192 c 0,20,21
 448 176 448 176 448 128 c 0,22,23
 448 112 448 112 448 64 c 0,24,25
 448 48 448 48 448 0 c 1,26,27
 432 0 432 0 384 0 c 0,0,1
128 0 m 0,28,29
 112 0 112 0 64 0 c 1,30,31
 64 16 64 16 64 64 c 1,32,33
 80 64 80 64 128 64 c 1,34,35
 128 80 128 80 128 128 c 0,36,37
 128 144 128 144 128 192 c 0,38,39
 128 208 128 208 128 256 c 0,40,41
 128 272 128 272 128 320 c 0,42,43
 128 336 128 336 128 384 c 0,44,45
 128 400 128 400 128 448 c 0,46,47
 128 464 128 464 128 512 c 0,48,49
 128 528 128 528 128 576 c 0,50,51
 128 592 128 592 128 640 c 1,52,53
 112 640 112 640 64 640 c 1,54,55
 64 656 64 656 64 704 c 1,56,57
 80 704 80 704 128 704 c 1,58,59
 128 720 128 720 128 768 c 1,60,61
 144 768 144 768 192 768 c 0,62,63
 208 768 208 768 256 768 c 0,64,65
 272 768 272 768 320 768 c 0,66,67
 336 768 336 768 384 768 c 1,68,69
 384 752 384 752 384 704 c 1,70,71
 400 704 400 704 448 704 c 1,72,73
 448 688 448 688 448 640 c 0,74,75
 448 624 448 624 448 576 c 0,76,77
 448 560 448 560 448 512 c 0,78,79
 448 496 448 496 448 448 c 1,80,81
 432 448 432 448 384 448 c 1,82,83
 384 464 384 464 384 512 c 0,84,85
 384 528 384 528 384 576 c 0,86,87
 384 592 384 592 384 640 c 0,88,89
 384 656 384 656 384 704 c 1,90,91
 368 704 368 704 320 704 c 0,92,93
 304 704 304 704 256 704 c 0,94,95
 240 704 240 704 192 704 c 1,96,97
 192 688 192 688 192 640 c 0,98,99
 192 624 192 624 192 576 c 0,100,101
 192 560 192 560 192 512 c 0,102,103
 192 496 192 496 192 448 c 1,104,105
 208 448 208 448 256 448 c 0,106,107
 272 448 272 448 320 448 c 0,108,109
 336 448 336 448 384 448 c 1,110,111
 384 432 384 432 384 384 c 0,112,113
 384 368 384 368 384 320 c 1,114,115
 368 320 368 320 320 320 c 1,116,117
 320 336 320 336 320 384 c 1,118,119
 304 384 304 384 256 384 c 0,120,121
 240 384 240 384 192 384 c 1,122,123
 192 368 192 368 192 320 c 0,124,125
 192 304 192 304 192 256 c 0,126,127
 192 240 192 240 192 192 c 0,128,129
 192 176 192 176 192 128 c 0,130,131
 192 112 192 112 192 64 c 0,132,133
 192 48 192 48 192 0 c 1,134,135
 176 0 176 0 128 0 c 0,28,29
EndSplineSet
EndChar

StartChar: S
Encoding: 83 83 54
Width: 448
Flags: W
LayerCount: 2
Fore
SplineSet
256 576 m 1,0,1
 256 592 256 592 256 640 c 1,2,3
 272 640 272 640 320 640 c 1,4,5
 320 624 320 624 320 576 c 1,6,7
 304 576 304 576 256 576 c 1,0,1
256 64 m 0,8,9
 272 64 272 64 320 64 c 1,10,11
 320 48 320 48 320 0 c 1,12,13
 304 0 304 0 256 0 c 0,14,15
 240 0 240 0 192 0 c 0,16,17
 176 0 176 0 128 0 c 1,18,19
 128 16 128 16 128 64 c 1,20,21
 144 64 144 64 192 64 c 0,22,23
 208 64 208 64 256 64 c 0,8,9
320 64 m 1,24,25
 320 202 320 202 320 384 c 1,26,27
 336 384 336 384 384 384 c 1,28,29
 384 316 384 316 384 64 c 1,30,31
 368 64 368 64 320 64 c 1,24,25
128 64 m 1,32,33
 112 64 112 64 64 64 c 1,34,35
 64 80 64 80 64 128 c 1,36,37
 80 128 80 128 128 128 c 1,38,39
 128 112 128 112 128 64 c 1,32,33
128 128 m 1,40,41
 128 144 128 144 128 192 c 1,42,43
 144 192 144 192 192 192 c 1,44,45
 192 176 192 176 192 128 c 1,46,47
 176 128 176 128 128 128 c 1,40,41
320 384 m 1,48,49
 304 384 304 384 256 384 c 0,50,51
 240 384 240 384 192 384 c 0,52,53
 176 384 176 384 128 384 c 1,54,55
 128 400 128 400 128 448 c 1,56,57
 144 448 144 448 192 448 c 0,58,59
 208 448 208 448 256 448 c 0,60,61
 272 448 272 448 320 448 c 1,62,63
 320 432 320 432 320 384 c 1,48,49
128 448 m 1,64,65
 112 448 112 448 64 448 c 1,66,67
 64 565 64 565 64 704 c 1,68,69
 80 704 80 704 128 704 c 1,70,71
 128 688 128 688 128 640 c 0,72,73
 128 624 128 624 128 576 c 0,74,75
 128 560 128 560 128 512 c 0,76,77
 128 496 128 496 128 448 c 1,64,65
320 640 m 1,78,79
 320 656 320 656 320 704 c 1,80,81
 336 704 336 704 384 704 c 1,82,83
 384 688 384 688 384 640 c 1,84,85
 368 640 368 640 320 640 c 1,78,79
320 704 m 1,86,87
 304 704 304 704 256 704 c 0,88,89
 240 704 240 704 192 704 c 0,90,91
 176 704 176 704 128 704 c 1,92,93
 128 720 128 720 128 768 c 1,94,95
 144 768 144 768 192 768 c 0,96,97
 208 768 208 768 256 768 c 0,98,99
 272 768 272 768 320 768 c 1,100,101
 320 752 320 752 320 704 c 1,86,87
EndSplineSet
EndChar

StartChar: T
Encoding: 84 84 55
Width: 641
Flags: W
LayerCount: 2
Fore
SplineSet
320 0 m 1,0,1
 320 16 320 16 320 64 c 0,2,3
 320 80 320 80 320 128 c 0,4,5
 320 144 320 144 320 192 c 0,6,7
 320 208 320 208 320 256 c 0,8,9
 320 272 320 272 320 320 c 0,10,11
 320 336 320 336 320 384 c 0,12,13
 320 400 320 400 320 448 c 0,14,15
 320 464 320 464 320 512 c 0,16,17
 320 528 320 528 320 576 c 0,18,19
 320 592 320 592 320 640 c 0,20,21
 320 656 320 656 320 704 c 1,22,23
 320 704 320 704 192 704 c 1,24,25
 256 768 256 768 192 704 c 1,26,27
 192 704 192 704 128 704 c 1,28,29
 128 720 128 720 128 768 c 1,30,31
 144 768 144 768 192 768 c 0,32,33
 208 768 208 768 256 768 c 0,34,35
 272 768 272 768 320 768 c 0,36,37
 336 768 336 768 384 768 c 0,38,39
 400 768 400 768 448 768 c 0,40,41
 464 768 464 768 512 768 c 0,42,43
 528 768 528 768 576 768 c 0,44,45
 592 768 592 768 640 768 c 1,46,47
 640 752 640 752 640 704 c 1,48,49
 624 704 624 704 576 704 c 1,50,51
 576 688 576 688 576 640 c 1,52,53
 560 640 560 640 512 640 c 1,54,55
 512 656 512 656 512 704 c 1,56,57
 496 704 496 704 448 704 c 0,58,59
 432 704 432 704 384 704 c 1,60,61
 384 688 384 688 384 640 c 0,62,63
 384 624 384 624 384 576 c 0,64,65
 384 560 384 560 384 512 c 0,66,67
 384 496 384 496 384 448 c 0,68,69
 384 432 384 432 384 384 c 0,70,71
 384 368 384 368 384 320 c 0,72,73
 384 304 384 304 384 256 c 0,74,75
 384 240 384 240 384 192 c 0,76,77
 384 176 384 176 384 128 c 0,78,79
 384 112 384 112 384 64 c 0,80,81
 384 48 384 48 384 0 c 1,82,83
 368 0 368 0 320 0 c 1,0,1
128 704 m 1,84,85
 144 704 144 704 192 704 c 1,86,87
 192 688 192 688 192 640 c 1,88,89
 176 640 176 640 128 640 c 1,90,91
 128 656 128 656 128 704 c 1,84,85
64 704 m 1,92,93
 80 704 80 704 128 704 c 1,94,95
 128 688 128 688 128 640 c 1,96,97
 112 640 112 640 64 640 c 1,98,99
 64 656 64 656 64 704 c 1,92,93
256 64 m 1,100,101
 272 64 272 64 320 64 c 1,102,103
 320 64 320 64 320 64 c 1,104,105
 304 64 304 64 256 64 c 1,106,107
 256 64 256 64 256 64 c 1,100,101
256 64 m 1,108,109
 272 64 272 64 320 64 c 1,110,111
 320 48 320 48 320 0 c 1,112,113
 304 0 304 0 256 0 c 1,114,115
 256 16 256 16 256 64 c 1,108,109
EndSplineSet
EndChar

StartChar: U
Encoding: 85 85 56
Width: 512
Flags: W
LayerCount: 2
Fore
SplineSet
320 64 m 0,0,1
 336 64 336 64 384 64 c 1,2,3
 384 48 384 48 384 0 c 1,4,5
 368 0 368 0 320 0 c 0,6,7
 304 0 304 0 256 0 c 0,8,9
 240 0 240 0 192 0 c 0,10,11
 176 0 176 0 128 0 c 0,12,13
 112 0 112 0 64 0 c 1,14,15
 64 16 64 16 64 64 c 1,16,17
 80 64 80 64 128 64 c 1,18,19
 128 80 128 80 128 128 c 0,20,21
 128 144 128 144 128 192 c 0,22,23
 128 208 128 208 128 256 c 0,24,25
 128 272 128 272 128 320 c 0,26,27
 128 336 128 336 128 384 c 0,28,29
 128 400 128 400 128 448 c 0,30,31
 128 464 128 464 128 512 c 0,32,33
 128 528 128 528 128 576 c 0,34,35
 128 592 128 592 128 640 c 1,36,37
 112 640 112 640 64 640 c 1,38,39
 64 656 64 656 64 704 c 1,40,41
 80 704 80 704 128 704 c 1,42,43
 128 720 128 720 128 768 c 1,44,45
 144 768 144 768 192 768 c 1,46,47
 192 752 192 752 192 704 c 0,48,49
 192 688 192 688 192 640 c 0,50,51
 192 624 192 624 192 576 c 0,52,53
 192 560 192 560 192 512 c 0,54,55
 192 496 192 496 192 448 c 0,56,57
 192 432 192 432 192 384 c 0,58,59
 192 368 192 368 192 320 c 0,60,61
 192 304 192 304 192 256 c 0,62,63
 192 240 192 240 192 192 c 0,64,65
 192 176 192 176 192 128 c 0,66,67
 192 112 192 112 192 64 c 1,68,69
 208 64 208 64 256 64 c 0,70,71
 272 64 272 64 320 64 c 0,0,1
384 64 m 1,72,73
 384 80 384 80 384 128 c 0,74,75
 384 144 384 144 384 192 c 0,76,77
 384 208 384 208 384 256 c 0,78,79
 384 272 384 272 384 320 c 0,80,81
 384 336 384 336 384 384 c 0,82,83
 384 400 384 400 384 448 c 0,84,85
 384 464 384 464 384 512 c 0,86,87
 384 528 384 528 384 576 c 0,88,89
 384 592 384 592 384 640 c 1,90,91
 368 640 368 640 320 640 c 1,92,93
 320 656 320 656 320 704 c 1,94,95
 336 704 336 704 384 704 c 1,96,97
 384 720 384 720 384 768 c 1,98,99
 400 768 400 768 448 768 c 1,100,101
 448 752 448 752 448 704 c 0,102,103
 448 688 448 688 448 640 c 0,104,105
 448 624 448 624 448 576 c 0,106,107
 448 560 448 560 448 512 c 0,108,109
 448 496 448 496 448 448 c 0,110,111
 448 432 448 432 448 384 c 0,112,113
 448 368 448 368 448 320 c 0,114,115
 448 304 448 304 448 256 c 0,116,117
 448 240 448 240 448 192 c 0,118,119
 448 176 448 176 448 128 c 0,120,121
 448 112 448 112 448 64 c 1,122,123
 432 64 432 64 384 64 c 1,72,73
EndSplineSet
EndChar

StartChar: V
Encoding: 86 86 57
Width: 512
Flags: W
LayerCount: 2
Fore
SplineSet
256 0 m 1,0,1
 256 16 256 16 256 64 c 1,2,3
 272 64 272 64 320 64 c 1,4,5
 320 48 320 48 320 0 c 1,6,7
 304 0 304 0 256 0 c 1,0,1
320 64 m 1,8,9
 320 80 320 80 320 128 c 0,10,11
 320 144 320 144 320 192 c 1,12,13
 336 192 336 192 384 192 c 1,14,15
 384 176 384 176 384 128 c 0,16,17
 384 112 384 112 384 64 c 1,18,19
 368 64 368 64 320 64 c 1,8,9
256 64 m 1,20,21
 240 64 240 64 192 64 c 1,22,23
 192 80 192 80 192 128 c 0,24,25
 192 144 192 144 192 192 c 1,26,27
 208 192 208 192 256 192 c 1,28,29
 256 176 256 176 256 128 c 0,30,31
 256 112 256 112 256 64 c 1,20,21
384 192 m 1,32,33
 384 208 384 208 384 256 c 0,34,35
 384 272 384 272 384 320 c 0,36,37
 384 336 384 336 384 384 c 0,38,39
 384 400 384 400 384 448 c 0,40,41
 384 464 384 464 384 512 c 0,42,43
 384 528 384 528 384 576 c 0,44,45
 384 592 384 592 384 640 c 1,46,47
 368 640 368 640 320 640 c 1,48,49
 320 656 320 656 320 704 c 1,50,51
 336 704 336 704 384 704 c 1,52,53
 384 720 384 720 384 768 c 1,54,55
 400 768 400 768 448 768 c 1,56,57
 448 752 448 752 448 704 c 0,58,59
 448 688 448 688 448 640 c 0,60,61
 448 624 448 624 448 576 c 0,62,63
 448 560 448 560 448 512 c 0,64,65
 448 496 448 496 448 448 c 0,66,67
 448 432 448 432 448 384 c 0,68,69
 448 368 448 368 448 320 c 0,70,71
 448 304 448 304 448 256 c 0,72,73
 448 240 448 240 448 192 c 1,74,75
 432 192 432 192 384 192 c 1,32,33
192 192 m 1,76,77
 176 192 176 192 128 192 c 1,78,79
 128 208 128 208 128 256 c 0,80,81
 128 272 128 272 128 320 c 0,82,83
 128 336 128 336 128 384 c 0,84,85
 128 400 128 400 128 448 c 0,86,87
 128 464 128 464 128 512 c 0,88,89
 128 528 128 528 128 576 c 0,90,91
 128 592 128 592 128 640 c 1,92,93
 112 640 112 640 64 640 c 1,94,95
 64 656 64 656 64 704 c 1,96,97
 80 704 80 704 128 704 c 1,98,99
 128 720 128 720 128 768 c 1,100,101
 144 768 144 768 192 768 c 1,102,103
 192 752 192 752 192 704 c 0,104,105
 192 688 192 688 192 640 c 0,106,107
 192 624 192 624 192 576 c 0,108,109
 192 560 192 560 192 512 c 0,110,111
 192 496 192 496 192 448 c 0,112,113
 192 432 192 432 192 384 c 0,114,115
 192 368 192 368 192 320 c 0,116,117
 192 304 192 304 192 256 c 0,118,119
 192 240 192 240 192 192 c 1,76,77
EndSplineSet
EndChar

StartChar: W
Encoding: 87 87 58
Width: 640
Flags: W
LayerCount: 2
Fore
SplineSet
512 0 m 0,0,1
 496 0 496 0 448 0 c 1,2,3
 448 16 448 16 448 64 c 1,4,5
 464 64 464 64 512 64 c 1,6,7
 512 80 512 80 512 128 c 0,8,9
 512 144 512 144 512 192 c 0,10,11
 512 208 512 208 512 256 c 0,12,13
 512 272 512 272 512 320 c 0,14,15
 512 336 512 336 512 384 c 0,16,17
 512 400 512 400 512 448 c 0,18,19
 512 464 512 464 512 512 c 0,20,21
 512 528 512 528 512 576 c 0,22,23
 512 592 512 592 512 640 c 1,24,25
 496 640 496 640 448 640 c 1,26,27
 448 656 448 656 448 704 c 1,28,29
 464 704 464 704 512 704 c 1,30,31
 512 720 512 720 512 768 c 1,32,33
 528 768 528 768 576 768 c 1,34,35
 576 752 576 752 576 704 c 0,36,37
 576 688 576 688 576 640 c 0,38,39
 576 624 576 624 576 576 c 0,40,41
 576 560 576 560 576 512 c 0,42,43
 576 496 576 496 576 448 c 0,44,45
 576 432 576 432 576 384 c 0,46,47
 576 368 576 368 576 320 c 0,48,49
 576 304 576 304 576 256 c 0,50,51
 576 240 576 240 576 192 c 0,52,53
 576 176 576 176 576 128 c 0,54,55
 576 112 576 112 576 64 c 0,56,57
 576 48 576 48 576 0 c 1,58,59
 560 0 560 0 512 0 c 0,0,1
192 0 m 0,60,61
 176 0 176 0 128 0 c 0,62,63
 112 0 112 0 64 0 c 1,64,65
 64 16 64 16 64 64 c 1,66,67
 80 64 80 64 128 64 c 1,68,69
 128 80 128 80 128 128 c 0,70,71
 128 144 128 144 128 192 c 0,72,73
 128 208 128 208 128 256 c 0,74,75
 128 272 128 272 128 320 c 0,76,77
 128 336 128 336 128 384 c 0,78,79
 128 400 128 400 128 448 c 0,80,81
 128 464 128 464 128 512 c 0,82,83
 128 528 128 528 128 576 c 0,84,85
 128 592 128 592 128 640 c 1,86,87
 112 640 112 640 64 640 c 1,88,89
 64 656 64 656 64 704 c 1,90,91
 80 704 80 704 128 704 c 1,92,93
 128 720 128 720 128 768 c 1,94,95
 144 768 144 768 192 768 c 1,96,97
 192 752 192 752 192 704 c 0,98,99
 192 688 192 688 192 640 c 0,100,101
 192 624 192 624 192 576 c 0,102,103
 192 560 192 560 192 512 c 0,104,105
 192 496 192 496 192 448 c 0,106,107
 192 432 192 432 192 384 c 0,108,109
 192 368 192 368 192 320 c 0,110,111
 192 304 192 304 192 256 c 0,112,113
 192 240 192 240 192 192 c 0,114,115
 192 176 192 176 192 128 c 0,116,117
 192 112 192 112 192 64 c 1,118,119
 208 64 208 64 256 64 c 1,120,121
 256 48 256 48 256 0 c 1,122,123
 240 0 240 0 192 0 c 0,60,61
448 64 m 1,124,125
 432 64 432 64 384 64 c 1,126,127
 384 80 384 80 384 128 c 0,128,129
 384 144 384 144 384 192 c 1,130,131
 400 192 400 192 448 192 c 1,132,133
 448 176 448 176 448 128 c 0,134,135
 448 112 448 112 448 64 c 1,124,125
256 64 m 1,136,137
 256 80 256 80 256 128 c 0,138,139
 256 144 256 144 256 192 c 1,140,141
 272 192 272 192 320 192 c 1,142,143
 320 176 320 176 320 128 c 0,144,145
 320 112 320 112 320 64 c 1,146,147
 304 64 304 64 256 64 c 1,136,137
384 192 m 1,148,149
 368 192 368 192 320 192 c 1,150,151
 320 208 320 208 320 256 c 0,152,153
 320 272 320 272 320 320 c 0,154,155
 320 336 320 336 320 384 c 0,156,157
 320 400 320 400 320 448 c 0,158,159
 320 464 320 464 320 512 c 1,160,161
 304 512 304 512 256 512 c 1,162,163
 256 528 256 528 256 576 c 1,164,165
 272 576 272 576 320 576 c 1,166,167
 320 592 320 592 320 640 c 1,168,169
 336 640 336 640 384 640 c 1,170,171
 384 624 384 624 384 576 c 0,172,173
 384 560 384 560 384 512 c 0,174,175
 384 496 384 496 384 448 c 0,176,177
 384 432 384 432 384 384 c 0,178,179
 384 368 384 368 384 320 c 0,180,181
 384 304 384 304 384 256 c 0,182,183
 384 240 384 240 384 192 c 1,148,149
EndSplineSet
EndChar

StartChar: X
Encoding: 88 88 59
Width: 512
Flags: W
LayerCount: 2
Fore
SplineSet
384 0 m 0,0,1
 368 0 368 0 320 0 c 1,2,3
 320 16 320 16 320 64 c 1,4,5
 336 64 336 64 384 64 c 1,6,7
 384 80 384 80 384 128 c 0,8,9
 384 144 384 144 384 192 c 1,10,11
 400 192 400 192 448 192 c 1,12,13
 448 176 448 176 448 128 c 0,14,15
 448 112 448 112 448 64 c 0,16,17
 448 48 448 48 448 0 c 1,18,19
 432 0 432 0 384 0 c 0,0,1
128 0 m 0,20,21
 112 0 112 0 64 0 c 1,22,23
 64 16 64 16 64 64 c 1,24,25
 80 64 80 64 128 64 c 1,26,27
 128 80 128 80 128 128 c 0,28,29
 128 144 128 144 128 192 c 1,30,31
 144 192 144 192 192 192 c 1,32,33
 192 176 192 176 192 128 c 0,34,35
 192 112 192 112 192 64 c 0,36,37
 192 48 192 48 192 0 c 1,38,39
 176 0 176 0 128 0 c 0,20,21
384 192 m 1,40,41
 368 192 368 192 320 192 c 1,42,43
 320 208 320 208 320 256 c 0,44,45
 320 272 320 272 320 320 c 1,46,47
 336 320 336 320 384 320 c 1,48,49
 384 304 384 304 384 256 c 0,50,51
 384 240 384 240 384 192 c 1,40,41
192 192 m 1,52,53
 192 208 192 208 192 256 c 0,54,55
 192 272 192 272 192 320 c 1,56,57
 208 320 208 320 256 320 c 1,58,59
 256 304 256 304 256 256 c 0,60,61
 256 240 256 240 256 192 c 1,62,63
 240 192 240 192 192 192 c 1,52,53
320 320 m 1,64,65
 304 320 304 320 256 320 c 1,66,67
 256 336 256 336 256 384 c 0,68,69
 256 400 256 400 256 448 c 1,70,71
 272 448 272 448 320 448 c 1,72,73
 320 432 320 432 320 384 c 0,74,75
 320 368 320 368 320 320 c 1,64,65
320 448 m 1,76,77
 320 464 320 464 320 512 c 0,78,79
 320 528 320 528 320 576 c 1,80,81
 336 576 336 576 384 576 c 1,82,83
 384 560 384 560 384 512 c 0,84,85
 384 496 384 496 384 448 c 1,86,87
 368 448 368 448 320 448 c 1,76,77
256 448 m 1,88,89
 240 448 240 448 192 448 c 1,90,91
 192 464 192 464 192 512 c 0,92,93
 192 528 192 528 192 576 c 1,94,95
 208 576 208 576 256 576 c 1,96,97
 256 560 256 560 256 512 c 0,98,99
 256 496 256 496 256 448 c 1,88,89
384 576 m 1,100,101
 384 592 384 592 384 640 c 1,102,103
 368 640 368 640 320 640 c 1,104,105
 320 656 320 656 320 704 c 1,106,107
 336 704 336 704 384 704 c 1,108,109
 384 720 384 720 384 768 c 1,110,111
 400 768 400 768 448 768 c 1,112,113
 448 752 448 752 448 704 c 0,114,115
 448 688 448 688 448 640 c 0,116,117
 448 624 448 624 448 576 c 1,118,119
 432 576 432 576 384 576 c 1,100,101
192 576 m 1,120,121
 176 576 176 576 128 576 c 1,122,123
 128 592 128 592 128 640 c 1,124,125
 112 640 112 640 64 640 c 1,126,127
 64 656 64 656 64 704 c 1,128,129
 80 704 80 704 128 704 c 1,130,131
 128 720 128 720 128 768 c 1,132,133
 144 768 144 768 192 768 c 1,134,135
 192 752 192 752 192 704 c 0,136,137
 192 688 192 688 192 640 c 0,138,139
 192 624 192 624 192 576 c 1,120,121
EndSplineSet
EndChar

StartChar: Y
Encoding: 89 89 60
Width: 512
Flags: W
LayerCount: 2
Fore
SplineSet
320 64 m 0,0,1
 336 64 336 64 384 64 c 1,2,3
 384 48 384 48 384 0 c 1,4,5
 368 0 368 0 320 0 c 0,6,7
 304 0 304 0 256 0 c 0,8,9
 240 0 240 0 192 0 c 1,10,11
 192 16 192 16 192 64 c 1,12,13
 208 64 208 64 256 64 c 0,14,15
 272 64 272 64 320 64 c 0,0,1
384 64 m 1,16,17
 384 80 384 80 384 128 c 0,18,19
 384 144 384 144 384 192 c 0,20,21
 384 208 384 208 384 256 c 0,22,23
 384 272 384 272 384 320 c 0,24,25
 384 336 384 336 384 384 c 1,26,27
 368 384 368 384 320 384 c 0,28,29
 304 384 304 384 256 384 c 0,30,31
 240 384 240 384 192 384 c 1,32,33
 192 400 192 400 192 448 c 1,34,35
 208 448 208 448 256 448 c 0,36,37
 272 448 272 448 320 448 c 0,38,39
 336 448 336 448 384 448 c 1,40,41
 384 464 384 464 384 512 c 0,42,43
 384 528 384 528 384 576 c 0,44,45
 384 592 384 592 384 640 c 1,46,47
 368 640 368 640 320 640 c 1,48,49
 320 656 320 656 320 704 c 1,50,51
 336 704 336 704 384 704 c 1,52,53
 384 720 384 720 384 768 c 1,54,55
 400 768 400 768 448 768 c 1,56,57
 448 752 448 752 448 704 c 0,58,59
 448 688 448 688 448 640 c 0,60,61
 448 624 448 624 448 576 c 0,62,63
 448 560 448 560 448 512 c 0,64,65
 448 496 448 496 448 448 c 0,66,67
 448 432 448 432 448 384 c 0,68,69
 448 368 448 368 448 320 c 0,70,71
 448 304 448 304 448 256 c 0,72,73
 448 240 448 240 448 192 c 0,74,75
 448 176 448 176 448 128 c 0,76,77
 448 112 448 112 448 64 c 1,78,79
 432 64 432 64 384 64 c 1,16,17
192 64 m 1,80,81
 176 64 176 64 128 64 c 1,82,83
 128 80 128 80 128 128 c 1,84,85
 144 128 144 128 192 128 c 1,86,87
 192 112 192 112 192 64 c 1,80,81
192 448 m 1,88,89
 176 448 176 448 128 448 c 1,90,91
 128 464 128 464 128 512 c 0,92,93
 128 528 128 528 128 576 c 0,94,95
 128 592 128 592 128 640 c 1,96,97
 112 640 112 640 64 640 c 1,98,99
 64 656 64 656 64 704 c 1,100,101
 80 704 80 704 128 704 c 1,102,103
 128 720 128 720 128 768 c 1,104,105
 144 768 144 768 192 768 c 1,106,107
 192 752 192 752 192 704 c 0,108,109
 192 688 192 688 192 640 c 0,110,111
 192 624 192 624 192 576 c 0,112,113
 192 560 192 560 192 512 c 0,114,115
 192 496 192 496 192 448 c 1,88,89
EndSplineSet
EndChar

StartChar: Z
Encoding: 90 90 61
Width: 448
Flags: W
LayerCount: 2
Fore
SplineSet
64 640 m 1,0,1
 64 656 64 656 64 704 c 1,2,3
 80 704 80 704 128 704 c 1,4,5
 128 688 128 688 128 640 c 1,6,7
 112 640 112 640 64 640 c 1,0,1
320 64 m 0,8,9
 336 64 336 64 384 64 c 1,10,11
 384 48 384 48 384 0 c 1,12,13
 368 0 368 0 320 0 c 0,14,15
 304 0 304 0 256 0 c 0,16,17
 240 0 240 0 192 0 c 0,18,19
 176 0 176 0 128 0 c 0,20,21
 112 0 112 0 64 0 c 1,22,23
 64 16 64 16 64 64 c 1,24,25
 80 64 80 64 128 64 c 1,26,27
 128 80 128 80 128 128 c 0,28,29
 128 144 128 144 128 192 c 1,30,31
 144 192 144 192 192 192 c 1,32,33
 192 176 192 176 192 128 c 0,34,35
 192 112 192 112 192 64 c 1,36,37
 208 64 208 64 256 64 c 0,38,39
 272 64 272 64 320 64 c 0,8,9
192 192 m 1,40,41
 192 208 192 208 192 256 c 0,42,43
 192 272 192 272 192 320 c 0,44,45
 192 336 192 336 192 384 c 1,46,47
 208 384 208 384 256 384 c 1,48,49
 256 368 256 368 256 320 c 0,50,51
 256 304 256 304 256 256 c 0,52,53
 256 240 256 240 256 192 c 1,54,55
 240 192 240 192 192 192 c 1,40,41
256 384 m 1,56,57
 256 400 256 400 256 448 c 0,58,59
 256 464 256 464 256 512 c 0,60,61
 256 528 256 528 256 576 c 1,62,63
 272 576 272 576 320 576 c 1,64,65
 320 560 320 560 320 512 c 0,66,67
 320 496 320 496 320 448 c 0,68,69
 320 432 320 432 320 384 c 1,70,71
 304 384 304 384 256 384 c 1,56,57
320 576 m 1,72,73
 320 592 320 592 320 640 c 0,74,75
 320 656 320 656 320 704 c 1,76,77
 304 704 304 704 256 704 c 0,78,79
 240 704 240 704 192 704 c 0,80,81
 176 704 176 704 128 704 c 1,82,83
 128 720 128 720 128 768 c 1,84,85
 144 768 144 768 192 768 c 0,86,87
 208 768 208 768 256 768 c 0,88,89
 272 768 272 768 320 768 c 0,90,91
 336 768 336 768 384 768 c 1,92,93
 384 752 384 752 384 704 c 0,94,95
 384 688 384 688 384 640 c 0,96,97
 384 624 384 624 384 576 c 1,98,99
 368 576 368 576 320 576 c 1,72,73
EndSplineSet
EndChar

StartChar: bracketleft
Encoding: 91 91 62
Width: 384
Flags: W
LayerCount: 2
Fore
SplineSet
256 640 m 1,0,1
 256 656 256 656 256 704 c 1,2,3
 240 704 240 704 192 704 c 1,4,5
 192 688 192 688 192 640 c 0,6,7
 192 624 192 624 192 576 c 0,8,9
 192 560 192 560 192 512 c 0,10,11
 192 496 192 496 192 448 c 0,12,13
 192 432 192 432 192 384 c 0,14,15
 192 368 192 368 192 320 c 0,16,17
 192 304 192 304 192 256 c 0,18,19
 192 240 192 240 192 192 c 0,20,21
 192 176 192 176 192 128 c 0,22,23
 192 112 192 112 192 64 c 0,24,25
 192 48 192 48 192 0 c 0,26,27
 192 -16 192 -16 192 -64 c 1,28,29
 208 -64 208 -64 256 -64 c 1,30,31
 256 -48 256 -48 256 0 c 1,32,33
 272 0 272 0 320 0 c 1,34,35
 320 -16 320 -16 320 -64 c 0,36,37
 320 -80 320 -80 320 -128 c 1,38,39
 304 -128 304 -128 256 -128 c 0,40,41
 240 -128 240 -128 192 -128 c 0,42,43
 176 -128 176 -128 128 -128 c 1,44,45
 128 -112 128 -112 128 -64 c 0,46,47
 128 -48 128 -48 128 0 c 0,48,49
 128 16 128 16 128 64 c 0,50,51
 128 80 128 80 128 128 c 0,52,53
 128 144 128 144 128 192 c 0,54,55
 128 208 128 208 128 256 c 0,56,57
 128 272 128 272 128 320 c 0,58,59
 128 336 128 336 128 384 c 0,60,61
 128 400 128 400 128 448 c 0,62,63
 128 464 128 464 128 512 c 0,64,65
 128 528 128 528 128 576 c 0,66,67
 128 592 128 592 128 640 c 1,68,69
 112 640 112 640 64 640 c 1,70,71
 64 656 64 656 64 704 c 1,72,73
 80 704 80 704 128 704 c 1,74,75
 128 720 128 720 128 768 c 1,76,77
 144 768 144 768 192 768 c 0,78,79
 208 768 208 768 256 768 c 0,80,81
 272 768 272 768 320 768 c 1,82,83
 320 752 320 752 320 704 c 0,84,85
 320 688 320 688 320 640 c 1,86,87
 304 640 304 640 256 640 c 1,0,1
EndSplineSet
EndChar

StartChar: backslash
Encoding: 92 92 63
Width: 576
Flags: W
LayerCount: 2
Fore
SplineSet
448 0 m 1,0,1
 448 16 448 16 448 64 c 0,2,3
 448 80 448 80 448 128 c 1,4,5
 464 128 464 128 512 128 c 1,6,7
 512 112 512 112 512 64 c 0,8,9
 512 48 512 48 512 0 c 1,10,11
 496 0 496 0 448 0 c 1,0,1
448 128 m 1,12,13
 432 128 432 128 384 128 c 1,14,15
 384 144 384 144 384 192 c 0,16,17
 384 208 384 208 384 256 c 1,18,19
 400 256 400 256 448 256 c 1,20,21
 448 240 448 240 448 192 c 0,22,23
 448 176 448 176 448 128 c 1,12,13
384 256 m 1,24,25
 368 256 368 256 320 256 c 1,26,27
 320 272 320 272 320 320 c 0,28,29
 320 336 320 336 320 384 c 1,30,31
 336 384 336 384 384 384 c 1,32,33
 384 368 384 368 384 320 c 0,34,35
 384 304 384 304 384 256 c 1,24,25
320 384 m 1,36,37
 304 384 304 384 256 384 c 1,38,39
 256 400 256 400 256 448 c 0,40,41
 256 464 256 464 256 512 c 1,42,43
 272 512 272 512 320 512 c 1,44,45
 320 496 320 496 320 448 c 0,46,47
 320 432 320 432 320 384 c 1,36,37
256 512 m 1,48,49
 240 512 240 512 192 512 c 1,50,51
 192 528 192 528 192 576 c 0,52,53
 192 592 192 592 192 640 c 1,54,55
 208 640 208 640 256 640 c 1,56,57
 256 624 256 624 256 576 c 0,58,59
 256 560 256 560 256 512 c 1,48,49
192 640 m 1,60,61
 176 640 176 640 128 640 c 1,62,63
 128 656 128 656 128 704 c 0,64,65
 128 720 128 720 128 768 c 1,66,67
 144 768 144 768 192 768 c 1,68,69
 192 752 192 752 192 704 c 0,70,71
 192 688 192 688 192 640 c 1,60,61
EndSplineSet
EndChar

StartChar: bracketright
Encoding: 93 93 64
Width: 320
Flags: W
LayerCount: 2
Fore
SplineSet
64 640 m 1,0,1
 64 656 64 656 64 704 c 0,2,3
 64 720 64 720 64 768 c 1,4,5
 80 768 80 768 128 768 c 0,6,7
 144 768 144 768 192 768 c 0,8,9
 208 768 208 768 256 768 c 1,10,11
 256 752 256 752 256 704 c 0,12,13
 256 688 256 688 256 640 c 0,14,15
 256 624 256 624 256 576 c 0,16,17
 256 560 256 560 256 512 c 0,18,19
 256 496 256 496 256 448 c 0,20,21
 256 432 256 432 256 384 c 0,22,23
 256 368 256 368 256 320 c 0,24,25
 256 304 256 304 256 256 c 0,26,27
 256 240 256 240 256 192 c 0,28,29
 256 176 256 176 256 128 c 0,30,31
 256 112 256 112 256 64 c 0,32,33
 256 48 256 48 256 0 c 0,34,35
 256 -16 256 -16 256 -64 c 0,36,37
 256 -80 256 -80 256 -128 c 1,38,39
 240 -128 240 -128 192 -128 c 0,40,41
 176 -128 176 -128 128 -128 c 0,42,43
 112 -128 112 -128 64 -128 c 1,44,45
 64 -112 64 -112 64 -64 c 0,46,47
 64 -48 64 -48 64 0 c 1,48,49
 80 0 80 0 128 0 c 1,50,51
 128 -16 128 -16 128 -64 c 1,52,53
 144 -64 144 -64 192 -64 c 1,54,55
 192 -48 192 -48 192 0 c 0,56,57
 192 16 192 16 192 64 c 0,58,59
 192 80 192 80 192 128 c 0,60,61
 192 144 192 144 192 192 c 0,62,63
 192 208 192 208 192 256 c 0,64,65
 192 272 192 272 192 320 c 0,66,67
 192 336 192 336 192 384 c 0,68,69
 192 400 192 400 192 448 c 0,70,71
 192 464 192 464 192 512 c 0,72,73
 192 528 192 528 192 576 c 0,74,75
 192 592 192 592 192 640 c 0,76,77
 192 656 192 656 192 704 c 1,78,79
 176 704 176 704 128 704 c 1,80,81
 128 688 128 688 128 640 c 1,82,83
 112 640 112 640 64 640 c 1,0,1
EndSplineSet
EndChar

StartChar: asciicircum
Encoding: 94 94 65
Width: 448
Flags: W
LayerCount: 2
Fore
SplineSet
320 512 m 1,0,1
 320 528 320 528 320 576 c 1,2,3
 336 576 336 576 384 576 c 1,4,5
 384 560 384 560 384 512 c 1,6,7
 368 512 368 512 320 512 c 1,0,1
64 512 m 1,8,9
 64 528 64 528 64 576 c 1,10,11
 80 576 80 576 128 576 c 1,12,13
 128 560 128 560 128 512 c 1,14,15
 112 512 112 512 64 512 c 1,8,9
320 576 m 1,16,17
 304 576 304 576 256 576 c 1,18,19
 256 592 256 592 256 640 c 1,20,21
 272 640 272 640 320 640 c 1,22,23
 320 624 320 624 320 576 c 1,16,17
128 576 m 1,24,25
 128 592 128 592 128 640 c 1,26,27
 144 640 144 640 192 640 c 1,28,29
 192 624 192 624 192 576 c 1,30,31
 176 576 176 576 128 576 c 1,24,25
256 640 m 1,32,33
 240 640 240 640 192 640 c 1,34,35
 192 656 192 656 192 704 c 1,36,37
 208 704 208 704 256 704 c 1,38,39
 256 688 256 688 256 640 c 1,32,33
EndSplineSet
EndChar

StartChar: underscore
Encoding: 95 95 66
Width: 512
Flags: W
LayerCount: 2
Fore
SplineSet
384 64 m 0,0,1
 400 64 400 64 448 64 c 1,2,3
 448 48 448 48 448 0 c 1,4,5
 432 0 432 0 384 0 c 0,6,7
 368 0 368 0 320 0 c 0,8,9
 304 0 304 0 256 0 c 0,10,11
 240 0 240 0 192 0 c 0,12,13
 176 0 176 0 128 0 c 1,14,15
 128 16 128 16 128 64 c 1,16,17
 144 64 144 64 192 64 c 0,18,19
 208 64 208 64 256 64 c 0,20,21
 272 64 272 64 320 64 c 0,22,23
 336 64 336 64 384 64 c 0,0,1
EndSplineSet
EndChar

StartChar: grave
Encoding: 96 96 67
Width: 320
Flags: W
LayerCount: 2
Fore
SplineSet
192 512 m 1,0,1
 192 528 192 528 192 576 c 1,2,3
 208 576 208 576 256 576 c 1,4,5
 256 560 256 560 256 512 c 1,6,7
 240 512 240 512 192 512 c 1,0,1
192 576 m 1,8,9
 176 576 176 576 128 576 c 1,10,11
 128 592 128 592 128 640 c 0,12,13
 128 656 128 656 128 704 c 1,14,15
 144 704 144 704 192 704 c 1,16,17
 192 688 192 688 192 640 c 0,18,19
 192 624 192 624 192 576 c 1,8,9
EndSplineSet
EndChar

StartChar: a
Encoding: 97 97 68
Width: 512
Flags: W
LayerCount: 2
Fore
SplineSet
384 0 m 1,0,1
 384 16 384 16 384 64 c 1,2,3
 368 64 368 64 320 64 c 1,4,5
 320 80 320 80 320 128 c 1,6,7
 336 128 336 128 384 128 c 1,8,9
 384 144 384 144 384 192 c 1,10,11
 368 192 368 192 320 192 c 0,12,13
 304 192 304 192 256 192 c 0,14,15
 240 192 240 192 192 192 c 1,16,17
 192 176 192 176 192 128 c 0,18,19
 192 112 192 112 192 64 c 1,20,21
 208 64 208 64 256 64 c 0,22,23
 272 64 272 64 320 64 c 1,24,25
 320 48 320 48 320 0 c 1,26,27
 304 0 304 0 256 0 c 0,28,29
 240 0 240 0 192 0 c 1,30,31
 192 16 192 16 192 64 c 1,32,33
 176 64 176 64 128 64 c 1,34,35
 128 80 128 80 128 128 c 0,36,37
 128 144 128 144 128 192 c 1,38,39
 144 192 144 192 192 192 c 1,40,41
 192 208 192 208 192 256 c 1,42,43
 208 256 208 256 256 256 c 0,44,45
 272 256 272 256 320 256 c 0,46,47
 336 256 336 256 384 256 c 1,48,49
 384 272 384 272 384 320 c 0,50,51
 384 336 384 336 384 384 c 1,52,53
 400 384 400 384 448 384 c 1,54,55
 448 368 448 368 448 320 c 0,56,57
 448 304 448 304 448 256 c 0,58,59
 448 240 448 240 448 192 c 0,60,61
 448 176 448 176 448 128 c 0,62,63
 448 112 448 112 448 64 c 0,64,65
 448 48 448 48 448 0 c 1,66,67
 432 0 432 0 384 0 c 1,0,1
128 320 m 1,68,69
 128 336 128 336 128 384 c 1,70,71
 144 384 144 384 192 384 c 1,72,73
 192 368 192 368 192 320 c 1,74,75
 176 320 176 320 128 320 c 1,68,69
384 384 m 1,76,77
 368 384 368 384 320 384 c 0,78,79
 304 384 304 384 256 384 c 0,80,81
 240 384 240 384 192 384 c 1,82,83
 192 400 192 400 192 448 c 1,84,85
 208 448 208 448 256 448 c 0,86,87
 272 448 272 448 320 448 c 0,88,89
 336 448 336 448 384 448 c 1,90,91
 384 432 384 432 384 384 c 1,76,77
EndSplineSet
EndChar

StartChar: b
Encoding: 98 98 69
Width: 512
Flags: W
LayerCount: 2
Fore
SplineSet
320 64 m 0,0,1
 336 64 336 64 384 64 c 1,2,3
 384 80 384 80 384 128 c 0,4,5
 384 144 384 144 384 192 c 0,6,7
 384 208 384 208 384 256 c 0,8,9
 384 272 384 272 384 320 c 0,10,11
 384 336 384 336 384 384 c 1,12,13
 368 384 368 384 320 384 c 0,14,15
 304 384 304 384 256 384 c 0,16,17
 240 384 240 384 192 384 c 1,18,19
 192 368 192 368 192 320 c 0,20,21
 192 304 192 304 192 256 c 0,22,23
 192 240 192 240 192 192 c 0,24,25
 192 176 192 176 192 128 c 0,26,27
 192 112 192 112 192 64 c 1,28,29
 208 64 208 64 256 64 c 0,30,31
 272 64 272 64 320 64 c 0,0,1
320 0 m 0,32,33
 304 0 304 0 256 0 c 0,34,35
 240 0 240 0 192 0 c 0,36,37
 176 0 176 0 128 0 c 0,38,39
 112 0 112 0 64 0 c 1,40,41
 64 16 64 16 64 64 c 1,42,43
 80 64 80 64 128 64 c 1,44,45
 128 80 128 80 128 128 c 0,46,47
 128 144 128 144 128 192 c 0,48,49
 128 208 128 208 128 256 c 0,50,51
 128 272 128 272 128 320 c 0,52,53
 128 336 128 336 128 384 c 0,54,55
 128 400 128 400 128 448 c 0,56,57
 128 464 128 464 128 512 c 0,58,59
 128 528 128 528 128 576 c 0,60,61
 128 592 128 592 128 640 c 1,62,63
 112 640 112 640 64 640 c 1,64,65
 64 656 64 656 64 704 c 1,66,67
 80 704 80 704 128 704 c 1,68,69
 128 720 128 720 128 768 c 1,70,71
 144 768 144 768 192 768 c 1,72,73
 192 752 192 752 192 704 c 0,74,75
 192 688 192 688 192 640 c 0,76,77
 192 624 192 624 192 576 c 0,78,79
 192 560 192 560 192 512 c 0,80,81
 192 496 192 496 192 448 c 1,82,83
 208 448 208 448 256 448 c 0,84,85
 272 448 272 448 320 448 c 0,86,87
 336 448 336 448 384 448 c 1,88,89
 384 432 384 432 384 384 c 1,90,91
 400 384 400 384 448 384 c 1,92,93
 448 368 448 368 448 320 c 0,94,95
 448 304 448 304 448 256 c 0,96,97
 448 240 448 240 448 192 c 0,98,99
 448 176 448 176 448 128 c 0,100,101
 448 112 448 112 448 64 c 1,102,103
 432 64 432 64 384 64 c 1,104,105
 384 48 384 48 384 0 c 1,106,107
 368 0 368 0 320 0 c 0,32,33
EndSplineSet
EndChar

StartChar: c
Encoding: 99 99 70
Width: 512
Flags: W
LayerCount: 2
Fore
SplineSet
384 320 m 1,0,1
 384 336 384 336 384 384 c 1,2,3
 400 384 400 384 448 384 c 1,4,5
 448 368 448 368 448 320 c 1,6,7
 432 320 432 320 384 320 c 1,0,1
320 64 m 0,8,9
 336 64 336 64 384 64 c 1,10,11
 384 48 384 48 384 0 c 1,12,13
 368 0 368 0 320 0 c 0,14,15
 304 0 304 0 256 0 c 0,16,17
 240 0 240 0 192 0 c 1,18,19
 192 16 192 16 192 64 c 1,20,21
 208 64 208 64 256 64 c 0,22,23
 272 64 272 64 320 64 c 0,8,9
384 64 m 1,24,25
 384 80 384 80 384 128 c 1,26,27
 400 128 400 128 448 128 c 1,28,29
 448 112 448 112 448 64 c 1,30,31
 432 64 432 64 384 64 c 1,24,25
192 64 m 1,32,33
 176 64 176 64 128 64 c 1,34,35
 128 80 128 80 128 128 c 0,36,37
 128 144 128 144 128 192 c 0,38,39
 128 208 128 208 128 256 c 1,40,41
 112 256 112 256 64 256 c 1,42,43
 64 272 64 272 64 320 c 1,44,45
 80 320 80 320 128 320 c 1,46,47
 128 336 128 336 128 384 c 1,48,49
 144 384 144 384 192 384 c 1,50,51
 192 368 192 368 192 320 c 0,52,53
 192 304 192 304 192 256 c 0,54,55
 192 240 192 240 192 192 c 0,56,57
 192 176 192 176 192 128 c 0,58,59
 192 112 192 112 192 64 c 1,32,33
384 384 m 1,60,61
 368 384 368 384 320 384 c 0,62,63
 304 384 304 384 256 384 c 0,64,65
 240 384 240 384 192 384 c 1,66,67
 192 400 192 400 192 448 c 1,68,69
 208 448 208 448 256 448 c 0,70,71
 272 448 272 448 320 448 c 0,72,73
 336 448 336 448 384 448 c 1,74,75
 384 432 384 432 384 384 c 1,60,61
EndSplineSet
EndChar

StartChar: d
Encoding: 100 100 71
Width: 512
Flags: W
LayerCount: 2
Fore
SplineSet
384 0 m 0,0,1
 368 0 368 0 320 0 c 0,2,3
 304 0 304 0 256 0 c 0,4,5
 240 0 240 0 192 0 c 1,6,7
 192 16 192 16 192 64 c 1,8,9
 176 64 176 64 128 64 c 1,10,11
 128 80 128 80 128 128 c 0,12,13
 128 144 128 144 128 192 c 0,14,15
 128 208 128 208 128 256 c 0,16,17
 128 272 128 272 128 320 c 0,18,19
 128 336 128 336 128 384 c 1,20,21
 144 384 144 384 192 384 c 1,22,23
 192 400 192 400 192 448 c 1,24,25
 208 448 208 448 256 448 c 0,26,27
 272 448 272 448 320 448 c 0,28,29
 336 448 336 448 384 448 c 1,30,31
 384 464 384 464 384 512 c 0,32,33
 384 528 384 528 384 576 c 0,34,35
 384 592 384 592 384 640 c 1,36,37
 368 640 368 640 320 640 c 1,38,39
 320 656 320 656 320 704 c 1,40,41
 336 704 336 704 384 704 c 1,42,43
 384 720 384 720 384 768 c 1,44,45
 400 768 400 768 448 768 c 1,46,47
 448 752 448 752 448 704 c 0,48,49
 448 688 448 688 448 640 c 0,50,51
 448 624 448 624 448 576 c 0,52,53
 448 560 448 560 448 512 c 0,54,55
 448 496 448 496 448 448 c 0,56,57
 448 432 448 432 448 384 c 0,58,59
 448 368 448 368 448 320 c 0,60,61
 448 304 448 304 448 256 c 0,62,63
 448 240 448 240 448 192 c 0,64,65
 448 176 448 176 448 128 c 0,66,67
 448 112 448 112 448 64 c 0,68,69
 448 48 448 48 448 0 c 1,70,71
 432 0 432 0 384 0 c 0,0,1
320 64 m 0,72,73
 336 64 336 64 384 64 c 1,74,75
 384 80 384 80 384 128 c 0,76,77
 384 144 384 144 384 192 c 0,78,79
 384 208 384 208 384 256 c 0,80,81
 384 272 384 272 384 320 c 0,82,83
 384 336 384 336 384 384 c 1,84,85
 368 384 368 384 320 384 c 0,86,87
 304 384 304 384 256 384 c 0,88,89
 240 384 240 384 192 384 c 1,90,91
 192 368 192 368 192 320 c 0,92,93
 192 304 192 304 192 256 c 0,94,95
 192 240 192 240 192 192 c 0,96,97
 192 176 192 176 192 128 c 0,98,99
 192 112 192 112 192 64 c 1,100,101
 208 64 208 64 256 64 c 0,102,103
 272 64 272 64 320 64 c 0,72,73
EndSplineSet
EndChar

StartChar: e
Encoding: 101 101 72
Width: 512
Flags: W
LayerCount: 2
Fore
SplineSet
320 64 m 0,0,1
 336 64 336 64 384 64 c 1,2,3
 384 48 384 48 384 0 c 1,4,5
 368 0 368 0 320 0 c 0,6,7
 304 0 304 0 256 0 c 0,8,9
 240 0 240 0 192 0 c 1,10,11
 192 16 192 16 192 64 c 1,12,13
 208 64 208 64 256 64 c 0,14,15
 272 64 272 64 320 64 c 0,0,1
384 64 m 1,16,17
 384 80 384 80 384 128 c 1,18,19
 400 128 400 128 448 128 c 1,20,21
 448 112 448 112 448 64 c 1,22,23
 432 64 432 64 384 64 c 1,16,17
192 64 m 1,24,25
 176 64 176 64 128 64 c 1,26,27
 128 80 128 80 128 128 c 0,28,29
 128 144 128 144 128 192 c 0,30,31
 128 208 128 208 128 256 c 1,32,33
 112 256 112 256 64 256 c 1,34,35
 64 272 64 272 64 320 c 1,36,37
 80 320 80 320 128 320 c 1,38,39
 128 336 128 336 128 384 c 1,40,41
 144 384 144 384 192 384 c 1,42,43
 192 368 192 368 192 320 c 0,44,45
 192 304 192 304 192 256 c 0,46,47
 192 240 192 240 192 192 c 1,48,49
 208 192 208 192 256 192 c 1,50,51
 256 176 256 176 256 128 c 1,52,53
 240 128 240 128 192 128 c 1,54,55
 192 112 192 112 192 64 c 1,24,25
256 192 m 1,56,57
 256 208 256 208 256 256 c 1,58,59
 272 256 272 256 320 256 c 1,60,61
 320 240 320 240 320 192 c 1,62,63
 304 192 304 192 256 192 c 1,56,57
320 256 m 1,64,65
 320 272 320 272 320 320 c 1,66,67
 336 320 336 320 384 320 c 1,68,69
 384 304 384 304 384 256 c 1,70,71
 368 256 368 256 320 256 c 1,64,65
384 320 m 1,72,73
 384 336 384 336 384 384 c 1,74,75
 400 384 400 384 448 384 c 1,76,77
 448 368 448 368 448 320 c 1,78,79
 432 320 432 320 384 320 c 1,72,73
384 384 m 1,80,81
 368 384 368 384 320 384 c 0,82,83
 304 384 304 384 256 384 c 0,84,85
 240 384 240 384 192 384 c 1,86,87
 192 400 192 400 192 448 c 1,88,89
 208 448 208 448 256 448 c 0,90,91
 272 448 272 448 320 448 c 0,92,93
 336 448 336 448 384 448 c 1,94,95
 384 432 384 432 384 384 c 1,80,81
EndSplineSet
EndChar

StartChar: f
Encoding: 102 102 73
Width: 448
Flags: W
LayerCount: 2
Fore
SplineSet
320 640 m 1,0,1
 320 656 320 656 320 704 c 1,2,3
 336 704 336 704 384 704 c 1,4,5
 384 688 384 688 384 640 c 1,6,7
 368 640 368 640 320 640 c 1,0,1
128 0 m 0,8,9
 112 0 112 0 64 0 c 1,10,11
 64 16 64 16 64 64 c 1,12,13
 80 64 80 64 128 64 c 1,14,15
 128 80 128 80 128 128 c 0,16,17
 128 144 128 144 128 192 c 0,18,19
 128 208 128 208 128 256 c 0,20,21
 128 272 128 272 128 320 c 0,22,23
 128 336 128 336 128 384 c 0,24,25
 128 400 128 400 128 448 c 0,26,27
 128 464 128 464 128 512 c 0,28,29
 128 528 128 528 128 576 c 0,30,31
 128 592 128 592 128 640 c 1,32,33
 112 640 112 640 64 640 c 1,34,35
 64 656 64 656 64 704 c 1,36,37
 80 704 80 704 128 704 c 1,38,39
 128 720 128 720 128 768 c 1,40,41
 144 768 144 768 192 768 c 0,42,43
 208 768 208 768 256 768 c 0,44,45
 272 768 272 768 320 768 c 1,46,47
 320 752 320 752 320 704 c 1,48,49
 304 704 304 704 256 704 c 0,50,51
 240 704 240 704 192 704 c 1,52,53
 192 688 192 688 192 640 c 0,54,55
 192 624 192 624 192 576 c 0,56,57
 192 560 192 560 192 512 c 0,58,59
 192 496 192 496 192 448 c 1,60,61
 208 448 208 448 256 448 c 0,62,63
 272 448 272 448 320 448 c 1,64,65
 320 432 320 432 320 384 c 1,66,67
 304 384 304 384 256 384 c 0,68,69
 240 384 240 384 192 384 c 1,70,71
 192 368 192 368 192 320 c 0,72,73
 192 304 192 304 192 256 c 0,74,75
 192 240 192 240 192 192 c 0,76,77
 192 176 192 176 192 128 c 0,78,79
 192 112 192 112 192 64 c 0,80,81
 192 48 192 48 192 0 c 1,82,83
 176 0 176 0 128 0 c 0,8,9
EndSplineSet
EndChar

StartChar: g
Encoding: 103 103 74
Width: 512
Flags: W
LayerCount: 2
Fore
SplineSet
320 -192 m 0,0,1
 336 -192 336 -192 384 -192 c 1,2,3
 384 -208 384 -208 384 -256 c 1,4,5
 368 -256 368 -256 320 -256 c 0,6,7
 304 -256 304 -256 256 -256 c 0,8,9
 240 -256 240 -256 192 -256 c 1,10,11
 192 -240 192 -240 192 -192 c 1,12,13
 208 -192 208 -192 256 -192 c 0,14,15
 272 -192 272 -192 320 -192 c 0,0,1
384 -192 m 1,16,17
 384 -176 384 -176 384 -128 c 0,18,19
 384 -112 384 -112 384 -64 c 0,20,21
 384 -48 384 -48 384 0 c 0,22,23
 384 16 384 16 384 64 c 1,24,25
 368 64 368 64 320 64 c 1,26,27
 320 48 320 48 320 0 c 1,28,29
 304 0 304 0 256 0 c 0,30,31
 240 0 240 0 192 0 c 1,32,33
 192 16 192 16 192 64 c 1,34,35
 208 64 208 64 256 64 c 0,36,37
 272 64 272 64 320 64 c 1,38,39
 320 80 320 80 320 128 c 1,40,41
 336 128 336 128 384 128 c 1,42,43
 384 144 384 144 384 192 c 0,44,45
 384 208 384 208 384 256 c 0,46,47
 384 272 384 272 384 320 c 0,48,49
 384 336 384 336 384 384 c 1,50,51
 400 384 400 384 448 384 c 1,52,53
 448 368 448 368 448 320 c 0,54,55
 448 304 448 304 448 256 c 0,56,57
 448 240 448 240 448 192 c 0,58,59
 448 176 448 176 448 128 c 0,60,61
 448 112 448 112 448 64 c 0,62,63
 448 48 448 48 448 0 c 0,64,65
 448 -16 448 -16 448 -64 c 0,66,67
 448 -80 448 -80 448 -128 c 0,68,69
 448 -144 448 -144 448 -192 c 1,70,71
 432 -192 432 -192 384 -192 c 1,16,17
192 -192 m 1,72,73
 176 -192 176 -192 128 -192 c 1,74,75
 128 -176 128 -176 128 -128 c 1,76,77
 144 -128 144 -128 192 -128 c 1,78,79
 192 -144 192 -144 192 -192 c 1,72,73
192 64 m 1,80,81
 176 64 176 64 128 64 c 1,82,83
 128 80 128 80 128 128 c 0,84,85
 128 144 128 144 128 192 c 0,86,87
 128 208 128 208 128 256 c 1,88,89
 112 256 112 256 64 256 c 1,90,91
 64 272 64 272 64 320 c 1,92,93
 80 320 80 320 128 320 c 1,94,95
 128 336 128 336 128 384 c 1,96,97
 144 384 144 384 192 384 c 1,98,99
 192 368 192 368 192 320 c 0,100,101
 192 304 192 304 192 256 c 0,102,103
 192 240 192 240 192 192 c 0,104,105
 192 176 192 176 192 128 c 0,106,107
 192 112 192 112 192 64 c 1,80,81
384 384 m 1,108,109
 368 384 368 384 320 384 c 0,110,111
 304 384 304 384 256 384 c 0,112,113
 240 384 240 384 192 384 c 1,114,115
 192 400 192 400 192 448 c 1,116,117
 208 448 208 448 256 448 c 0,118,119
 272 448 272 448 320 448 c 0,120,121
 336 448 336 448 384 448 c 1,122,123
 384 432 384 432 384 384 c 1,108,109
EndSplineSet
EndChar

StartChar: h
Encoding: 104 104 75
Width: 512
Flags: W
LayerCount: 2
Fore
SplineSet
384 0 m 0,0,1
 368 0 368 0 320 0 c 1,2,3
 320 16 320 16 320 64 c 1,4,5
 336 64 336 64 384 64 c 1,6,7
 384 80 384 80 384 128 c 0,8,9
 384 144 384 144 384 192 c 0,10,11
 384 208 384 208 384 256 c 0,12,13
 384 272 384 272 384 320 c 0,14,15
 384 336 384 336 384 384 c 1,16,17
 400 384 400 384 448 384 c 1,18,19
 448 368 448 368 448 320 c 0,20,21
 448 304 448 304 448 256 c 0,22,23
 448 240 448 240 448 192 c 0,24,25
 448 176 448 176 448 128 c 0,26,27
 448 112 448 112 448 64 c 0,28,29
 448 48 448 48 448 0 c 1,30,31
 432 0 432 0 384 0 c 0,0,1
128 0 m 0,32,33
 112 0 112 0 64 0 c 1,34,35
 64 16 64 16 64 64 c 1,36,37
 80 64 80 64 128 64 c 1,38,39
 128 80 128 80 128 128 c 0,40,41
 128 144 128 144 128 192 c 0,42,43
 128 208 128 208 128 256 c 0,44,45
 128 272 128 272 128 320 c 0,46,47
 128 336 128 336 128 384 c 0,48,49
 128 400 128 400 128 448 c 0,50,51
 128 464 128 464 128 512 c 0,52,53
 128 528 128 528 128 576 c 0,54,55
 128 592 128 592 128 640 c 1,56,57
 112 640 112 640 64 640 c 1,58,59
 64 656 64 656 64 704 c 1,60,61
 80 704 80 704 128 704 c 1,62,63
 128 720 128 720 128 768 c 1,64,65
 144 768 144 768 192 768 c 1,66,67
 192 752 192 752 192 704 c 0,68,69
 192 688 192 688 192 640 c 0,70,71
 192 624 192 624 192 576 c 0,72,73
 192 560 192 560 192 512 c 0,74,75
 192 496 192 496 192 448 c 1,76,77
 208 448 208 448 256 448 c 0,78,79
 272 448 272 448 320 448 c 0,80,81
 336 448 336 448 384 448 c 1,82,83
 384 432 384 432 384 384 c 1,84,85
 368 384 368 384 320 384 c 0,86,87
 304 384 304 384 256 384 c 0,88,89
 240 384 240 384 192 384 c 1,90,91
 192 368 192 368 192 320 c 0,92,93
 192 304 192 304 192 256 c 0,94,95
 192 240 192 240 192 192 c 0,96,97
 192 176 192 176 192 128 c 0,98,99
 192 112 192 112 192 64 c 0,100,101
 192 48 192 48 192 0 c 1,102,103
 176 0 176 0 128 0 c 0,32,33
EndSplineSet
EndChar

StartChar: i
Encoding: 105 105 76
Width: 320
Flags: W
LayerCount: 2
Fore
SplineSet
192 0 m 1,0,1
 192 16 192 16 192 64 c 0,2,3
 192 80 192 80 192 128 c 0,4,5
 192 144 192 144 192 192 c 0,6,7
 192 208 192 208 192 256 c 1,8,9
 176 256 176 256 128 256 c 1,10,11
 128 272 128 272 128 320 c 1,12,13
 144 320 144 320 192 320 c 1,14,15
 192 336 192 336 192 384 c 1,16,17
 208 384 208 384 256 384 c 1,18,19
 256 368 256 368 256 320 c 0,20,21
 256 304 256 304 256 256 c 0,22,23
 256 240 256 240 256 192 c 0,24,25
 256 176 256 176 256 128 c 0,26,27
 256 112 256 112 256 64 c 0,28,29
 256 48 256 48 256 0 c 1,30,31
 240 0 240 0 192 0 c 1,0,1
192 448 m 1,32,33
 192 464 192 464 192 512 c 0,34,35
 192 528 192 528 192 576 c 1,36,37
 208 576 208 576 256 576 c 1,38,39
 256 560 256 560 256 512 c 0,40,41
 256 496 256 496 256 448 c 1,42,43
 240 448 240 448 192 448 c 1,32,33
EndSplineSet
EndChar

StartChar: j
Encoding: 106 106 77
Width: 448
Flags: W
LayerCount: 2
Fore
SplineSet
320 448 m 1,0,1
 320 464 320 464 320 512 c 0,2,3
 320 528 320 528 320 576 c 1,4,5
 336 576 336 576 384 576 c 1,6,7
 384 560 384 560 384 512 c 0,8,9
 384 496 384 496 384 448 c 1,10,11
 368 448 368 448 320 448 c 1,0,1
256 -192 m 0,12,13
 272 -192 272 -192 320 -192 c 1,14,15
 320 -208 320 -208 320 -256 c 1,16,17
 304 -256 304 -256 256 -256 c 0,18,19
 240 -256 240 -256 192 -256 c 1,20,21
 192 -240 192 -240 192 -192 c 1,22,23
 208 -192 208 -192 256 -192 c 0,12,13
320 -192 m 1,24,25
 320 -176 320 -176 320 -128 c 0,26,27
 320 -112 320 -112 320 -64 c 0,28,29
 320 -48 320 -48 320 0 c 0,30,31
 320 16 320 16 320 64 c 0,32,33
 320 80 320 80 320 128 c 0,34,35
 320 144 320 144 320 192 c 0,36,37
 320 208 320 208 320 256 c 1,38,39
 304 256 304 256 256 256 c 1,40,41
 256 272 256 272 256 320 c 1,42,43
 272 320 272 320 320 320 c 1,44,45
 320 336 320 336 320 384 c 1,46,47
 336 384 336 384 384 384 c 1,48,49
 384 368 384 368 384 320 c 0,50,51
 384 304 384 304 384 256 c 0,52,53
 384 240 384 240 384 192 c 0,54,55
 384 176 384 176 384 128 c 0,56,57
 384 112 384 112 384 64 c 0,58,59
 384 48 384 48 384 0 c 0,60,61
 384 -16 384 -16 384 -64 c 0,62,63
 384 -80 384 -80 384 -128 c 0,64,65
 384 -144 384 -144 384 -192 c 1,66,67
 368 -192 368 -192 320 -192 c 1,24,25
192 -192 m 1,68,69
 176 -192 176 -192 128 -192 c 1,70,71
 128 -176 128 -176 128 -128 c 1,72,73
 144 -128 144 -128 192 -128 c 1,74,75
 192 -144 192 -144 192 -192 c 1,68,69
EndSplineSet
EndChar

StartChar: k
Encoding: 107 107 78
Width: 448
Flags: W
LayerCount: 2
Fore
SplineSet
320 0 m 1,0,1
 320 16 320 16 320 64 c 0,2,3
 320 80 320 80 320 128 c 0,4,5
 320 144 320 144 320 192 c 1,6,7
 336 192 336 192 384 192 c 1,8,9
 384 176 384 176 384 128 c 0,10,11
 384 112 384 112 384 64 c 0,12,13
 384 48 384 48 384 0 c 1,14,15
 368 0 368 0 320 0 c 1,0,1
128 0 m 0,16,17
 112 0 112 0 64 0 c 1,18,19
 64 16 64 16 64 64 c 1,20,21
 80 64 80 64 128 64 c 1,22,23
 128 80 128 80 128 128 c 0,24,25
 128 144 128 144 128 192 c 0,26,27
 128 208 128 208 128 256 c 0,28,29
 128 272 128 272 128 320 c 0,30,31
 128 336 128 336 128 384 c 0,32,33
 128 400 128 400 128 448 c 0,34,35
 128 464 128 464 128 512 c 0,36,37
 128 528 128 528 128 576 c 0,38,39
 128 592 128 592 128 640 c 1,40,41
 112 640 112 640 64 640 c 1,42,43
 64 656 64 656 64 704 c 1,44,45
 80 704 80 704 128 704 c 1,46,47
 128 720 128 720 128 768 c 1,48,49
 144 768 144 768 192 768 c 1,50,51
 192 752 192 752 192 704 c 0,52,53
 192 688 192 688 192 640 c 0,54,55
 192 624 192 624 192 576 c 0,56,57
 192 560 192 560 192 512 c 0,58,59
 192 496 192 496 192 448 c 0,60,61
 192 432 192 432 192 384 c 1,62,63
 208 384 208 384 256 384 c 1,64,65
 256 368 256 368 256 320 c 1,66,67
 272 320 272 320 320 320 c 1,68,69
 320 304 320 304 320 256 c 0,70,71
 320 240 320 240 320 192 c 1,72,73
 304 192 304 192 256 192 c 1,74,75
 256 208 256 208 256 256 c 0,76,77
 256 272 256 272 256 320 c 1,78,79
 240 320 240 320 192 320 c 1,80,81
 192 304 192 304 192 256 c 0,82,83
 192 240 192 240 192 192 c 0,84,85
 192 176 192 176 192 128 c 0,86,87
 192 112 192 112 192 64 c 0,88,89
 192 48 192 48 192 0 c 1,90,91
 176 0 176 0 128 0 c 0,16,17
256 384 m 1,92,93
 256 400 256 400 256 448 c 1,94,95
 272 448 272 448 320 448 c 1,96,97
 320 432 320 432 320 384 c 1,98,99
 304 384 304 384 256 384 c 1,92,93
320 448 m 1,100,101
 320 464 320 464 320 512 c 1,102,103
 336 512 336 512 384 512 c 1,104,105
 384 496 384 496 384 448 c 1,106,107
 368 448 368 448 320 448 c 1,100,101
EndSplineSet
EndChar

StartChar: l
Encoding: 108 108 79
Width: 448
Flags: W
LayerCount: 2
Fore
SplineSet
320 0 m 0,0,1
 304 0 304 0 256 0 c 1,2,3
 256 16 256 16 256 64 c 0,4,5
 256 80 256 80 256 128 c 0,6,7
 256 144 256 144 256 192 c 0,8,9
 256 208 256 208 256 256 c 0,10,11
 256 272 256 272 256 320 c 0,12,13
 256 336 256 336 256 384 c 0,14,15
 256 400 256 400 256 448 c 0,16,17
 256 464 256 464 256 512 c 0,18,19
 256 528 256 528 256 576 c 0,20,21
 256 592 256 592 256 640 c 1,22,23
 240 640 240 640 192 640 c 1,24,25
 192 656 192 656 192 704 c 1,26,27
 208 704 208 704 256 704 c 1,28,29
 256 720 256 720 256 768 c 1,30,31
 272 768 272 768 320 768 c 1,32,33
 320 752 320 752 320 704 c 0,34,35
 320 688 320 688 320 640 c 0,36,37
 320 624 320 624 320 576 c 0,38,39
 320 560 320 560 320 512 c 0,40,41
 320 496 320 496 320 448 c 0,42,43
 320 432 320 432 320 384 c 0,44,45
 320 368 320 368 320 320 c 0,46,47
 320 304 320 304 320 256 c 0,48,49
 320 240 320 240 320 192 c 0,50,51
 320 176 320 176 320 128 c 0,52,53
 320 112 320 112 320 64 c 1,54,55
 336 64 336 64 384 64 c 1,56,57
 384 48 384 48 384 0 c 1,58,59
 368 0 368 0 320 0 c 0,0,1
EndSplineSet
EndChar

StartChar: m
Encoding: 109 109 80
Width: 768
Flags: W
LayerCount: 2
Fore
SplineSet
640 0 m 1,0,1
 640 16 640 16 640 64 c 0,2,3
 640 80 640 80 640 128 c 0,4,5
 640 144 640 144 640 192 c 0,6,7
 640 208 640 208 640 256 c 0,8,9
 640 272 640 272 640 320 c 0,10,11
 640 336 640 336 640 384 c 1,12,13
 656 384 656 384 704 384 c 1,14,15
 704 368 704 368 704 320 c 0,16,17
 704 304 704 304 704 256 c 0,18,19
 704 240 704 240 704 192 c 0,20,21
 704 176 704 176 704 128 c 0,22,23
 704 112 704 112 704 64 c 0,24,25
 704 48 704 48 704 0 c 1,26,27
 688 0 688 0 640 0 c 1,0,1
384 0 m 1,28,29
 384 16 384 16 384 64 c 0,30,31
 384 80 384 80 384 128 c 0,32,33
 384 144 384 144 384 192 c 0,34,35
 384 208 384 208 384 256 c 0,36,37
 384 272 384 272 384 320 c 0,38,39
 384 336 384 336 384 384 c 1,40,41
 400 384 400 384 448 384 c 1,42,43
 448 368 448 368 448 320 c 0,44,45
 448 304 448 304 448 256 c 0,46,47
 448 240 448 240 448 192 c 0,48,49
 448 176 448 176 448 128 c 0,50,51
 448 112 448 112 448 64 c 0,52,53
 448 48 448 48 448 0 c 1,54,55
 432 0 432 0 384 0 c 1,28,29
128 0 m 1,56,57
 128 16 128 16 128 64 c 0,58,59
 128 80 128 80 128 128 c 0,60,61
 128 144 128 144 128 192 c 0,62,63
 128 208 128 208 128 256 c 1,64,65
 112 256 112 256 64 256 c 1,66,67
 64 272 64 272 64 320 c 1,68,69
 80 320 80 320 128 320 c 1,70,71
 128 336 128 336 128 384 c 1,72,73
 144 384 144 384 192 384 c 1,74,75
 192 368 192 368 192 320 c 0,76,77
 192 304 192 304 192 256 c 0,78,79
 192 240 192 240 192 192 c 0,80,81
 192 176 192 176 192 128 c 0,82,83
 192 112 192 112 192 64 c 0,84,85
 192 48 192 48 192 0 c 1,86,87
 176 0 176 0 128 0 c 1,56,57
640 384 m 1,88,89
 624 384 624 384 576 384 c 0,90,91
 560 384 560 384 512 384 c 0,92,93
 496 384 496 384 448 384 c 1,94,95
 448 400 448 400 448 448 c 1,96,97
 464 448 464 448 512 448 c 0,98,99
 528 448 528 448 576 448 c 0,100,101
 592 448 592 448 640 448 c 1,102,103
 640 432 640 432 640 384 c 1,88,89
384 384 m 1,104,105
 368 384 368 384 320 384 c 0,106,107
 304 384 304 384 256 384 c 0,108,109
 240 384 240 384 192 384 c 1,110,111
 192 400 192 400 192 448 c 1,112,113
 208 448 208 448 256 448 c 0,114,115
 272 448 272 448 320 448 c 0,116,117
 336 448 336 448 384 448 c 1,118,119
 384 432 384 432 384 384 c 1,104,105
EndSplineSet
EndChar

StartChar: n
Encoding: 110 110 81
Width: 512
Flags: W
LayerCount: 2
Fore
SplineSet
384 0 m 1,0,1
 384 16 384 16 384 64 c 0,2,3
 384 80 384 80 384 128 c 0,4,5
 384 144 384 144 384 192 c 0,6,7
 384 208 384 208 384 256 c 0,8,9
 384 272 384 272 384 320 c 0,10,11
 384 336 384 336 384 384 c 1,12,13
 400 384 400 384 448 384 c 1,14,15
 448 368 448 368 448 320 c 0,16,17
 448 304 448 304 448 256 c 0,18,19
 448 240 448 240 448 192 c 0,20,21
 448 176 448 176 448 128 c 0,22,23
 448 112 448 112 448 64 c 0,24,25
 448 48 448 48 448 0 c 1,26,27
 432 0 432 0 384 0 c 1,0,1
128 0 m 1,28,29
 128 16 128 16 128 64 c 0,30,31
 128 80 128 80 128 128 c 0,32,33
 128 144 128 144 128 192 c 0,34,35
 128 208 128 208 128 256 c 1,36,37
 112 256 112 256 64 256 c 1,38,39
 64 272 64 272 64 320 c 1,40,41
 80 320 80 320 128 320 c 1,42,43
 128 336 128 336 128 384 c 1,44,45
 144 384 144 384 192 384 c 1,46,47
 192 368 192 368 192 320 c 0,48,49
 192 304 192 304 192 256 c 0,50,51
 192 240 192 240 192 192 c 0,52,53
 192 176 192 176 192 128 c 0,54,55
 192 112 192 112 192 64 c 0,56,57
 192 48 192 48 192 0 c 1,58,59
 176 0 176 0 128 0 c 1,28,29
384 384 m 1,60,61
 368 384 368 384 320 384 c 0,62,63
 304 384 304 384 256 384 c 0,64,65
 240 384 240 384 192 384 c 1,66,67
 192 400 192 400 192 448 c 1,68,69
 208 448 208 448 256 448 c 0,70,71
 272 448 272 448 320 448 c 0,72,73
 336 448 336 448 384 448 c 1,74,75
 384 432 384 432 384 384 c 1,60,61
EndSplineSet
EndChar

StartChar: o
Encoding: 111 111 82
Width: 512
Flags: W
LayerCount: 2
Fore
SplineSet
320 64 m 0,0,1
 336 64 336 64 384 64 c 1,2,3
 384 48 384 48 384 0 c 1,4,5
 368 0 368 0 320 0 c 0,6,7
 304 0 304 0 256 0 c 0,8,9
 240 0 240 0 192 0 c 1,10,11
 192 16 192 16 192 64 c 1,12,13
 208 64 208 64 256 64 c 0,14,15
 272 64 272 64 320 64 c 0,0,1
384 64 m 1,16,17
 384 80 384 80 384 128 c 0,18,19
 384 144 384 144 384 192 c 0,20,21
 384 208 384 208 384 256 c 0,22,23
 384 272 384 272 384 320 c 0,24,25
 384 336 384 336 384 384 c 1,26,27
 400 384 400 384 448 384 c 1,28,29
 448 368 448 368 448 320 c 0,30,31
 448 304 448 304 448 256 c 0,32,33
 448 240 448 240 448 192 c 0,34,35
 448 176 448 176 448 128 c 0,36,37
 448 112 448 112 448 64 c 1,38,39
 432 64 432 64 384 64 c 1,16,17
192 64 m 1,40,41
 176 64 176 64 128 64 c 1,42,43
 128 80 128 80 128 128 c 0,44,45
 128 144 128 144 128 192 c 0,46,47
 128 208 128 208 128 256 c 1,48,49
 112 256 112 256 64 256 c 1,50,51
 64 272 64 272 64 320 c 1,52,53
 80 320 80 320 128 320 c 1,54,55
 128 336 128 336 128 384 c 1,56,57
 144 384 144 384 192 384 c 1,58,59
 192 368 192 368 192 320 c 0,60,61
 192 304 192 304 192 256 c 0,62,63
 192 240 192 240 192 192 c 0,64,65
 192 176 192 176 192 128 c 0,66,67
 192 112 192 112 192 64 c 1,40,41
384 384 m 1,68,69
 368 384 368 384 320 384 c 0,70,71
 304 384 304 384 256 384 c 0,72,73
 240 384 240 384 192 384 c 1,74,75
 192 400 192 400 192 448 c 1,76,77
 208 448 208 448 256 448 c 0,78,79
 272 448 272 448 320 448 c 0,80,81
 336 448 336 448 384 448 c 1,82,83
 384 432 384 432 384 384 c 1,68,69
EndSplineSet
EndChar

StartChar: p
Encoding: 112 112 83
Width: 512
Flags: W
LayerCount: 2
Fore
SplineSet
128 -256 m 1,0,1
 128 -240 128 -240 128 -192 c 0,2,3
 128 -176 128 -176 128 -128 c 0,4,5
 128 -112 128 -112 128 -64 c 0,6,7
 128 -48 128 -48 128 0 c 0,8,9
 128 16 128 16 128 64 c 0,10,11
 128 80 128 80 128 128 c 0,12,13
 128 144 128 144 128 192 c 0,14,15
 128 208 128 208 128 256 c 1,16,17
 112 256 112 256 64 256 c 1,18,19
 64 272 64 272 64 320 c 1,20,21
 80 320 80 320 128 320 c 1,22,23
 128 336 128 336 128 384 c 1,24,25
 144 384 144 384 192 384 c 1,26,27
 192 368 192 368 192 320 c 0,28,29
 192 304 192 304 192 256 c 0,30,31
 192 240 192 240 192 192 c 0,32,33
 192 176 192 176 192 128 c 0,34,35
 192 112 192 112 192 64 c 1,36,37
 208 64 208 64 256 64 c 0,38,39
 272 64 272 64 320 64 c 0,40,41
 336 64 336 64 384 64 c 1,42,43
 384 48 384 48 384 0 c 1,44,45
 368 0 368 0 320 0 c 0,46,47
 304 0 304 0 256 0 c 0,48,49
 240 0 240 0 192 0 c 1,50,51
 192 -16 192 -16 192 -64 c 0,52,53
 192 -80 192 -80 192 -128 c 0,54,55
 192 -144 192 -144 192 -192 c 0,56,57
 192 -208 192 -208 192 -256 c 1,58,59
 176 -256 176 -256 128 -256 c 1,0,1
384 64 m 1,60,61
 384 80 384 80 384 128 c 0,62,63
 384 144 384 144 384 192 c 0,64,65
 384 208 384 208 384 256 c 0,66,67
 384 272 384 272 384 320 c 0,68,69
 384 336 384 336 384 384 c 1,70,71
 400 384 400 384 448 384 c 1,72,73
 448 368 448 368 448 320 c 0,74,75
 448 304 448 304 448 256 c 0,76,77
 448 240 448 240 448 192 c 0,78,79
 448 176 448 176 448 128 c 0,80,81
 448 112 448 112 448 64 c 1,82,83
 432 64 432 64 384 64 c 1,60,61
384 384 m 1,84,85
 368 384 368 384 320 384 c 0,86,87
 304 384 304 384 256 384 c 0,88,89
 240 384 240 384 192 384 c 1,90,91
 192 400 192 400 192 448 c 1,92,93
 208 448 208 448 256 448 c 0,94,95
 272 448 272 448 320 448 c 0,96,97
 336 448 336 448 384 448 c 1,98,99
 384 432 384 432 384 384 c 1,84,85
EndSplineSet
EndChar

StartChar: q
Encoding: 113 113 84
Width: 576
Flags: W
LayerCount: 2
Fore
SplineSet
384 -256 m 1,0,1
 384 -240 384 -240 384 -192 c 0,2,3
 384 -176 384 -176 384 -128 c 0,4,5
 384 -112 384 -112 384 -64 c 0,6,7
 384 -48 384 -48 384 0 c 1,8,9
 368 0 368 0 320 0 c 0,10,11
 304 0 304 0 256 0 c 0,12,13
 240 0 240 0 192 0 c 1,14,15
 192 16 192 16 192 64 c 1,16,17
 208 64 208 64 256 64 c 0,18,19
 272 64 272 64 320 64 c 0,20,21
 336 64 336 64 384 64 c 1,22,23
 384 80 384 80 384 128 c 0,24,25
 384 144 384 144 384 192 c 0,26,27
 384 208 384 208 384 256 c 0,28,29
 384 272 384 272 384 320 c 0,30,31
 384 336 384 336 384 384 c 1,32,33
 400 384 400 384 448 384 c 1,34,35
 448 368 448 368 448 320 c 0,36,37
 448 304 448 304 448 256 c 0,38,39
 448 240 448 240 448 192 c 0,40,41
 448 176 448 176 448 128 c 0,42,43
 448 112 448 112 448 64 c 0,44,45
 448 48 448 48 448 0 c 0,46,47
 448 -16 448 -16 448 -64 c 0,48,49
 448 -80 448 -80 448 -128 c 1,50,51
 464 -128 464 -128 512 -128 c 1,52,53
 512 -144 512 -144 512 -192 c 1,54,55
 496 -192 496 -192 448 -192 c 1,56,57
 448 -208 448 -208 448 -256 c 1,58,59
 432 -256 432 -256 384 -256 c 1,0,1
192 64 m 1,60,61
 176 64 176 64 128 64 c 1,62,63
 128 80 128 80 128 128 c 0,64,65
 128 144 128 144 128 192 c 0,66,67
 128 208 128 208 128 256 c 1,68,69
 112 256 112 256 64 256 c 1,70,71
 64 272 64 272 64 320 c 1,72,73
 80 320 80 320 128 320 c 1,74,75
 128 336 128 336 128 384 c 1,76,77
 144 384 144 384 192 384 c 1,78,79
 192 368 192 368 192 320 c 0,80,81
 192 304 192 304 192 256 c 0,82,83
 192 240 192 240 192 192 c 0,84,85
 192 176 192 176 192 128 c 0,86,87
 192 112 192 112 192 64 c 1,60,61
384 384 m 1,88,89
 368 384 368 384 320 384 c 0,90,91
 304 384 304 384 256 384 c 0,92,93
 240 384 240 384 192 384 c 1,94,95
 192 400 192 400 192 448 c 1,96,97
 208 448 208 448 256 448 c 0,98,99
 272 448 272 448 320 448 c 0,100,101
 336 448 336 448 384 448 c 1,102,103
 384 432 384 432 384 384 c 1,88,89
EndSplineSet
EndChar

StartChar: r
Encoding: 114 114 85
Width: 512
Flags: W
LayerCount: 2
Fore
SplineSet
128 0 m 1,0,1
 128 16 128 16 128 64 c 0,2,3
 128 80 128 80 128 128 c 0,4,5
 128 144 128 144 128 192 c 0,6,7
 128 208 128 208 128 256 c 1,8,9
 112 256 112 256 64 256 c 1,10,11
 64 272 64 272 64 320 c 1,12,13
 80 320 80 320 128 320 c 1,14,15
 128 336 128 336 128 384 c 1,16,17
 144 384 144 384 192 384 c 1,18,19
 192 368 192 368 192 320 c 0,20,21
 192 304 192 304 192 256 c 0,22,23
 192 240 192 240 192 192 c 0,24,25
 192 176 192 176 192 128 c 0,26,27
 192 112 192 112 192 64 c 0,28,29
 192 48 192 48 192 0 c 1,30,31
 176 0 176 0 128 0 c 1,0,1
384 320 m 1,32,33
 384 336 384 336 384 384 c 1,34,35
 400 384 400 384 448 384 c 1,36,37
 448 368 448 368 448 320 c 1,38,39
 432 320 432 320 384 320 c 1,32,33
384 384 m 1,40,41
 368 384 368 384 320 384 c 0,42,43
 304 384 304 384 256 384 c 0,44,45
 240 384 240 384 192 384 c 1,46,47
 192 400 192 400 192 448 c 1,48,49
 208 448 208 448 256 448 c 0,50,51
 272 448 272 448 320 448 c 0,52,53
 336 448 336 448 384 448 c 1,54,55
 384 432 384 432 384 384 c 1,40,41
EndSplineSet
EndChar

StartChar: s
Encoding: 115 115 86
Width: 512
Flags: W
LayerCount: 2
Fore
SplineSet
384 320 m 1,0,1
 384 336 384 336 384 384 c 1,2,3
 400 384 400 384 448 384 c 1,4,5
 448 368 448 368 448 320 c 1,6,7
 432 320 432 320 384 320 c 1,0,1
320 64 m 0,8,9
 336 64 336 64 384 64 c 1,10,11
 384 48 384 48 384 0 c 1,12,13
 368 0 368 0 320 0 c 0,14,15
 304 0 304 0 256 0 c 0,16,17
 240 0 240 0 192 0 c 1,18,19
 192 16 192 16 192 64 c 1,20,21
 208 64 208 64 256 64 c 0,22,23
 272 64 272 64 320 64 c 0,8,9
384 64 m 1,24,25
 384 80 384 80 384 128 c 0,26,27
 384 144 384 144 384 192 c 1,28,29
 400 192 400 192 448 192 c 1,30,31
 448 176 448 176 448 128 c 0,32,33
 448 112 448 112 448 64 c 1,34,35
 432 64 432 64 384 64 c 1,24,25
192 64 m 1,36,37
 176 64 176 64 128 64 c 1,38,39
 128 80 128 80 128 128 c 1,40,41
 144 128 144 128 192 128 c 1,42,43
 192 112 192 112 192 64 c 1,36,37
384 192 m 1,44,45
 368 192 368 192 320 192 c 0,46,47
 304 192 304 192 256 192 c 0,48,49
 240 192 240 192 192 192 c 1,50,51
 192 208 192 208 192 256 c 1,52,53
 208 256 208 256 256 256 c 0,54,55
 272 256 272 256 320 256 c 0,56,57
 336 256 336 256 384 256 c 1,58,59
 384 240 384 240 384 192 c 1,44,45
192 256 m 1,60,61
 176 256 176 256 128 256 c 0,62,63
 112 256 112 256 64 256 c 1,64,65
 64 272 64 272 64 320 c 1,66,67
 80 320 80 320 128 320 c 1,68,69
 128 336 128 336 128 384 c 1,70,71
 144 384 144 384 192 384 c 1,72,73
 192 368 192 368 192 320 c 0,74,75
 192 304 192 304 192 256 c 1,60,61
384 384 m 1,76,77
 368 384 368 384 320 384 c 0,78,79
 304 384 304 384 256 384 c 0,80,81
 240 384 240 384 192 384 c 1,82,83
 192 400 192 400 192 448 c 1,84,85
 208 448 208 448 256 448 c 0,86,87
 272 448 272 448 320 448 c 0,88,89
 336 448 336 448 384 448 c 1,90,91
 384 432 384 432 384 384 c 1,76,77
EndSplineSet
EndChar

StartChar: t
Encoding: 116 116 87
Width: 448
Flags: W
LayerCount: 2
Fore
SplineSet
256 64 m 0,0,1
 272 64 272 64 320 64 c 1,2,3
 320 48 320 48 320 0 c 1,4,5
 304 0 304 0 256 0 c 0,6,7
 240 0 240 0 192 0 c 1,8,9
 192 16 192 16 192 64 c 1,10,11
 208 64 208 64 256 64 c 0,0,1
320 64 m 1,12,13
 320 80 320 80 320 128 c 1,14,15
 336 128 336 128 384 128 c 1,16,17
 384 112 384 112 384 64 c 1,18,19
 368 64 368 64 320 64 c 1,12,13
192 64 m 1,20,21
 176 64 176 64 128 64 c 1,22,23
 128 80 128 80 128 128 c 0,24,25
 128 144 128 144 128 192 c 0,26,27
 128 208 128 208 128 256 c 0,28,29
 128 272 128 272 128 320 c 0,30,31
 128 336 128 336 128 384 c 1,32,33
 112 384 112 384 64 384 c 1,34,35
 64 400 64 400 64 448 c 1,36,37
 80 448 80 448 128 448 c 1,38,39
 128 464 128 464 128 512 c 0,40,41
 128 528 128 528 128 576 c 0,42,43
 128 592 128 592 128 640 c 1,44,45
 112 640 112 640 64 640 c 1,46,47
 64 656 64 656 64 704 c 1,48,49
 80 704 80 704 128 704 c 1,50,51
 128 720 128 720 128 768 c 1,52,53
 144 768 144 768 192 768 c 1,54,55
 192 752 192 752 192 704 c 0,56,57
 192 688 192 688 192 640 c 0,58,59
 192 624 192 624 192 576 c 0,60,61
 192 560 192 560 192 512 c 0,62,63
 192 496 192 496 192 448 c 1,64,65
 208 448 208 448 256 448 c 0,66,67
 272 448 272 448 320 448 c 1,68,69
 320 432 320 432 320 384 c 1,70,71
 304 384 304 384 256 384 c 0,72,73
 240 384 240 384 192 384 c 1,74,75
 192 368 192 368 192 320 c 0,76,77
 192 304 192 304 192 256 c 0,78,79
 192 240 192 240 192 192 c 0,80,81
 192 176 192 176 192 128 c 0,82,83
 192 112 192 112 192 64 c 1,20,21
EndSplineSet
EndChar

StartChar: u
Encoding: 117 117 88
Width: 512
Flags: W
LayerCount: 2
Fore
SplineSet
384 0 m 0,0,1
 368 0 368 0 320 0 c 0,2,3
 304 0 304 0 256 0 c 0,4,5
 240 0 240 0 192 0 c 1,6,7
 192 16 192 16 192 64 c 1,8,9
 208 64 208 64 256 64 c 0,10,11
 272 64 272 64 320 64 c 0,12,13
 336 64 336 64 384 64 c 1,14,15
 384 80 384 80 384 128 c 0,16,17
 384 144 384 144 384 192 c 0,18,19
 384 208 384 208 384 256 c 1,20,21
 368 256 368 256 320 256 c 1,22,23
 320 272 320 272 320 320 c 1,24,25
 336 320 336 320 384 320 c 1,26,27
 384 336 384 336 384 384 c 0,28,29
 384 400 384 400 384 448 c 1,30,31
 400 448 400 448 448 448 c 1,32,33
 448 432 448 432 448 384 c 0,34,35
 448 368 448 368 448 320 c 0,36,37
 448 304 448 304 448 256 c 0,38,39
 448 240 448 240 448 192 c 0,40,41
 448 176 448 176 448 128 c 0,42,43
 448 112 448 112 448 64 c 0,44,45
 448 48 448 48 448 0 c 1,46,47
 432 0 432 0 384 0 c 0,0,1
192 64 m 1,48,49
 176 64 176 64 128 64 c 1,50,51
 128 80 128 80 128 128 c 0,52,53
 128 144 128 144 128 192 c 0,54,55
 128 208 128 208 128 256 c 1,56,57
 112 256 112 256 64 256 c 1,58,59
 64 272 64 272 64 320 c 1,60,61
 80 320 80 320 128 320 c 1,62,63
 128 336 128 336 128 384 c 1,64,65
 144 384 144 384 192 384 c 1,66,67
 192 368 192 368 192 320 c 0,68,69
 192 304 192 304 192 256 c 0,70,71
 192 240 192 240 192 192 c 0,72,73
 192 176 192 176 192 128 c 0,74,75
 192 112 192 112 192 64 c 1,48,49
EndSplineSet
EndChar

StartChar: v
Encoding: 118 118 89
Width: 512
Flags: W
LayerCount: 2
Fore
SplineSet
256 0 m 1,0,1
 256 16 256 16 256 64 c 1,2,3
 272 64 272 64 320 64 c 1,4,5
 320 48 320 48 320 0 c 1,6,7
 304 0 304 0 256 0 c 1,0,1
320 64 m 1,8,9
 320 80 320 80 320 128 c 1,10,11
 336 128 336 128 384 128 c 1,12,13
 384 112 384 112 384 64 c 1,14,15
 368 64 368 64 320 64 c 1,8,9
256 64 m 1,16,17
 240 64 240 64 192 64 c 1,18,19
 192 80 192 80 192 128 c 1,20,21
 208 128 208 128 256 128 c 1,22,23
 256 112 256 112 256 64 c 1,16,17
384 128 m 1,24,25
 384 144 384 144 384 192 c 0,26,27
 384 208 384 208 384 256 c 1,28,29
 368 256 368 256 320 256 c 1,30,31
 320 272 320 272 320 320 c 1,32,33
 336 320 336 320 384 320 c 1,34,35
 384 336 384 336 384 384 c 0,36,37
 384 400 384 400 384 448 c 1,38,39
 400 448 400 448 448 448 c 1,40,41
 448 432 448 432 448 384 c 0,42,43
 448 368 448 368 448 320 c 0,44,45
 448 304 448 304 448 256 c 0,46,47
 448 240 448 240 448 192 c 0,48,49
 448 176 448 176 448 128 c 1,50,51
 432 128 432 128 384 128 c 1,24,25
192 128 m 1,52,53
 176 128 176 128 128 128 c 1,54,55
 128 144 128 144 128 192 c 0,56,57
 128 208 128 208 128 256 c 1,58,59
 112 256 112 256 64 256 c 1,60,61
 64 272 64 272 64 320 c 1,62,63
 80 320 80 320 128 320 c 1,64,65
 128 336 128 336 128 384 c 1,66,67
 144 384 144 384 192 384 c 1,68,69
 192 368 192 368 192 320 c 0,70,71
 192 304 192 304 192 256 c 0,72,73
 192 240 192 240 192 192 c 0,74,75
 192 176 192 176 192 128 c 1,52,53
EndSplineSet
EndChar

StartChar: w
Encoding: 119 119 90
Width: 768
Flags: W
LayerCount: 2
Fore
SplineSet
512 0 m 1,0,1
 512 16 512 16 512 64 c 1,2,3
 528 64 528 64 576 64 c 1,4,5
 576 48 576 48 576 0 c 1,6,7
 560 0 560 0 512 0 c 1,0,1
256 0 m 1,8,9
 256 16 256 16 256 64 c 1,10,11
 272 64 272 64 320 64 c 1,12,13
 320 48 320 48 320 0 c 1,14,15
 304 0 304 0 256 0 c 1,8,9
576 64 m 1,16,17
 576 80 576 80 576 128 c 1,18,19
 592 128 592 128 640 128 c 1,20,21
 640 112 640 112 640 64 c 1,22,23
 624 64 624 64 576 64 c 1,16,17
512 64 m 1,24,25
 496 64 496 64 448 64 c 1,26,27
 448 80 448 80 448 128 c 1,28,29
 464 128 464 128 512 128 c 1,30,31
 512 112 512 112 512 64 c 1,24,25
320 64 m 1,32,33
 320 80 320 80 320 128 c 1,34,35
 336 128 336 128 384 128 c 1,36,37
 384 112 384 112 384 64 c 1,38,39
 368 64 368 64 320 64 c 1,32,33
256 64 m 1,40,41
 240 64 240 64 192 64 c 1,42,43
 192 80 192 80 192 128 c 1,44,45
 208 128 208 128 256 128 c 1,46,47
 256 112 256 112 256 64 c 1,40,41
640 128 m 1,48,49
 640 144 640 144 640 192 c 0,50,51
 640 208 640 208 640 256 c 1,52,53
 624 256 624 256 576 256 c 1,54,55
 576 272 576 272 576 320 c 1,56,57
 592 320 592 320 640 320 c 1,58,59
 640 336 640 336 640 384 c 0,60,61
 640 400 640 400 640 448 c 1,62,63
 656 448 656 448 704 448 c 1,64,65
 704 432 704 432 704 384 c 0,66,67
 704 368 704 368 704 320 c 0,68,69
 704 304 704 304 704 256 c 0,70,71
 704 240 704 240 704 192 c 0,72,73
 704 176 704 176 704 128 c 1,74,75
 688 128 688 128 640 128 c 1,48,49
448 128 m 1,76,77
 432 128 432 128 384 128 c 1,78,79
 384 144 384 144 384 192 c 0,80,81
 384 208 384 208 384 256 c 1,82,83
 368 256 368 256 320 256 c 1,84,85
 320 272 320 272 320 320 c 1,86,87
 336 320 336 320 384 320 c 1,88,89
 384 336 384 336 384 384 c 1,90,91
 400 384 400 384 448 384 c 1,92,93
 448 368 448 368 448 320 c 0,94,95
 448 304 448 304 448 256 c 0,96,97
 448 240 448 240 448 192 c 0,98,99
 448 176 448 176 448 128 c 1,76,77
192 128 m 1,100,101
 176 128 176 128 128 128 c 1,102,103
 128 144 128 144 128 192 c 0,104,105
 128 208 128 208 128 256 c 1,106,107
 112 256 112 256 64 256 c 1,108,109
 64 272 64 272 64 320 c 1,110,111
 80 320 80 320 128 320 c 1,112,113
 128 336 128 336 128 384 c 1,114,115
 144 384 144 384 192 384 c 1,116,117
 192 368 192 368 192 320 c 0,118,119
 192 304 192 304 192 256 c 0,120,121
 192 240 192 240 192 192 c 0,122,123
 192 176 192 176 192 128 c 1,100,101
EndSplineSet
EndChar

StartChar: x
Encoding: 120 120 91
Width: 512
Flags: W
LayerCount: 2
Fore
SplineSet
384 0 m 1,0,1
 384 16 384 16 384 64 c 0,2,3
 384 80 384 80 384 128 c 1,4,5
 400 128 400 128 448 128 c 1,6,7
 448 112 448 112 448 64 c 0,8,9
 448 48 448 48 448 0 c 1,10,11
 432 0 432 0 384 0 c 1,0,1
128 0 m 0,12,13
 112 0 112 0 64 0 c 1,14,15
 64 16 64 16 64 64 c 1,16,17
 80 64 80 64 128 64 c 1,18,19
 128 80 128 80 128 128 c 1,20,21
 144 128 144 128 192 128 c 1,22,23
 192 112 192 112 192 64 c 0,24,25
 192 48 192 48 192 0 c 1,26,27
 176 0 176 0 128 0 c 0,12,13
384 128 m 1,28,29
 368 128 368 128 320 128 c 1,30,31
 320 144 320 144 320 192 c 1,32,33
 336 192 336 192 384 192 c 1,34,35
 384 176 384 176 384 128 c 1,28,29
192 128 m 1,36,37
 192 144 192 144 192 192 c 1,38,39
 208 192 208 192 256 192 c 1,40,41
 256 176 256 176 256 128 c 1,42,43
 240 128 240 128 192 128 c 1,36,37
320 192 m 1,44,45
 304 192 304 192 256 192 c 1,46,47
 256 208 256 208 256 256 c 1,48,49
 272 256 272 256 320 256 c 1,50,51
 320 240 320 240 320 192 c 1,44,45
320 256 m 1,52,53
 320 272 320 272 320 320 c 1,54,55
 336 320 336 320 384 320 c 1,56,57
 384 304 384 304 384 256 c 1,58,59
 368 256 368 256 320 256 c 1,52,53
256 256 m 1,60,61
 240 256 240 256 192 256 c 1,62,63
 192 272 192 272 192 320 c 1,64,65
 208 320 208 320 256 320 c 1,66,67
 256 304 256 304 256 256 c 1,60,61
384 320 m 1,68,69
 384 336 384 336 384 384 c 0,70,71
 384 400 384 400 384 448 c 1,72,73
 400 448 400 448 448 448 c 1,74,75
 448 432 448 432 448 384 c 0,76,77
 448 368 448 368 448 320 c 1,78,79
 432 320 432 320 384 320 c 1,68,69
192 320 m 1,80,81
 176 320 176 320 128 320 c 0,82,83
 112 320 112 320 64 320 c 1,84,85
 64 336 64 336 64 384 c 1,86,87
 80 384 80 384 128 384 c 1,88,89
 128 400 128 400 128 448 c 1,90,91
 144 448 144 448 192 448 c 1,92,93
 192 432 192 432 192 384 c 0,94,95
 192 368 192 368 192 320 c 1,80,81
EndSplineSet
EndChar

StartChar: y
Encoding: 121 121 92
Width: 512
Flags: W
LayerCount: 2
Fore
SplineSet
320 -192 m 0,0,1
 336 -192 336 -192 384 -192 c 1,2,3
 384 -208 384 -208 384 -256 c 1,4,5
 368 -256 368 -256 320 -256 c 0,6,7
 304 -256 304 -256 256 -256 c 0,8,9
 240 -256 240 -256 192 -256 c 1,10,11
 192 -240 192 -240 192 -192 c 1,12,13
 208 -192 208 -192 256 -192 c 0,14,15
 272 -192 272 -192 320 -192 c 0,0,1
384 -192 m 1,16,17
 384 -176 384 -176 384 -128 c 0,18,19
 384 -112 384 -112 384 -64 c 0,20,21
 384 -48 384 -48 384 0 c 0,22,23
 384 16 384 16 384 64 c 1,24,25
 368 64 368 64 320 64 c 1,26,27
 320 48 320 48 320 0 c 1,28,29
 304 0 304 0 256 0 c 0,30,31
 240 0 240 0 192 0 c 1,32,33
 192 16 192 16 192 64 c 1,34,35
 208 64 208 64 256 64 c 0,36,37
 272 64 272 64 320 64 c 1,38,39
 320 80 320 80 320 128 c 1,40,41
 336 128 336 128 384 128 c 1,42,43
 384 144 384 144 384 192 c 0,44,45
 384 208 384 208 384 256 c 0,46,47
 384 272 384 272 384 320 c 1,48,49
 368 320 368 320 320 320 c 1,50,51
 320 336 320 336 320 384 c 1,52,53
 336 384 336 384 384 384 c 1,54,55
 384 400 384 400 384 448 c 1,56,57
 400 448 400 448 448 448 c 1,58,59
 448 432 448 432 448 384 c 0,60,61
 448 368 448 368 448 320 c 0,62,63
 448 304 448 304 448 256 c 0,64,65
 448 240 448 240 448 192 c 0,66,67
 448 176 448 176 448 128 c 0,68,69
 448 112 448 112 448 64 c 0,70,71
 448 48 448 48 448 0 c 0,72,73
 448 -16 448 -16 448 -64 c 0,74,75
 448 -80 448 -80 448 -128 c 0,76,77
 448 -144 448 -144 448 -192 c 1,78,79
 432 -192 432 -192 384 -192 c 1,16,17
192 -192 m 1,80,81
 176 -192 176 -192 128 -192 c 1,82,83
 128 -176 128 -176 128 -128 c 1,84,85
 144 -128 144 -128 192 -128 c 1,86,87
 192 -144 192 -144 192 -192 c 1,80,81
192 64 m 1,88,89
 176 64 176 64 128 64 c 1,90,91
 128 80 128 80 128 128 c 0,92,93
 128 144 128 144 128 192 c 0,94,95
 128 208 128 208 128 256 c 0,96,97
 128 272 128 272 128 320 c 1,98,99
 112 320 112 320 64 320 c 1,100,101
 64 336 64 336 64 384 c 1,102,103
 80 384 80 384 128 384 c 1,104,105
 128 400 128 400 128 448 c 1,106,107
 144 448 144 448 192 448 c 1,108,109
 192 432 192 432 192 384 c 0,110,111
 192 368 192 368 192 320 c 0,112,113
 192 304 192 304 192 256 c 0,114,115
 192 240 192 240 192 192 c 0,116,117
 192 176 192 176 192 128 c 0,118,119
 192 112 192 112 192 64 c 1,88,89
EndSplineSet
EndChar

StartChar: z
Encoding: 122 122 93
Width: 512
Flags: W
LayerCount: 2
Fore
SplineSet
128 320 m 1,0,1
 128 336 128 336 128 384 c 1,2,3
 144 384 144 384 192 384 c 1,4,5
 192 368 192 368 192 320 c 1,6,7
 176 320 176 320 128 320 c 1,0,1
384 64 m 0,8,9
 400 64 400 64 448 64 c 1,10,11
 448 48 448 48 448 0 c 1,12,13
 432 0 432 0 384 0 c 0,14,15
 368 0 368 0 320 0 c 0,16,17
 304 0 304 0 256 0 c 0,18,19
 240 0 240 0 192 0 c 0,20,21
 176 0 176 0 128 0 c 1,22,23
 128 16 128 16 128 64 c 1,24,25
 144 64 144 64 192 64 c 1,26,27
 192 80 192 80 192 128 c 1,28,29
 208 128 208 128 256 128 c 1,30,31
 256 112 256 112 256 64 c 1,32,33
 272 64 272 64 320 64 c 0,34,35
 336 64 336 64 384 64 c 0,8,9
256 128 m 1,36,37
 256 144 256 144 256 192 c 0,38,39
 256 208 256 208 256 256 c 1,40,41
 272 256 272 256 320 256 c 1,42,43
 320 240 320 240 320 192 c 0,44,45
 320 176 320 176 320 128 c 1,46,47
 304 128 304 128 256 128 c 1,36,37
320 256 m 1,48,49
 320 272 320 272 320 320 c 1,50,51
 336 320 336 320 384 320 c 1,52,53
 384 304 384 304 384 256 c 1,54,55
 368 256 368 256 320 256 c 1,48,49
384 320 m 1,56,57
 384 336 384 336 384 384 c 1,58,59
 368 384 368 384 320 384 c 0,60,61
 304 384 304 384 256 384 c 0,62,63
 240 384 240 384 192 384 c 1,64,65
 192 400 192 400 192 448 c 1,66,67
 208 448 208 448 256 448 c 0,68,69
 272 448 272 448 320 448 c 0,70,71
 336 448 336 448 384 448 c 0,72,73
 400 448 400 448 448 448 c 1,74,75
 448 432 448 432 448 384 c 0,76,77
 448 368 448 368 448 320 c 1,78,79
 432 320 432 320 384 320 c 1,56,57
EndSplineSet
EndChar

StartChar: braceleft
Encoding: 123 123 94
Width: 384
Flags: W
LayerCount: 2
Fore
SplineSet
256 -64 m 0,0,1
 272 -64 272 -64 320 -64 c 1,2,3
 320 -80 320 -80 320 -128 c 1,4,5
 304 -128 304 -128 256 -128 c 0,6,7
 240 -128 240 -128 192 -128 c 1,8,9
 192 -112 192 -112 192 -64 c 1,10,11
 208 -64 208 -64 256 -64 c 0,0,1
192 -64 m 1,12,13
 176 -64 176 -64 128 -64 c 1,14,15
 128 -48 128 -48 128 0 c 0,16,17
 128 16 128 16 128 64 c 0,18,19
 128 80 128 80 128 128 c 0,20,21
 128 144 128 144 128 192 c 1,22,23
 144 192 144 192 192 192 c 1,24,25
 192 176 192 176 192 128 c 0,26,27
 192 112 192 112 192 64 c 0,28,29
 192 48 192 48 192 0 c 0,30,31
 192 -16 192 -16 192 -64 c 1,12,13
128 192 m 1,32,33
 112 192 112 192 64 192 c 1,34,35
 64 208 64 208 64 256 c 1,36,37
 80 256 80 256 128 256 c 1,38,39
 128 240 128 240 128 192 c 1,32,33
64 256 m 1,40,41
 48 256 48 256 0 256 c 1,42,43
 0 272 0 272 0 320 c 0,44,45
 0 336 0 336 0 384 c 1,46,47
 16 384 16 384 64 384 c 1,48,49
 64 368 64 368 64 320 c 0,50,51
 64 304 64 304 64 256 c 1,40,41
64 384 m 1,52,53
 64 400 64 400 64 448 c 1,54,55
 80 448 80 448 128 448 c 1,56,57
 128 432 128 432 128 384 c 1,58,59
 112 384 112 384 64 384 c 1,52,53
128 448 m 1,60,61
 128 464 128 464 128 512 c 0,62,63
 128 528 128 528 128 576 c 0,64,65
 128 592 128 592 128 640 c 1,66,67
 112 640 112 640 64 640 c 1,68,69
 64 656 64 656 64 704 c 1,70,71
 80 704 80 704 128 704 c 0,72,73
 144 704 144 704 192 704 c 1,74,75
 192 688 192 688 192 640 c 0,76,77
 192 624 192 624 192 576 c 0,78,79
 192 560 192 560 192 512 c 0,80,81
 192 496 192 496 192 448 c 1,82,83
 176 448 176 448 128 448 c 1,60,61
256 768 m 0,84,85
 272 768 272 768 320 768 c 1,86,87
 320 752 320 752 320 704 c 1,88,89
 304 704 304 704 256 704 c 0,90,91
 240 704 240 704 192 704 c 1,92,93
 192 720 192 720 192 768 c 1,94,95
 208 768 208 768 256 768 c 0,84,85
EndSplineSet
EndChar

StartChar: bar
Encoding: 124 124 95
Width: 256
Flags: W
LayerCount: 2
Fore
SplineSet
128 -256 m 1,0,1
 128 -240 128 -240 128 -192 c 0,2,3
 128 -176 128 -176 128 -128 c 0,4,5
 128 -112 128 -112 128 -64 c 0,6,7
 128 -48 128 -48 128 0 c 0,8,9
 128 16 128 16 128 64 c 0,10,11
 128 80 128 80 128 128 c 0,12,13
 128 144 128 144 128 192 c 0,14,15
 128 208 128 208 128 256 c 0,16,17
 128 272 128 272 128 320 c 0,18,19
 128 336 128 336 128 384 c 0,20,21
 128 400 128 400 128 448 c 0,22,23
 128 464 128 464 128 512 c 0,24,25
 128 528 128 528 128 576 c 0,26,27
 128 592 128 592 128 640 c 1,28,29
 112 640 112 640 64 640 c 1,30,31
 64 656 64 656 64 704 c 1,32,33
 80 704 80 704 128 704 c 1,34,35
 128 720 128 720 128 768 c 1,36,37
 144 768 144 768 192 768 c 1,38,39
 192 752 192 752 192 704 c 0,40,41
 192 688 192 688 192 640 c 0,42,43
 192 624 192 624 192 576 c 0,44,45
 192 560 192 560 192 512 c 0,46,47
 192 496 192 496 192 448 c 0,48,49
 192 432 192 432 192 384 c 0,50,51
 192 368 192 368 192 320 c 0,52,53
 192 304 192 304 192 256 c 0,54,55
 192 240 192 240 192 192 c 0,56,57
 192 176 192 176 192 128 c 0,58,59
 192 112 192 112 192 64 c 0,60,61
 192 48 192 48 192 0 c 0,62,63
 192 -16 192 -16 192 -64 c 0,64,65
 192 -80 192 -80 192 -128 c 0,66,67
 192 -144 192 -144 192 -192 c 0,68,69
 192 -208 192 -208 192 -256 c 1,70,71
 176 -256 176 -256 128 -256 c 1,0,1
EndSplineSet
EndChar

StartChar: braceright
Encoding: 125 125 96
Width: 448
Flags: W
LayerCount: 2
Fore
SplineSet
128 -64 m 0,0,1
 144 -64 144 -64 192 -64 c 1,2,3
 192 -80 192 -80 192 -128 c 1,4,5
 176 -128 176 -128 128 -128 c 0,6,7
 112 -128 112 -128 64 -128 c 1,8,9
 64 -112 64 -112 64 -64 c 1,10,11
 80 -64 80 -64 128 -64 c 0,0,1
192 -64 m 1,12,13
 192 -48 192 -48 192 0 c 0,14,15
 192 16 192 16 192 64 c 0,16,17
 192 80 192 80 192 128 c 0,18,19
 192 144 192 144 192 192 c 1,20,21
 208 192 208 192 256 192 c 1,22,23
 256 176 256 176 256 128 c 0,24,25
 256 112 256 112 256 64 c 0,26,27
 256 48 256 48 256 0 c 0,28,29
 256 -16 256 -16 256 -64 c 1,30,31
 240 -64 240 -64 192 -64 c 1,12,13
256 192 m 1,32,33
 256 208 256 208 256 256 c 1,34,35
 272 256 272 256 320 256 c 1,36,37
 320 240 320 240 320 192 c 1,38,39
 304 192 304 192 256 192 c 1,32,33
320 256 m 1,40,41
 320 272 320 272 320 320 c 0,42,43
 320 336 320 336 320 384 c 1,44,45
 336 384 336 384 384 384 c 1,46,47
 384 368 384 368 384 320 c 0,48,49
 384 304 384 304 384 256 c 1,50,51
 368 256 368 256 320 256 c 1,40,41
320 384 m 1,52,53
 304 384 304 384 256 384 c 1,54,55
 256 400 256 400 256 448 c 1,56,57
 272 448 272 448 320 448 c 1,58,59
 320 432 320 432 320 384 c 1,52,53
256 448 m 1,60,61
 240 448 240 448 192 448 c 1,62,63
 192 464 192 464 192 512 c 0,64,65
 192 528 192 528 192 576 c 0,66,67
 192 592 192 592 192 640 c 0,68,69
 192 656 192 656 192 704 c 1,70,71
 208 704 208 704 256 704 c 1,72,73
 256 688 256 688 256 640 c 0,74,75
 256 624 256 624 256 576 c 0,76,77
 256 560 256 560 256 512 c 0,78,79
 256 496 256 496 256 448 c 1,60,61
192 704 m 1,80,81
 176 704 176 704 128 704 c 0,82,83
 112 704 112 704 64 704 c 1,84,85
 64 720 64 720 64 768 c 1,86,87
 80 768 80 768 128 768 c 0,88,89
 144 768 144 768 192 768 c 1,90,91
 192 752 192 752 192 704 c 1,80,81
EndSplineSet
EndChar

StartChar: asciitilde
Encoding: 126 126 97
Width: 576
Flags: W
LayerCount: 2
Fore
SplineSet
64 320 m 1,0,1
 64 336 64 336 64 384 c 1,2,3
 80 384 80 384 128 384 c 1,4,5
 128 368 128 368 128 320 c 1,6,7
 112 320 112 320 64 320 c 1,0,1
384 320 m 0,8,9
 400 320 400 320 448 320 c 1,10,11
 448 304 448 304 448 256 c 1,12,13
 432 256 432 256 384 256 c 0,14,15
 368 256 368 256 320 256 c 1,16,17
 320 272 320 272 320 320 c 1,18,19
 336 320 336 320 384 320 c 0,8,9
448 320 m 1,20,21
 448 336 448 336 448 384 c 1,22,23
 464 384 464 384 512 384 c 1,24,25
 512 368 512 368 512 320 c 1,26,27
 496 320 496 320 448 320 c 1,20,21
320 320 m 1,28,29
 304 320 304 320 256 320 c 1,30,31
 256 336 256 336 256 384 c 1,32,33
 272 384 272 384 320 384 c 1,34,35
 320 368 320 368 320 320 c 1,28,29
256 384 m 1,36,37
 240 384 240 384 192 384 c 0,38,39
 176 384 176 384 128 384 c 1,40,41
 128 400 128 400 128 448 c 1,42,43
 144 448 144 448 192 448 c 0,44,45
 208 448 208 448 256 448 c 1,46,47
 256 432 256 432 256 384 c 1,36,37
EndSplineSet
EndChar

StartChar: exclamdown
Encoding: 161 161 99
Width: 320
Flags: W
LayerCount: 2
Fore
SplineSet
192 -192 m 1,0,1
 192 -176 192 -176 192 -128 c 0,2,3
 192 -112 192 -112 192 -64 c 0,4,5
 192 -48 192 -48 192 0 c 0,6,7
 192 16 192 16 192 64 c 0,8,9
 192 80 192 80 192 128 c 0,10,11
 192 144 192 144 192 192 c 0,12,13
 192 208 192 208 192 256 c 1,14,15
 176 256 176 256 128 256 c 1,16,17
 128 272 128 272 128 320 c 1,18,19
 144 320 144 320 192 320 c 1,20,21
 192 336 192 336 192 384 c 1,22,23
 208 384 208 384 256 384 c 1,24,25
 256 368 256 368 256 320 c 0,26,27
 256 304 256 304 256 256 c 0,28,29
 256 240 256 240 256 192 c 0,30,31
 256 176 256 176 256 128 c 0,32,33
 256 112 256 112 256 64 c 0,34,35
 256 48 256 48 256 0 c 0,36,37
 256 -16 256 -16 256 -64 c 0,38,39
 256 -80 256 -80 256 -128 c 0,40,41
 256 -144 256 -144 256 -192 c 1,42,43
 240 -192 240 -192 192 -192 c 1,0,1
192 448 m 1,44,45
 192 464 192 464 192 512 c 0,46,47
 192 528 192 528 192 576 c 1,48,49
 208 576 208 576 256 576 c 1,50,51
 256 560 256 560 256 512 c 0,52,53
 256 496 256 496 256 448 c 1,54,55
 240 448 240 448 192 448 c 1,44,45
EndSplineSet
EndChar

StartChar: cent
Encoding: 162 162 100
Width: 512
Flags: W
LayerCount: 2
Fore
SplineSet
256 0 m 1,0,1
 256 16 256 16 256 64 c 1,2,3
 240 64 240 64 192 64 c 1,4,5
 192 80 192 80 192 128 c 1,6,7
 176 128 176 128 128 128 c 1,8,9
 128 144 128 144 128 192 c 0,10,11
 128 208 128 208 128 256 c 0,12,13
 128 272 128 272 128 320 c 1,14,15
 112 320 112 320 64 320 c 1,16,17
 64 336 64 336 64 384 c 1,18,19
 80 384 80 384 128 384 c 1,20,21
 128 400 128 400 128 448 c 1,22,23
 144 448 144 448 192 448 c 1,24,25
 192 464 192 464 192 512 c 1,26,27
 208 512 208 512 256 512 c 1,28,29
 256 528 256 528 256 576 c 1,30,31
 272 576 272 576 320 576 c 1,32,33
 320 560 320 560 320 512 c 1,34,35
 336 512 336 512 384 512 c 1,36,37
 384 496 384 496 384 448 c 1,38,39
 400 448 400 448 448 448 c 1,40,41
 448 432 448 432 448 384 c 1,42,43
 432 384 432 384 384 384 c 1,44,45
 384 400 384 400 384 448 c 1,46,47
 368 448 368 448 320 448 c 1,48,49
 320 432 320 432 320 384 c 0,50,51
 320 368 320 368 320 320 c 0,52,53
 320 304 320 304 320 256 c 0,54,55
 320 240 320 240 320 192 c 0,56,57
 320 176 320 176 320 128 c 1,58,59
 336 128 336 128 384 128 c 1,60,61
 384 112 384 112 384 64 c 1,62,63
 368 64 368 64 320 64 c 1,64,65
 320 48 320 48 320 0 c 1,66,67
 304 0 304 0 256 0 c 1,0,1
384 128 m 1,68,69
 384 144 384 144 384 192 c 1,70,71
 400 192 400 192 448 192 c 1,72,73
 448 176 448 176 448 128 c 1,74,75
 432 128 432 128 384 128 c 1,68,69
256 128 m 1,76,77
 256 144 256 144 256 192 c 0,78,79
 256 208 256 208 256 256 c 0,80,81
 256 272 256 272 256 320 c 0,82,83
 256 336 256 336 256 384 c 0,84,85
 256 400 256 400 256 448 c 1,86,87
 240 448 240 448 192 448 c 1,88,89
 192 432 192 432 192 384 c 0,90,91
 192 368 192 368 192 320 c 0,92,93
 192 304 192 304 192 256 c 0,94,95
 192 240 192 240 192 192 c 0,96,97
 192 176 192 176 192 128 c 1,98,99
 208 128 208 128 256 128 c 1,76,77
EndSplineSet
EndChar

StartChar: sterling
Encoding: 163 163 101
Width: 512
Flags: W
LayerCount: 2
Fore
SplineSet
384 512 m 1,0,1
 384 528 384 528 384 576 c 1,2,3
 400 576 400 576 448 576 c 1,4,5
 448 560 448 560 448 512 c 1,6,7
 432 512 432 512 384 512 c 1,0,1
384 64 m 0,8,9
 400 64 400 64 448 64 c 1,10,11
 448 48 448 48 448 0 c 1,12,13
 432 0 432 0 384 0 c 0,14,15
 368 0 368 0 320 0 c 0,16,17
 304 0 304 0 256 0 c 0,18,19
 240 0 240 0 192 0 c 0,20,21
 176 0 176 0 128 0 c 1,22,23
 128 16 128 16 128 64 c 1,24,25
 144 64 144 64 192 64 c 1,26,27
 192 80 192 80 192 128 c 0,28,29
 192 144 192 144 192 192 c 1,30,31
 208 192 208 192 256 192 c 1,32,33
 256 176 256 176 256 128 c 0,34,35
 256 112 256 112 256 64 c 1,36,37
 272 64 272 64 320 64 c 0,38,39
 336 64 336 64 384 64 c 0,8,9
256 192 m 1,40,41
 256 208 256 208 256 256 c 1,42,43
 240 256 240 256 192 256 c 1,44,45
 192 272 192 272 192 320 c 1,46,47
 208 320 208 320 256 320 c 1,48,49
 256 336 256 336 256 384 c 1,50,51
 272 384 272 384 320 384 c 1,52,53
 320 368 320 368 320 320 c 1,54,55
 336 320 336 320 384 320 c 1,56,57
 384 304 384 304 384 256 c 1,58,59
 368 256 368 256 320 256 c 1,60,61
 320 240 320 240 320 192 c 1,62,63
 304 192 304 192 256 192 c 1,40,41
256 384 m 1,64,65
 240 384 240 384 192 384 c 1,66,67
 192 400 192 400 192 448 c 1,68,69
 176 448 176 448 128 448 c 1,70,71
 128 464 128 464 128 512 c 1,72,73
 144 512 144 512 192 512 c 1,74,75
 192 528 192 528 192 576 c 1,76,77
 208 576 208 576 256 576 c 1,78,79
 256 560 256 560 256 512 c 0,80,81
 256 496 256 496 256 448 c 0,82,83
 256 432 256 432 256 384 c 1,64,65
384 576 m 1,84,85
 368 576 368 576 320 576 c 0,86,87
 304 576 304 576 256 576 c 1,88,89
 256 592 256 592 256 640 c 1,90,91
 272 640 272 640 320 640 c 0,92,93
 336 640 336 640 384 640 c 1,94,95
 384 624 384 624 384 576 c 1,84,85
EndSplineSet
EndChar

StartChar: currency
Encoding: 164 164 102
Width: 512
Flags: W
LayerCount: 2
Fore
SplineSet
384 192 m 1,0,1
 384 208 384 208 384 256 c 1,2,3
 400 256 400 256 448 256 c 1,4,5
 448 240 448 240 448 192 c 1,6,7
 432 192 432 192 384 192 c 1,0,1
128 192 m 1,8,9
 128 208 128 208 128 256 c 1,10,11
 144 256 144 256 192 256 c 1,12,13
 192 240 192 240 192 192 c 1,14,15
 176 192 176 192 128 192 c 1,8,9
384 256 m 1,16,17
 368 256 368 256 320 256 c 0,18,19
 304 256 304 256 256 256 c 0,20,21
 240 256 240 256 192 256 c 1,22,23
 192 272 192 272 192 320 c 0,24,25
 192 336 192 336 192 384 c 0,26,27
 192 400 192 400 192 448 c 1,28,29
 208 448 208 448 256 448 c 0,30,31
 272 448 272 448 320 448 c 0,32,33
 336 448 336 448 384 448 c 1,34,35
 384 432 384 432 384 384 c 0,36,37
 384 368 384 368 384 320 c 0,38,39
 384 304 384 304 384 256 c 1,16,17
320 320 m 1,40,41
 320 336 320 336 320 384 c 1,42,43
 304 384 304 384 256 384 c 1,44,45
 256 368 256 368 256 320 c 1,46,47
 272 320 272 320 320 320 c 1,40,41
384 448 m 1,48,49
 384 464 384 464 384 512 c 1,50,51
 400 512 400 512 448 512 c 1,52,53
 448 496 448 496 448 448 c 1,54,55
 432 448 432 448 384 448 c 1,48,49
192 448 m 1,56,57
 176 448 176 448 128 448 c 1,58,59
 128 464 128 464 128 512 c 1,60,61
 144 512 144 512 192 512 c 1,62,63
 192 496 192 496 192 448 c 1,56,57
EndSplineSet
EndChar

StartChar: yen
Encoding: 165 165 103
Width: 512
Flags: W
LayerCount: 2
Fore
SplineSet
256 0 m 1,0,1
 256 16 256 16 256 64 c 0,2,3
 256 80 256 80 256 128 c 1,4,5
 240 128 240 128 192 128 c 1,6,7
 192 144 192 144 192 192 c 1,8,9
 208 192 208 192 256 192 c 1,10,11
 256 208 256 208 256 256 c 1,12,13
 240 256 240 256 192 256 c 1,14,15
 192 272 192 272 192 320 c 1,16,17
 208 320 208 320 256 320 c 1,18,19
 256 336 256 336 256 384 c 0,20,21
 256 400 256 400 256 448 c 1,22,23
 272 448 272 448 320 448 c 1,24,25
 320 432 320 432 320 384 c 0,26,27
 320 368 320 368 320 320 c 1,28,29
 336 320 336 320 384 320 c 1,30,31
 384 304 384 304 384 256 c 1,32,33
 368 256 368 256 320 256 c 1,34,35
 320 240 320 240 320 192 c 1,36,37
 336 192 336 192 384 192 c 1,38,39
 384 176 384 176 384 128 c 1,40,41
 368 128 368 128 320 128 c 1,42,43
 320 112 320 112 320 64 c 0,44,45
 320 48 320 48 320 0 c 1,46,47
 304 0 304 0 256 0 c 1,0,1
320 448 m 1,48,49
 320 464 320 464 320 512 c 1,50,51
 336 512 336 512 384 512 c 1,52,53
 384 496 384 496 384 448 c 1,54,55
 368 448 368 448 320 448 c 1,48,49
256 448 m 1,56,57
 240 448 240 448 192 448 c 1,58,59
 192 464 192 464 192 512 c 1,60,61
 208 512 208 512 256 512 c 1,62,63
 256 496 256 496 256 448 c 1,56,57
384 512 m 1,64,65
 384 528 384 528 384 576 c 0,66,67
 384 592 384 592 384 640 c 1,68,69
 368 640 368 640 320 640 c 1,70,71
 320 656 320 656 320 704 c 1,72,73
 336 704 336 704 384 704 c 1,74,75
 384 720 384 720 384 768 c 1,76,77
 400 768 400 768 448 768 c 1,78,79
 448 752 448 752 448 704 c 0,80,81
 448 688 448 688 448 640 c 0,82,83
 448 624 448 624 448 576 c 0,84,85
 448 560 448 560 448 512 c 1,86,87
 432 512 432 512 384 512 c 1,64,65
192 512 m 1,88,89
 176 512 176 512 128 512 c 1,90,91
 128 528 128 528 128 576 c 0,92,93
 128 592 128 592 128 640 c 1,94,95
 112 640 112 640 64 640 c 1,96,97
 64 656 64 656 64 704 c 1,98,99
 80 704 80 704 128 704 c 1,100,101
 128 720 128 720 128 768 c 1,102,103
 144 768 144 768 192 768 c 1,104,105
 192 752 192 752 192 704 c 0,106,107
 192 688 192 688 192 640 c 0,108,109
 192 624 192 624 192 576 c 0,110,111
 192 560 192 560 192 512 c 1,88,89
EndSplineSet
EndChar

StartChar: dieresis
Encoding: 168 168 104
Width: 896
Flags: W
LayerCount: 2
Fore
SplineSet
512 128 m 1,0,1
 512 144 512 144 512 192 c 0,2,3
 512 208 512 208 512 256 c 1,4,5
 528 256 528 256 576 256 c 1,6,7
 576 240 576 240 576 192 c 0,8,9
 576 176 576 176 576 128 c 1,10,11
 560 128 560 128 512 128 c 1,0,1
320 128 m 1,12,13
 320 144 320 144 320 192 c 0,14,15
 320 208 320 208 320 256 c 1,16,17
 336 256 336 256 384 256 c 1,18,19
 384 240 384 240 384 192 c 0,20,21
 384 176 384 176 384 128 c 1,22,23
 368 128 368 128 320 128 c 1,12,13
256 512 m 1,24,25
 256 528 256 528 256 576 c 1,26,27
 272 576 272 576 320 576 c 1,28,29
 320 560 320 560 320 512 c 1,30,31
 304 512 304 512 256 512 c 1,24,25
512 -64 m 0,32,33
 528 -64 528 -64 576 -64 c 1,34,35
 576 -80 576 -80 576 -128 c 1,36,37
 560 -128 560 -128 512 -128 c 0,38,39
 496 -128 496 -128 448 -128 c 0,40,41
 432 -128 432 -128 384 -128 c 0,42,43
 368 -128 368 -128 320 -128 c 0,44,45
 304 -128 304 -128 256 -128 c 0,46,47
 240 -128 240 -128 192 -128 c 1,48,49
 192 -112 192 -112 192 -64 c 1,50,51
 208 -64 208 -64 256 -64 c 0,52,53
 272 -64 272 -64 320 -64 c 0,54,55
 336 -64 336 -64 384 -64 c 0,56,57
 400 -64 400 -64 448 -64 c 0,58,59
 464 -64 464 -64 512 -64 c 0,32,33
576 -64 m 1,60,61
 576 -48 576 -48 576 0 c 1,62,63
 592 0 592 0 640 0 c 1,64,65
 640 -16 640 -16 640 -64 c 1,66,67
 624 -64 624 -64 576 -64 c 1,60,61
192 -64 m 1,68,69
 176 -64 176 -64 128 -64 c 1,70,71
 128 -48 128 -48 128 0 c 1,72,73
 144 0 144 0 192 0 c 1,74,75
 192 -16 192 -16 192 -64 c 1,68,69
640 0 m 1,76,77
 640 16 640 16 640 64 c 0,78,79
 640 80 640 80 640 128 c 0,80,81
 640 144 640 144 640 192 c 0,82,83
 640 208 640 208 640 256 c 0,84,85
 640 272 640 272 640 320 c 1,86,87
 624 320 624 320 576 320 c 0,88,89
 560 320 560 320 512 320 c 0,90,91
 496 320 496 320 448 320 c 0,92,93
 432 320 432 320 384 320 c 0,94,95
 368 320 368 320 320 320 c 0,96,97
 304 320 304 320 256 320 c 1,98,99
 256 304 256 304 256 256 c 1,100,101
 240 256 240 256 192 256 c 1,102,103
 192 240 192 240 192 192 c 0,104,105
 192 176 192 176 192 128 c 1,106,107
 176 128 176 128 128 128 c 1,108,109
 128 112 128 112 128 64 c 0,110,111
 128 48 128 48 128 0 c 1,112,113
 112 0 112 0 64 0 c 1,114,115
 64 16 64 16 64 64 c 0,116,117
 64 80 64 80 64 128 c 0,118,119
 64 144 64 144 64 192 c 0,120,121
 64 208 64 208 64 256 c 0,122,123
 64 272 64 272 64 320 c 1,124,125
 48 320 48 320 0 320 c 0,126,127
 -16 320 -16 320 -64 320 c 1,128,129
 -64 336 -64 336 -64 384 c 1,130,131
 -48 384 -48 384 0 384 c 0,132,133
 16 384 16 384 64 384 c 1,134,135
 64 400 64 400 64 448 c 0,136,137
 64 464 64 464 64 512 c 0,138,139
 64 528 64 528 64 576 c 1,140,141
 80 576 80 576 128 576 c 1,142,143
 128 560 128 560 128 512 c 0,144,145
 128 496 128 496 128 448 c 0,146,147
 128 432 128 432 128 384 c 1,148,149
 144 384 144 384 192 384 c 0,150,151
 208 384 208 384 256 384 c 0,152,153
 272 384 272 384 320 384 c 0,154,155
 336 384 336 384 384 384 c 0,156,157
 400 384 400 384 448 384 c 0,158,159
 464 384 464 384 512 384 c 0,160,161
 528 384 528 384 576 384 c 0,162,163
 592 384 592 384 640 384 c 1,164,165
 640 400 640 400 640 448 c 0,166,167
 640 464 640 464 640 512 c 0,168,169
 640 528 640 528 640 576 c 1,170,171
 656 576 656 576 704 576 c 1,172,173
 704 560 704 560 704 512 c 0,174,175
 704 496 704 496 704 448 c 0,176,177
 704 432 704 432 704 384 c 1,178,179
 720 384 720 384 768 384 c 0,180,181
 784 384 784 384 832 384 c 1,182,183
 832 368 832 368 832 320 c 1,184,185
 816 320 816 320 768 320 c 0,186,187
 752 320 752 320 704 320 c 1,188,189
 704 304 704 304 704 256 c 0,190,191
 704 240 704 240 704 192 c 0,192,193
 704 176 704 176 704 128 c 0,194,195
 704 112 704 112 704 64 c 0,196,197
 704 48 704 48 704 0 c 1,198,199
 688 0 688 0 640 0 c 1,76,77
448 64 m 0,200,201
 464 64 464 64 512 64 c 1,202,203
 512 48 512 48 512 0 c 1,204,205
 496 0 496 0 448 0 c 0,206,207
 432 0 432 0 384 0 c 1,208,209
 384 16 384 16 384 64 c 1,210,211
 400 64 400 64 448 64 c 0,200,201
640 576 m 1,212,213
 624 576 624 576 576 576 c 0,214,215
 560 576 560 576 512 576 c 0,216,217
 496 576 496 576 448 576 c 0,218,219
 432 576 432 576 384 576 c 0,220,221
 368 576 368 576 320 576 c 1,222,223
 320 592 320 592 320 640 c 1,224,225
 336 640 336 640 384 640 c 0,226,227
 400 640 400 640 448 640 c 0,228,229
 464 640 464 640 512 640 c 0,230,231
 528 640 528 640 576 640 c 0,232,233
 592 640 592 640 640 640 c 1,234,235
 640 624 640 624 640 576 c 1,212,213
256 576 m 1,236,237
 240 576 240 576 192 576 c 0,238,239
 176 576 176 576 128 576 c 1,240,241
 128 592 128 592 128 640 c 1,242,243
 144 640 144 640 192 640 c 0,244,245
 208 640 208 640 256 640 c 1,246,247
 256 624 256 624 256 576 c 1,236,237
EndSplineSet
EndChar

StartChar: copyright
Encoding: 169 169 105
Width: 832
Flags: W
LayerCount: 2
Fore
SplineSet
512 64 m 0,0,1
 528 64 528 64 576 64 c 1,2,3
 576 48 576 48 576 0 c 1,4,5
 560 0 560 0 512 0 c 0,6,7
 496 0 496 0 448 0 c 0,8,9
 432 0 432 0 384 0 c 0,10,11
 368 0 368 0 320 0 c 0,12,13
 304 0 304 0 256 0 c 1,14,15
 256 16 256 16 256 64 c 1,16,17
 272 64 272 64 320 64 c 0,18,19
 336 64 336 64 384 64 c 0,20,21
 400 64 400 64 448 64 c 0,22,23
 464 64 464 64 512 64 c 0,0,1
576 64 m 1,24,25
 576 80 576 80 576 128 c 1,26,27
 592 128 592 128 640 128 c 1,28,29
 640 112 640 112 640 64 c 1,30,31
 624 64 624 64 576 64 c 1,24,25
256 64 m 1,32,33
 240 64 240 64 192 64 c 1,34,35
 192 80 192 80 192 128 c 1,36,37
 208 128 208 128 256 128 c 1,38,39
 256 112 256 112 256 64 c 1,32,33
640 128 m 1,40,41
 640 144 640 144 640 192 c 1,42,43
 656 192 656 192 704 192 c 1,44,45
 704 176 704 176 704 128 c 1,46,47
 688 128 688 128 640 128 c 1,40,41
192 128 m 1,48,49
 176 128 176 128 128 128 c 1,50,51
 128 144 128 144 128 192 c 1,52,53
 144 192 144 192 192 192 c 1,54,55
 192 176 192 176 192 128 c 1,48,49
704 192 m 1,56,57
 704 208 704 208 704 256 c 0,58,59
 704 272 704 272 704 320 c 0,60,61
 704 336 704 336 704 384 c 0,62,63
 704 400 704 400 704 448 c 1,64,65
 720 448 720 448 768 448 c 1,66,67
 768 432 768 432 768 384 c 0,68,69
 768 368 768 368 768 320 c 0,70,71
 768 304 768 304 768 256 c 0,72,73
 768 240 768 240 768 192 c 1,74,75
 752 192 752 192 704 192 c 1,56,57
448 256 m 0,76,77
 464 256 464 256 512 256 c 1,78,79
 512 240 512 240 512 192 c 1,80,81
 496 192 496 192 448 192 c 0,82,83
 432 192 432 192 384 192 c 0,84,85
 368 192 368 192 320 192 c 1,86,87
 320 208 320 208 320 256 c 1,88,89
 336 256 336 256 384 256 c 0,90,91
 400 256 400 256 448 256 c 0,76,77
128 192 m 1,92,93
 112 192 112 192 64 192 c 1,94,95
 64 208 64 208 64 256 c 0,96,97
 64 272 64 272 64 320 c 0,98,99
 64 336 64 336 64 384 c 0,100,101
 64 400 64 400 64 448 c 1,102,103
 80 448 80 448 128 448 c 1,104,105
 128 432 128 432 128 384 c 0,106,107
 128 368 128 368 128 320 c 0,108,109
 128 304 128 304 128 256 c 0,110,111
 128 240 128 240 128 192 c 1,92,93
320 256 m 1,112,113
 304 256 304 256 256 256 c 1,114,115
 256 272 256 272 256 320 c 0,116,117
 256 336 256 336 256 384 c 1,118,119
 272 384 272 384 320 384 c 1,120,121
 320 368 320 368 320 320 c 0,122,123
 320 304 320 304 320 256 c 1,112,113
448 448 m 0,124,125
 464 448 464 448 512 448 c 1,126,127
 512 432 512 432 512 384 c 1,128,129
 496 384 496 384 448 384 c 0,130,131
 432 384 432 384 384 384 c 0,132,133
 368 384 368 384 320 384 c 1,134,135
 320 400 320 400 320 448 c 1,136,137
 336 448 336 448 384 448 c 0,138,139
 400 448 400 448 448 448 c 0,124,125
704 448 m 1,140,141
 688 448 688 448 640 448 c 1,142,143
 640 464 640 464 640 512 c 1,144,145
 656 512 656 512 704 512 c 1,146,147
 704 496 704 496 704 448 c 1,140,141
128 448 m 1,148,149
 128 464 128 464 128 512 c 1,150,151
 144 512 144 512 192 512 c 1,152,153
 192 496 192 496 192 448 c 1,154,155
 176 448 176 448 128 448 c 1,148,149
640 512 m 1,156,157
 624 512 624 512 576 512 c 1,158,159
 576 528 576 528 576 576 c 1,160,161
 592 576 592 576 640 576 c 1,162,163
 640 560 640 560 640 512 c 1,156,157
192 512 m 1,164,165
 192 528 192 528 192 576 c 1,166,167
 208 576 208 576 256 576 c 1,168,169
 256 560 256 560 256 512 c 1,170,171
 240 512 240 512 192 512 c 1,164,165
576 576 m 1,172,173
 560 576 560 576 512 576 c 0,174,175
 496 576 496 576 448 576 c 0,176,177
 432 576 432 576 384 576 c 0,178,179
 368 576 368 576 320 576 c 0,180,181
 304 576 304 576 256 576 c 1,182,183
 256 592 256 592 256 640 c 1,184,185
 272 640 272 640 320 640 c 0,186,187
 336 640 336 640 384 640 c 0,188,189
 400 640 400 640 448 640 c 0,190,191
 464 640 464 640 512 640 c 0,192,193
 528 640 528 640 576 640 c 1,194,195
 576 624 576 624 576 576 c 1,172,173
EndSplineSet
EndChar

StartChar: uni0401
Encoding: 1025 1025 106
Width: 448
Flags: W
LayerCount: 2
Fore
SplineSet
320 64 m 0,0,1
 336 64 336 64 384 64 c 1,2,3
 384 48 384 48 384 0 c 1,4,5
 368 0 368 0 320 0 c 0,6,7
 304 0 304 0 256 0 c 0,8,9
 240 0 240 0 192 0 c 0,10,11
 176 0 176 0 128 0 c 0,12,13
 112 0 112 0 64 0 c 1,14,15
 64 16 64 16 64 64 c 1,16,17
 80 64 80 64 128 64 c 1,18,19
 128 80 128 80 128 128 c 0,20,21
 128 144 128 144 128 192 c 0,22,23
 128 208 128 208 128 256 c 0,24,25
 128 272 128 272 128 320 c 0,26,27
 128 336 128 336 128 384 c 0,28,29
 128 400 128 400 128 448 c 0,30,31
 128 464 128 464 128 512 c 0,32,33
 128 528 128 528 128 576 c 0,34,35
 128 592 128 592 128 640 c 1,36,37
 112 640 112 640 64 640 c 1,38,39
 64 656 64 656 64 704 c 1,40,41
 80 704 80 704 128 704 c 1,42,43
 128 720 128 720 128 768 c 1,44,45
 144 768 144 768 192 768 c 0,46,47
 208 768 208 768 256 768 c 0,48,49
 272 768 272 768 320 768 c 0,50,51
 336 768 336 768 384 768 c 1,52,53
 384 752 384 752 384 704 c 1,54,55
 368 704 368 704 320 704 c 0,56,57
 304 704 304 704 256 704 c 0,58,59
 240 704 240 704 192 704 c 1,60,61
 192 688 192 688 192 640 c 0,62,63
 192 624 192 624 192 576 c 0,64,65
 192 560 192 560 192 512 c 0,66,67
 192 496 192 496 192 448 c 1,68,69
 208 448 208 448 256 448 c 0,70,71
 272 448 272 448 320 448 c 1,72,73
 320 448 320 448 320 384 c 1,74,75
 304 384 304 384 256 384 c 0,76,77
 240 384 240 384 192 384 c 1,78,79
 192 368 192 368 192 320 c 0,80,81
 192 304 192 304 192 256 c 0,82,83
 192 240 192 240 192 192 c 0,84,85
 192 176 192 176 192 128 c 0,86,87
 192 112 192 112 192 64 c 1,88,89
 208 64 208 64 256 64 c 0,90,91
 272 64 272 64 320 64 c 0,0,1
128 896 m 1,92,93
 144 896 144 896 192 896 c 1,94,95
 192 880 192 880 192 832 c 1,96,97
 176 832 176 832 128 832 c 1,98,99
 128 848 128 848 128 896 c 1,92,93
256 832 m 1,100,101
 272 832 272 832 320 832 c 1,102,103
 320 832 320 832 320 832 c 1,104,105
 304 832 304 832 256 832 c 1,106,107
 256 832 256 832 256 832 c 1,100,101
256 896 m 1,108,109
 272 896 272 896 320 896 c 1,110,111
 320 880 320 880 320 832 c 1,112,113
 304 832 304 832 256 832 c 1,114,115
 256 848 256 848 256 896 c 1,108,109
EndSplineSet
EndChar

StartChar: uni0410
Encoding: 1040 1040 107
Width: 512
Flags: W
LayerCount: 2
Fore
SplineSet
128 704 m 1,0,1
 192 704 192 704 288 704 c 256,2,3
 384 704 384 704 384 704 c 1,4,5
 326 704 326 704 330 704 c 256,6,7
 334 704 334 704 192 704 c 0,8,9
 178 704 178 704 162 704 c 256,10,11
 146 704 146 704 128 704 c 1,0,1
448 704 m 1,12,13
 432 704 432 704 384 704 c 1,14,15
 384 720 384 720 384 768 c 1,16,17
 384 752 384 752 384 704 c 1,18,19
 400 704 400 704 448 704 c 1,12,13
448 704 m 1,20,21
 432 704 432 704 384 704 c 1,22,23
 384 528 384 528 384 0 c 1,24,25
 400 0 400 0 448 0 c 1,26,27
 448 176 448 176 448 704 c 1,20,21
384 64 m 1,28,29
 368 64 368 64 320 64 c 1,30,31
 320 48 320 48 320 0 c 1,32,33
 336 0 336 0 384 0 c 1,34,35
 384 16 384 16 384 64 c 1,28,29
128 640 m 1,36,37
 112 640 112 640 64 640 c 1,38,39
 64 624 64 624 64 576 c 1,40,41
 80 576 80 576 128 576 c 1,42,43
 128 592 128 592 128 640 c 1,36,37
128 640 m 0,44,45
 128 480 128 480 128 0 c 1,46,47
 144 0 144 0 192 0 c 1,48,49
 192 271 192 271 192 391 c 0,50,51
 192 512 192 512 192 576 c 0,52,53
 192 617 192 617 192 597 c 0,54,55
 192 576 192 576 192 640 c 0,56,57
 192 659 192 659 192 681 c 0,58,59
 192 704 192 704 192 704 c 257,60,61
 192 704 192 704 168 704 c 256,62,63
 144 704 144 704 128 704 c 1,64,65
 128 640 128 640 128 650 c 256,66,67
 128 660 128 660 128 640 c 0,44,45
128 64 m 1,68,69
 112 64 112 64 64 64 c 1,70,71
 64 48 64 48 64 0 c 1,72,73
 80 0 80 0 128 0 c 1,74,75
 128 16 128 16 128 64 c 1,68,69
320 448 m 1,76,77
 288 448 288 448 192 448 c 1,78,79
 192 432 192 432 192 384 c 1,80,81
 224 384 224 384 320 384 c 1,82,83
 320 400 320 400 320 448 c 1,76,77
384 448 m 1,84,85
 368 448 368 448 320 448 c 1,86,87
 320 432 320 432 320 384 c 1,88,89
 336 384 336 384 384 384 c 1,90,91
 384 400 384 400 384 448 c 1,84,85
192 768 m 1,92,93
 224 768 224 768 320 768 c 1,94,95
 320 752 320 752 320 704 c 1,96,97
 288 704 288 704 192 704 c 1,98,99
 192 720 192 720 192 768 c 1,92,93
320 768 m 1,100,101
 320 768 320 768 320 768 c 1,102,103
 320 752 320 752 320 704 c 1,104,105
 320 704 320 704 320 704 c 1,106,107
 320 720 320 720 320 768 c 1,100,101
320 768 m 1,108,109
 336 768 336 768 384 768 c 1,110,111
 384 752 384 752 384 704 c 1,112,113
 368 704 368 704 320 704 c 1,114,115
 320 720 320 720 320 768 c 1,108,109
128 768 m 1,116,117
 144 768 144 768 192 768 c 1,118,119
 192 752 192 752 192 704 c 1,120,121
 176 704 176 704 128 704 c 1,122,123
 128 720 128 720 128 768 c 1,116,117
384 768 m 1,124,125
 400 768 400 768 448 768 c 1,126,127
 448 752 448 752 448 704 c 1,128,129
 432 704 432 704 384 704 c 1,130,131
 384 720 384 720 384 768 c 1,124,125
EndSplineSet
EndChar

StartChar: uni0411
Encoding: 1041 1041 108
Width: 512
Flags: W
LayerCount: 2
Fore
SplineSet
320 768 m 1,0,1
 272 768 272 768 128 768 c 1,2,3
 128 752 128 752 128 704 c 1,4,5
 144 704 144 704 192 704 c 0,6,7
 224 704 224 704 320 704 c 1,8,9
 320 720 320 720 320 768 c 1,0,1
384 768 m 1,10,11
 368 768 368 768 320 768 c 1,12,13
 320 752 320 752 320 704 c 1,14,15
 336 704 336 704 384 704 c 1,16,17
 384 704 384 704 384 704 c 1,18,19
 384 720 384 720 384 768 c 1,10,11
64 704 m 1,20,21
 80 704 80 704 128 704 c 1,22,23
 128 688 128 688 128 640 c 1,24,25
 112 640 112 640 64 640 c 1,26,27
 64 656 64 656 64 704 c 1,20,21
128 704 m 1,28,29
 144 704 144 704 192 704 c 1,30,31
 192 640 192 640 192 448 c 1,32,33
 176 448 176 448 128 448 c 1,34,35
 128 512 128 512 128 704 c 1,28,29
128 448 m 1,36,37
 144 448 144 448 192 448 c 1,38,39
 192 336 192 336 192 0 c 1,40,41
 176 0 176 0 128 0 c 1,42,43
 128 112 128 112 128 448 c 1,36,37
64 64 m 1,44,45
 80 64 80 64 128 64 c 1,46,47
 128 48 128 48 128 0 c 1,48,49
 112 0 112 0 64 0 c 1,50,51
 64 16 64 16 64 64 c 1,44,45
192 448 m 1,52,53
 240 448 240 448 384 448 c 1,54,55
 384 432 384 432 384 384 c 1,56,57
 336 384 336 384 192 384 c 1,58,59
 192 400 192 400 192 448 c 1,52,53
384 384 m 1,60,61
 400 384 400 384 448 384 c 1,62,63
 448 304 448 304 448 64 c 1,64,65
 432 64 432 64 384 64 c 1,66,67
 384 144 384 144 384 384 c 1,60,61
256 64 m 1,68,69
 288 64 288 64 384 64 c 1,70,71
 384 48 384 48 384 0 c 1,72,73
 352 0 352 0 256 0 c 1,74,75
 256 16 256 16 256 64 c 1,68,69
192 64 m 1,76,77
 208 64 208 64 256 64 c 1,78,79
 256 48 256 48 256 0 c 1,80,81
 240 0 240 0 192 0 c 1,82,83
 192 16 192 16 192 64 c 1,76,77
384 768 m 1,84,85
 400 768 400 768 448 768 c 1,86,87
 448 752 448 752 448 704 c 1,88,89
 432 704 432 704 384 704 c 1,90,91
 384 720 384 720 384 768 c 1,84,85
EndSplineSet
EndChar

StartChar: uni0412
Encoding: 1042 1042 109
Width: 512
Flags: W
LayerCount: 2
Fore
SplineSet
128 768 m 1,0,1
 192 768 192 768 384 768 c 1,2,3
 384 752 384 752 384 704 c 1,4,5
 336 704 336 704 192 704 c 0,6,7
 176 704 176 704 128 704 c 1,8,9
 128 720 128 720 128 768 c 1,0,1
384 704 m 1,10,11
 400 704 400 704 448 704 c 1,12,13
 448 640 448 640 448 448 c 1,14,15
 432 448 432 448 384 448 c 1,16,17
 384 512 384 512 384 704 c 1,10,11
384 448 m 1,18,19
 336 448 336 448 192 448 c 1,20,21
 192 432 192 432 192 384 c 1,22,23
 240 384 240 384 384 384 c 1,24,25
 384 400 384 400 384 448 c 1,18,19
64 704 m 1,26,27
 80 704 80 704 128 704 c 1,28,29
 128 688 128 688 128 640 c 1,30,31
 112 640 112 640 64 640 c 1,32,33
 64 656 64 656 64 704 c 1,26,27
128 704 m 1,34,35
 144 704 144 704 192 704 c 1,36,37
 192 528 192 528 192 0 c 1,38,39
 176 0 176 0 128 0 c 1,40,41
 128 176 128 176 128 704 c 1,34,35
64 64 m 1,42,43
 144 64 144 64 384 64 c 1,44,45
 384 48 384 48 384 0 c 1,46,47
 304 0 304 0 64 0 c 1,48,49
 64 16 64 16 64 64 c 1,42,43
384 384 m 1,50,51
 400 384 400 384 448 384 c 1,52,53
 448 304 448 304 448 64 c 1,54,55
 432 64 432 64 384 64 c 1,56,57
 384 144 384 144 384 384 c 1,50,51
384 64 m 1,58,59
 400 64 400 64 448 64 c 1,60,61
 384 64 384 64 384 64 c 257,62,63
 384 64 384 64 384 0 c 1,64,65
 384 21 384 21 384 64 c 1,58,59
EndSplineSet
EndChar

StartChar: uni0413
Encoding: 1043 1043 110
Width: 512
Flags: W
LayerCount: 2
Fore
SplineSet
128 704 m 1,0,1
 144 704 144 704 192 704 c 1,2,3
 192 528 192 528 192 0 c 1,4,5
 176 0 176 0 128 0 c 1,6,7
 128 176 128 176 128 704 c 1,0,1
64 704 m 1,8,9
 80 704 80 704 128 704 c 1,10,11
 128 688 128 688 128 640 c 1,12,13
 112 640 112 640 64 640 c 1,14,15
 64 656 64 656 64 704 c 1,8,9
128 768 m 1,16,17
 208 768 208 768 448 768 c 1,18,19
 448 752 448 752 448 704 c 1,20,21
 384 704 384 704 192 704 c 0,22,23
 176 704 176 704 128 704 c 1,24,25
 128 720 128 720 128 768 c 1,16,17
320 704 m 1,26,27
 336 704 336 704 384 704 c 1,28,29
 384 688 384 688 384 640 c 1,30,31
 368 640 368 640 320 640 c 1,32,33
 320 656 320 656 320 704 c 1,26,27
EndSplineSet
EndChar

StartChar: uni0414
Encoding: 1044 1044 111
Width: 576
Flags: W
LayerCount: 2
Fore
SplineSet
192 768 m 1,0,1
 256 768 256 768 448 768 c 1,2,3
 448 752 448 752 448 704 c 1,4,5
 384 704 384 704 192 704 c 1,6,7
 192 720 192 720 192 768 c 1,0,1
384 512 m 1,8,9
 384 576 384 576 384 544 c 256,10,11
 384 512 384 512 384 512 c 257,12,13
 384 512 384 512 384 512 c 1,8,9
128 640 m 1,14,15
 144 640 144 640 192 640 c 1,16,17
 192 608 192 608 192 512 c 1,18,19
 176 512 176 512 128 512 c 1,20,21
 128 544 128 544 128 640 c 1,14,15
128 640 m 1,22,23
 144 640 144 640 192 640 c 1,24,25
 192 640 192 640 192 640 c 1,26,27
 176 640 176 640 128 640 c 1,28,29
 128 640 128 640 128 640 c 1,22,23
192 640 m 1,30,31
 176 640 176 640 128 640 c 1,32,33
 128 656 128 656 128 704 c 1,34,35
 144 704 144 704 192 704 c 1,36,37
 192 688 192 688 192 640 c 1,30,31
64 640 m 1,38,39
 80 640 80 640 128 640 c 1,40,41
 128 624 128 624 128 576 c 1,42,43
 112 576 112 576 64 576 c 1,44,45
 64 592 64 592 64 640 c 1,38,39
384 704 m 1,46,47
 400 704 400 704 448 704 c 1,48,49
 448 560 448 560 448 128 c 1,50,51
 432 128 432 128 384 128 c 1,52,53
 384 272 384 272 384 704 c 1,46,47
64 128 m 1,54,55
 160 128 160 128 448 128 c 1,56,57
 448 112 448 112 448 64 c 1,58,59
 352 64 352 64 64 64 c 1,60,61
 64 80 64 80 64 128 c 1,54,55
512 64 m 1,62,63
 496 64 496 64 448 64 c 1,64,65
 448 80 448 80 448 128 c 1,66,67
 464 128 464 128 512 128 c 1,68,69
 512 112 512 112 512 64 c 1,62,63
448 64 m 1,70,71
 464 64 464 64 512 64 c 1,72,73
 512 48 512 48 512 0 c 1,74,75
 496 0 496 0 448 0 c 1,76,77
 448 16 448 16 448 64 c 1,70,71
64 64 m 1,78,79
 80 64 80 64 128 64 c 1,80,81
 128 48 128 48 128 0 c 1,82,83
 112 0 112 0 64 0 c 1,84,85
 64 16 64 16 64 64 c 1,78,79
128 512 m 1,86,87
 144 512 144 512 192 512 c 1,88,89
 192 416 192 416 192 128 c 1,90,91
 176 128 176 128 128 128 c 1,92,93
 128 224 128 224 128 512 c 1,86,87
EndSplineSet
EndChar

StartChar: uni0415
Encoding: 1045 1045 112
Width: 448
Flags: W
LayerCount: 2
Fore
SplineSet
320 64 m 0,0,1
 336 64 336 64 384 64 c 1,2,3
 384 48 384 48 384 0 c 1,4,5
 368 0 368 0 320 0 c 0,6,7
 304 0 304 0 256 0 c 0,8,9
 240 0 240 0 192 0 c 0,10,11
 176 0 176 0 128 0 c 0,12,13
 112 0 112 0 64 0 c 1,14,15
 64 16 64 16 64 64 c 1,16,17
 80 64 80 64 128 64 c 1,18,19
 128 80 128 80 128 128 c 0,20,21
 128 144 128 144 128 192 c 0,22,23
 128 208 128 208 128 256 c 0,24,25
 128 272 128 272 128 320 c 0,26,27
 128 336 128 336 128 384 c 0,28,29
 128 400 128 400 128 448 c 0,30,31
 128 464 128 464 128 512 c 0,32,33
 128 528 128 528 128 576 c 0,34,35
 128 592 128 592 128 640 c 1,36,37
 112 640 112 640 64 640 c 1,38,39
 64 656 64 656 64 704 c 1,40,41
 80 704 80 704 128 704 c 1,42,43
 128 720 128 720 128 768 c 1,44,45
 144 768 144 768 192 768 c 0,46,47
 208 768 208 768 256 768 c 0,48,49
 272 768 272 768 320 768 c 0,50,51
 336 768 336 768 384 768 c 1,52,53
 384 752 384 752 384 704 c 1,54,55
 368 704 368 704 320 704 c 0,56,57
 304 704 304 704 256 704 c 0,58,59
 240 704 240 704 192 704 c 1,60,61
 192 688 192 688 192 640 c 0,62,63
 192 624 192 624 192 576 c 0,64,65
 192 560 192 560 192 512 c 0,66,67
 192 496 192 496 192 448 c 1,68,69
 208 448 208 448 256 448 c 0,70,71
 272 448 272 448 320 448 c 1,72,73
 256 448 256 448 320 448 c 1,74,75
 320 448 320 448 320 384 c 1,76,77
 304 384 304 384 320 384 c 1,78,79
 304 384 304 384 256 384 c 0,80,81
 240 384 240 384 192 384 c 1,82,83
 192 368 192 368 192 320 c 0,84,85
 192 304 192 304 192 256 c 0,86,87
 192 240 192 240 192 192 c 0,88,89
 192 176 192 176 192 128 c 0,90,91
 192 112 192 112 192 64 c 1,92,93
 208 64 208 64 256 64 c 0,94,95
 272 64 272 64 320 64 c 0,0,1
EndSplineSet
EndChar

StartChar: uni0416
Encoding: 1046 1046 113
Width: 638
Flags: W
LayerCount: 2
Fore
SplineSet
128 704 m 1,0,1
 144 704 144 704 192 704 c 1,2,3
 192 688 192 688 192 640 c 1,4,5
 176 640 176 640 128 640 c 1,6,7
 128 656 128 656 128 704 c 1,0,1
64 704 m 1,8,9
 80 704 80 704 128 704 c 1,10,11
 128 688 128 688 128 640 c 1,12,13
 112 640 112 640 64 640 c 1,14,15
 64 656 64 656 64 704 c 1,8,9
128 768 m 1,16,17
 144 768 144 768 192 768 c 1,18,19
 192 752 192 752 192 704 c 1,20,21
 176 704 176 704 128 704 c 1,22,23
 128 720 128 720 128 768 c 1,16,17
320 768 m 1,24,25
 336 768 336 768 384 768 c 1,26,27
 384 688 384 688 384 448 c 1,28,29
 368 448 368 448 320 448 c 1,30,31
 320 528 320 528 320 768 c 1,24,25
320 704 m 1,32,33
 304 704 304 704 256 704 c 1,34,35
 256 688 256 688 256 640 c 1,36,37
 272 640 272 640 320 640 c 1,38,39
 320 656 320 656 320 704 c 1,32,33
512 768 m 1,40,41
 528 768 528 768 576 768 c 1,42,43
 576 720 576 720 576 576 c 1,44,45
 560 576 560 576 512 576 c 1,46,47
 512 624 512 624 512 768 c 1,40,41
128 640 m 1,48,49
 144 640 144 640 192 640 c 1,50,51
 192 608 192 608 192 512 c 1,52,53
 176 512 176 512 128 512 c 1,54,55
 128 544 128 544 128 640 c 1,48,49
192 512 m 1,56,57
 208 512 208 512 256 512 c 1,58,59
 256 496 256 496 256 448 c 1,60,61
 240 448 240 448 192 448 c 1,62,63
 192 464 192 464 192 512 c 1,56,57
256 448 m 1,64,65
 272 448 272 448 320 448 c 1,66,67
 320 432 320 432 320 384 c 1,68,69
 304 384 304 384 256 384 c 1,70,71
 256 400 256 400 256 448 c 1,64,65
320 448 m 1,72,73
 352 448 352 448 448 448 c 1,74,75
 448 432 448 432 448 384 c 1,76,77
 416 384 416 384 320 384 c 1,78,79
 320 400 320 400 320 448 c 1,72,73
448 448 m 1,80,81
 448 384 448 384 448 416 c 256,82,83
 448 448 448 448 448 384 c 1,84,85
 448 405 448 405 448 448 c 1,80,81
448 512 m 1,86,87
 464 512 464 512 512 512 c 1,88,89
 512 496 512 496 512 448 c 1,90,91
 496 448 496 448 448 448 c 1,92,93
 448 464 448 464 448 512 c 1,86,87
512 576 m 1,94,95
 528 576 528 576 576 576 c 1,96,97
 576 560 576 560 576 512 c 1,98,99
 560 512 560 512 512 512 c 1,100,101
 512 528 512 528 512 576 c 1,94,95
192 384 m 1,102,103
 208 384 208 384 256 384 c 1,104,105
 256 368 256 368 256 320 c 1,106,107
 240 320 240 320 192 320 c 1,108,109
 192 336 192 336 192 384 c 1,102,103
192 320 m 1,110,111
 208 320 208 320 256 320 c 1,112,113
 256 304 256 304 256 256 c 1,114,115
 240 256 240 256 192 256 c 1,116,117
 192 272 192 272 192 320 c 1,110,111
128 256 m 1,118,119
 144 256 144 256 192 256 c 1,120,121
 192 240 192 240 192 192 c 1,122,123
 176 192 176 192 128 192 c 1,124,125
 128 208 128 208 128 256 c 1,118,119
192 192 m 1,126,127
 192 192 192 192 192 192 c 1,128,129
 192 208 192 208 192 256 c 1,130,131
 192 256 192 256 192 256 c 1,132,133
 192 240 192 240 192 192 c 1,126,127
128 192 m 1,134,135
 144 192 144 192 192 192 c 1,136,137
 192 144 192 144 192 0 c 1,138,139
 176 0 176 0 128 0 c 1,140,141
 128 48 128 48 128 192 c 1,134,135
64 64 m 1,142,143
 80 64 80 64 128 64 c 1,144,145
 128 48 128 48 128 0 c 1,146,147
 112 0 112 0 64 0 c 1,148,149
 64 16 64 16 64 64 c 1,142,143
320 320 m 1,150,151
 336 320 336 320 384 320 c 1,152,153
 384 256 384 256 384 64 c 1,154,155
 368 64 368 64 344 64 c 256,156,157
 320 64 320 64 320 64 c 1,158,159
 320 149 320 149 320 320 c 1,150,151
320 384 m 1,160,161
 336 384 336 384 384 384 c 1,162,163
 384 368 384 368 384 320 c 1,164,165
 368 320 368 320 320 320 c 1,166,167
 320 336 320 336 320 384 c 1,160,161
320 64 m 1,168,169
 320 64 320 64 344 64 c 256,170,171
 368 64 368 64 384 64 c 1,172,173
 384 43 384 43 384 0 c 1,174,175
 368 0 368 0 320 0 c 1,176,177
 320 16 320 16 320 64 c 1,168,169
256 64 m 1,178,179
 272 64 272 64 320 64 c 1,180,181
 320 48 320 48 320 0 c 1,182,183
 304 0 304 0 256 0 c 1,184,185
 256 16 256 16 256 64 c 1,178,179
448 384 m 1,186,187
 464 384 464 384 512 384 c 1,188,189
 512 368 512 368 512 320 c 1,190,191
 496 320 496 320 448 320 c 1,192,193
 448 336 448 336 448 384 c 1,186,187
448 320 m 1,194,195
 464 320 464 320 512 320 c 1,196,197
 512 304 512 304 512 256 c 1,198,199
 496 256 496 256 448 256 c 1,200,201
 448 272 448 272 448 320 c 1,194,195
512 256 m 1,202,203
 528 256 528 256 576 256 c 1,204,205
 576 240 576 240 576 192 c 1,206,207
 560 192 560 192 512 192 c 1,208,209
 512 208 512 208 512 256 c 1,202,203
512 192 m 1,210,211
 528 192 528 192 576 192 c 1,212,213
 576 160 576 160 576 64 c 1,214,215
 560 64 560 64 512 64 c 1,216,217
 512 96 512 96 512 192 c 1,210,211
448 64 m 1,218,219
 480 64 480 64 576 64 c 1,220,221
 576 48 576 48 576 0 c 1,222,223
 544 0 544 0 448 0 c 1,224,225
 448 16 448 16 448 64 c 1,218,219
448 704 m 1,226,227
 464 704 464 704 512 704 c 1,228,229
 512 688 512 688 512 640 c 1,230,231
 496 640 496 640 448 640 c 1,232,233
 448 656 448 656 448 704 c 1,226,227
EndSplineSet
EndChar

StartChar: uni0417
Encoding: 1047 1047 114
Width: 512
Flags: W
LayerCount: 2
Fore
SplineSet
128 704 m 1,0,1
 144 704 144 704 192 704 c 1,2,3
 192 688 192 688 192 640 c 1,4,5
 176 640 176 640 128 640 c 1,6,7
 128 656 128 656 128 704 c 1,0,1
192 768 m 1,8,9
 208 768 208 768 256 768 c 1,10,11
 256 752 256 752 256 704 c 1,12,13
 240 704 240 704 192 704 c 1,14,15
 192 720 192 720 192 768 c 1,8,9
256 768 m 1,16,17
 272 768 272 768 320 768 c 1,18,19
 320 752 320 752 320 704 c 1,20,21
 304 704 304 704 256 704 c 1,22,23
 256 720 256 720 256 768 c 1,16,17
320 704 m 1,24,25
 336 704 336 704 384 704 c 1,26,27
 384 704 384 704 384 704 c 1,28,29
 368 704 368 704 320 704 c 1,30,31
 320 704 320 704 320 704 c 1,24,25
384 768 m 1,32,33
 384 768 384 768 384 768 c 1,34,35
 384 752 384 752 384 704 c 1,36,37
 384 704 384 704 384 704 c 1,38,39
 384 720 384 720 384 768 c 1,32,33
320 768 m 1,40,41
 336 768 336 768 384 768 c 1,42,43
 384 752 384 752 384 704 c 1,44,45
 368 704 368 704 320 704 c 1,46,47
 320 720 320 720 320 768 c 1,40,41
384 704 m 1,48,49
 400 704 400 704 448 704 c 1,50,51
 448 688 448 688 448 640 c 1,52,53
 432 640 432 640 384 640 c 1,54,55
 384 656 384 656 384 704 c 1,48,49
384 640 m 1,56,57
 400 640 400 640 448 640 c 1,58,59
 448 624 448 624 448 576 c 1,60,61
 432 576 432 576 384 576 c 1,62,63
 384 592 384 592 384 640 c 1,56,57
384 576 m 1,64,65
 400 576 400 576 448 576 c 1,66,67
 448 560 448 560 448 512 c 1,68,69
 432 512 432 512 384 512 c 1,70,71
 384 528 384 528 384 576 c 1,64,65
320 640 m 1,72,73
 336 640 336 640 384 640 c 1,74,75
 384 640 384 640 384 640 c 1,76,77
 368 640 368 640 320 640 c 1,78,79
 320 640 320 640 320 640 c 1,72,73
320 640 m 1,80,81
 336 640 336 640 384 640 c 1,82,83
 384 624 384 624 384 576 c 1,84,85
 368 576 368 576 320 576 c 1,86,87
 320 592 320 592 320 640 c 1,80,81
384 512 m 1,88,89
 400 512 400 512 448 512 c 1,90,91
 448 496 448 496 448 448 c 1,92,93
 432 448 432 448 384 448 c 1,94,95
 384 464 384 464 384 512 c 1,88,89
320 448 m 1,96,97
 336 448 336 448 384 448 c 1,98,99
 384 432 384 432 384 384 c 1,100,101
 368 384 368 384 320 384 c 1,102,103
 320 400 320 400 320 448 c 1,96,97
320 448 m 1,104,105
 320 448 320 448 320 448 c 1,106,107
 320 432 320 432 320 384 c 1,108,109
 320 384 320 384 320 384 c 1,110,111
 320 400 320 400 320 448 c 1,104,105
384 384 m 1,112,113
 400 384 400 384 448 384 c 1,114,115
 448 368 448 368 448 320 c 1,116,117
 432 320 432 320 384 320 c 1,118,119
 384 336 384 336 384 384 c 1,112,113
384 320 m 1,120,121
 400 320 400 320 448 320 c 1,122,123
 448 256 448 256 448 64 c 1,124,125
 432 64 432 64 384 64 c 1,126,127
 384 128 384 128 384 320 c 1,120,121
320 64 m 1,128,129
 288 64 288 64 192 64 c 1,130,131
 192 48 192 48 192 0 c 1,132,133
 224 0 224 0 320 0 c 1,134,135
 320 16 320 16 320 64 c 1,128,129
384 64 m 1,136,137
 368 64 368 64 320 64 c 1,138,139
 320 48 320 48 320 0 c 1,140,141
 336 0 336 0 384 0 c 1,142,143
 384 16 384 16 384 64 c 1,136,137
128 128 m 1,144,145
 144 128 144 128 192 128 c 1,146,147
 192 112 192 112 192 64 c 1,148,149
 176 64 176 64 128 64 c 1,150,151
 128 80 128 80 128 128 c 1,144,145
192 192 m 1,152,153
 208 192 208 192 256 192 c 1,154,155
 256 176 256 176 256 128 c 1,156,157
 240 128 240 128 192 128 c 1,158,159
 192 144 192 144 192 192 c 1,152,153
256 448 m 1,160,161
 272 448 272 448 320 448 c 1,162,163
 320 432 320 432 320 384 c 1,164,165
 304 384 304 384 256 384 c 1,166,167
 256 400 256 400 256 448 c 1,160,161
EndSplineSet
EndChar

StartChar: uni0418
Encoding: 1048 1048 115
Width: 574
Flags: W
LayerCount: 2
Fore
SplineSet
128 0 m 0,0,1
 112 0 112 0 64 0 c 1,2,3
 64 16 64 16 64 64 c 1,4,5
 80 64 80 64 128 64 c 1,6,7
 128 80 128 80 128 128 c 0,8,9
 128 144 128 144 128 192 c 0,10,11
 128 208 128 208 128 256 c 0,12,13
 128 272 128 272 128 320 c 0,14,15
 128 336 128 336 128 384 c 0,16,17
 128 400 128 400 128 448 c 0,18,19
 128 464 128 464 128 512 c 0,20,21
 128 528 128 528 128 576 c 0,22,23
 128 592 128 592 128 640 c 1,24,25
 112 640 112 640 64 640 c 1,26,27
 64 656 64 656 64 704 c 1,28,29
 80 704 80 704 128 704 c 1,30,31
 128 720 128 720 128 768 c 1,32,33
 144 768 144 768 192 768 c 1,34,35
 192 538 192 538 192 512 c 0,36,37
 192 496 192 496 192 448 c 0,38,39
 192 432 192 432 192 384 c 0,40,41
 192 368 192 368 192 320 c 0,42,43
 192 304 192 304 192 256 c 0,44,45
 192 240 192 240 192 192 c 0,46,47
 192 176 192 176 192 128 c 0,48,49
 192 112 192 112 192 64 c 0,50,51
 192 48 192 48 192 0 c 1,52,53
 176 0 176 0 128 0 c 0,0,1
448 0 m 1,54,55
 448 16 448 16 448 64 c 2,56,57
 448 64 448 64 448 192 c 0,58,59
 448 208 448 208 448 256 c 0,60,61
 448 272 448 272 448 320 c 0,62,63
 448 336 448 336 448 384 c 0,64,65
 448 400 448 400 448 448 c 0,66,67
 448 464 448 464 448 512 c 0,68,69
 448 528 448 528 448 576 c 0,70,71
 448 592 448 592 448 640 c 1,72,73
 432 640 432 640 384 640 c 1,74,75
 384 656 384 656 384 704 c 1,76,77
 400 704 400 704 448 704 c 1,78,79
 448 720 448 720 448 768 c 1,80,81
 464 768 464 768 512 768 c 1,82,83
 512 752 512 752 512 704 c 0,84,85
 512 688 512 688 512 640 c 0,86,87
 512 624 512 624 512 576 c 0,88,89
 512 560 512 560 512 512 c 0,90,91
 512 496 512 496 512 448 c 0,92,93
 512 432 512 432 512 384 c 0,94,95
 512 368 512 368 512 320 c 0,96,97
 512 304 512 304 512 256 c 0,98,99
 512 240 512 240 512 192 c 0,100,101
 512 176 512 176 512 128 c 0,102,103
 512 112 512 112 512 64 c 0,104,105
 512 48 512 48 512 0 c 1,106,107
 496 0 496 0 448 0 c 1,54,55
256 64 m 1,108,109
 240 64 240 64 192 64 c 1,110,111
 192 96 192 96 192 192 c 1,112,113
 208 192 208 192 256 192 c 1,114,115
 256 160 256 160 256 64 c 1,108,109
256 384 m 1,116,117
 272 384 272 384 320 384 c 1,118,119
 320 336 320 336 320 192 c 1,120,121
 304 192 304 192 256 192 c 1,122,123
 256 240 256 240 256 384 c 1,116,117
320 576 m 1,124,125
 336 576 336 576 384 576 c 1,126,127
 384 528 384 528 384 384 c 1,128,129
 368 384 368 384 320 384 c 1,130,131
 320 432 320 432 320 576 c 1,124,125
384 640 m 1,132,133
 400 640 400 640 448 640 c 1,134,135
 448 624 448 624 448 576 c 1,136,137
 432 576 432 576 384 576 c 1,138,139
 384 592 384 592 384 640 c 1,132,133
384 704 m 1,140,141
 384 688 384 688 384 640 c 1,142,143
 384 640 384 640 384 672 c 256,144,145
 384 704 384 704 384 704 c 1,140,141
384 64 m 1,146,147
 400 64 400 64 448 64 c 1,148,149
 448 48 448 48 448 0 c 1,150,151
 432 0 432 0 384 0 c 1,152,153
 384 16 384 16 384 64 c 1,146,147
EndSplineSet
EndChar

